<?xml version="1.0" encoding="UTF-8" standalone="no"?>
<!-- Created with Inkscape (http://www.inkscape.org/) -->

<svg
   width="124.478mm"
   height="64.711998mm"
   viewBox="0 0 124.478 64.711997"
   version="1.1"
   id="svg1"
   inkscape:version="1.3 (0e150ed, 2023-07-21)"
   sodipodi:docname="cyclocrooks.svg"
   xmlns:inkscape="http://www.inkscape.org/namespaces/inkscape"
   xmlns:sodipodi="http://sodipodi.sourceforge.net/DTD/sodipodi-0.dtd"
   xmlns="http://www.w3.org/2000/svg"
   xmlns:svg="http://www.w3.org/2000/svg">
  <sodipodi:namedview
     id="namedview1"
     pagecolor="#ffffff"
     bordercolor="#000000"
     borderopacity="0.25"
     inkscape:showpageshadow="2"
     inkscape:pageopacity="0.0"
     inkscape:pagecheckerboard="0"
     inkscape:deskcolor="#d1d1d1"
     inkscape:document-units="mm"
     inkscape:zoom="1.3953719"
     inkscape:cx="238.64606"
     inkscape:cy="115.0231"
     inkscape:window-width="2560"
     inkscape:window-height="1080"
     inkscape:window-x="0"
     inkscape:window-y="0"
     inkscape:window-maximized="0"
     inkscape:current-layer="layer1" />
  <defs
     id="defs1" />
  <g
     inkscape:label="Ebene 1"
     inkscape:groupmode="layer"
     id="layer1"
     transform="translate(-2.1373372,-161.00878)">
    <path
       id="path32"
       style="font-style:normal;font-variant:normal;font-weight:normal;font-stretch:normal;font-size:37.7637px;line-height:33.0365px;font-family:Omen;-inkscape-font-specification:'Omen, Normal';font-variant-ligatures:normal;font-variant-caps:normal;font-variant-numeric:normal;font-variant-east-asian:normal;letter-spacing:-2.92934px;writing-mode:lr-tb;fill:#00ffff;fill-opacity:1;stroke:none;stroke-width:1.77286"
       d="m 77.479144,165.47966 -2.638082,9.45988 -1.281575,-1.58904 -3.919141,14.19034 0.07545,0.11317 h -0.150895 l -1.281576,4.76819 h 16.356107 l 0.03772,0.0377 2.148189,-7.98452 -3.806486,-4.76767 -2.148189,7.83311 -6.105053,0.0755 2.110465,-7.60574 1.281059,1.62677 4.447273,-16.15766 z m 17.152441,0 -2.637565,9.57357 -1.281575,-1.55132 -5.200716,18.92029 h 16.242941 l 0.0377,0.0377 3.42925,-12.3362 1.28158,1.6273 4.44675,-16.27136 z m -72.740263,0.0186 -4.220931,15.6285 -0.150895,0.26459 1.582849,1.93011 7.273458,9.08162 -0.03772,-0.0755 0.03772,0.0378 v 0.0377 0.0383 h 4.447274 l 2.298567,-8.36331 -3.65559,-4.57853 -1.620573,6.77374 -4.861203,-6.09265 2.035018,-7.53029 c 0.100498,-0.35318 0.213376,-0.7317 0.338998,-1.13533 0.125622,-0.40364 0.251099,-0.81964 0.376721,-1.2485 l 6.406845,-0.076 -0.715719,2.53525 5.615161,-2.49752 0.65629,-2.35438 5.860625,7.4631 -3.429248,12.3362 3.84421,4.76819 3.429248,-12.37443 0.866614,1.0976 9.120373,-15.66623 h -5.690609 l -3.806486,7.03833 -5.464266,-7.03833 h -4.067969 -2.527493 z m 36.454622,0 -4.22093,15.6285 -0.150895,0.26459 1.582849,1.93011 7.273458,9.08162 -0.03772,-0.0755 0.03772,0.0378 v 0.0377 0.0383 h 4.447273 l 2.298568,-8.36331 -3.65559,-4.57853 -1.620573,6.77374 -4.861203,-6.09265 2.035018,-7.53029 c 0.100497,-0.35318 0.213375,-0.7317 0.338997,-1.13533 0.125622,-0.40364 0.2511,-0.81964 0.376722,-1.2485 l 6.406844,-0.076 -0.716235,2.53525 5.615678,-2.49752 1.318782,-4.72995 z m 46.159976,4.67361 -1.3193,4.88136 -1.28106,-1.55132 -3.919657,14.19034 h -6.029607 l 2.072743,-7.56853 1.281058,1.6273 3.127974,-11.50369 z m -55.567153,23.03942 -2.638082,9.57358 -1.281575,-1.55132 -5.200716,18.92029 H 56.06133 l 0.03772,0.0377 3.429765,-12.3362 1.281059,1.62729 4.447274,-16.27137 z m 18.949231,0 -2.638082,9.57358 -1.281058,-1.55132 -5.201234,18.92029 h 16.242937 l 0.03772,0.0377 3.429765,-12.3362 1.281059,1.62729 4.447274,-16.27137 z m 37.182232,0 -3.1657,11.31457 3.84369,4.9568 v -0.0377 l 4.74855,-1.89187 -2.18591,7.83311 h -6.14278 l 0.8294,-2.80034 -3.806483,-4.80591 -2.110465,7.60625 h -0.03772 l 3.693318,4.76767 0.0377,0.0377 v -0.0377 h 11.34349 l 3.80648,-14.79548 -3.69331,-4.12481 -0.0377,0.0377 -4.74855,2.00556 1.43196,-5.29787 6.03012,-0.0754 -0.67851,2.42156 5.76605,-2.42156 1.35703,-4.69223 z m -93.825803,0.0186 -4.2209309,15.62851 -0.1508952,0.2651 1.5828491,1.92959 7.273458,9.08214 -0.03772,-0.076 0.03772,0.0377 v 0.0383 0.0377 h 4.447273 l 2.298568,-8.36279 -3.65559,-4.57906 -1.620573,6.77375 -4.861202,-6.09265 2.035017,-7.53029 c 0.100498,-0.35318 0.213376,-0.73169 0.338998,-1.13533 0.125621,-0.40364 0.2511,-0.81964 0.376721,-1.24851 l 6.406844,-0.076 -0.716235,2.53577 5.615678,-2.49752 1.318782,-4.73047 z m 18.884636,0 -2.638083,9.53585 -1.281575,-1.55132 -3.919141,14.19035 3.84421,4.76818 2.750736,-10.06605 c 0.326617,0.40363 0.716167,0.90866 1.168405,1.51412 0.477362,0.58022 0.97979,1.21073 1.507402,1.89187 0.527611,0.65591 1.067836,1.33692 1.620572,2.04329 0.552736,0.68114 1.067763,1.32465 1.545125,1.93011 0.477363,0.60546 0.90471,1.14745 1.281576,1.62677 0.376866,0.47932 0.653019,0.83284 0.82889,1.05989 l 1.771468,-6.35724 c -0.653233,-0.95864 -1.331536,-1.91767 -2.035018,-2.8763 -0.703481,-0.98387 -1.394384,-1.96738 -2.072742,-2.95124 l 8.743136,-3.822 3.3538,-10.93628 z m 57.2425,0.0191 -2.638081,9.49813 -1.281576,-1.55133 -3.919141,14.19035 3.843693,4.76767 2.751254,-10.06553 c 0.577859,0.73158 1.268762,1.60211 2.072742,2.6112 0.803979,1.00909 1.595677,2.01811 2.374531,3.02721 0.80398,0.98387 1.520081,1.89188 2.148189,2.72438 0.653233,0.80728 1.105263,1.37479 1.356507,1.70274 l 1.771468,-6.35724 c -0.57786,-0.80727 -1.24408,-1.72778 -1.997811,-2.7621 -0.75373,-1.03432 -1.481915,-2.04385 -2.185396,-3.02772 l 8.818588,-3.85972 3.31607,-10.89804 h -5.125266 l -1.997294,7.18975 -7.009909,3.0272 2.826701,-10.21695 z m -28.55898,4.6545 -1.318782,4.88135 -1.281576,-1.55132 -3.919658,14.19035 h -6.029606 l 2.072742,-7.56853 1.281575,1.62729 3.127975,-11.5037 z m 18.949231,0 -1.318782,4.88135 -1.281576,-1.55132 -3.919141,14.19035 h -6.030122 l 2.072741,-7.56853 1.281575,1.62729 3.127975,-11.5037 z m -37.645765,0.0568 -0.678511,2.53523 -7.009391,2.98949 1.507401,-5.44928 z" />
    <path
       id="path33"
       style="font-style:normal;font-variant:normal;font-weight:normal;font-stretch:normal;font-size:37.7637px;line-height:33.0365px;font-family:Omen;-inkscape-font-specification:'Omen, Normal';font-variant-ligatures:normal;font-variant-caps:normal;font-variant-numeric:normal;font-variant-east-asian:normal;letter-spacing:-2.92934px;writing-mode:lr-tb;fill:#ff0000;fill-opacity:1;stroke:none;stroke-width:1.77286"
       d="m 78.00831,166.538 -2.638081,9.45988 -1.281576,-1.58905 -3.91914,14.19035 0.07545,0.11317 h -0.150895 l -1.281576,4.76819 H 85.1686 l 0.03772,0.0377 2.148189,-7.98452 -3.806486,-4.76767 -2.148189,7.83311 -6.105053,0.0755 2.110465,-7.60573 1.281059,1.62677 4.447273,-16.15766 z m 17.152442,0 -2.637565,9.57357 -1.281575,-1.55133 -5.200717,18.9203 h 16.242935 l 0.0377,0.0377 3.42926,-12.3362 1.28157,1.62729 4.44676,-16.27135 z m -72.740263,0.0186 -4.220931,15.62851 -0.150896,0.26459 1.58285,1.93011 7.273457,9.08162 -0.03772,-0.0754 0.03772,0.0378 v 0.0377 0.0383 h 4.447275 l 2.298567,-8.36331 -3.655591,-4.57854 -1.620573,6.77375 -4.861202,-6.09266 2.035018,-7.53029 c 0.100498,-0.35318 0.213376,-0.73169 0.338998,-1.13533 0.125622,-0.40363 0.251099,-0.81963 0.376721,-1.2485 l 6.406844,-0.076 -0.715719,2.53525 5.615161,-2.49752 0.656291,-2.35438 5.860625,7.4631 -3.429249,12.3362 3.84421,4.76819 3.429248,-12.37444 0.866614,1.0976 9.120374,-15.66623 h -5.69061 l -3.806485,7.03834 -5.464266,-7.03834 h -4.067969 -2.527494 z m 36.454622,0 -4.22093,15.62851 -0.150896,0.26459 1.58285,1.93011 7.273457,9.08162 -0.03772,-0.0754 0.03772,0.0378 v 0.0377 0.0383 h 4.447274 l 2.298568,-8.36331 -3.655591,-4.57854 -1.620573,6.77375 -4.861202,-6.09266 2.035018,-7.53029 c 0.100497,-0.35318 0.213375,-0.73169 0.338997,-1.13533 0.125622,-0.40363 0.2511,-0.81963 0.376722,-1.2485 l 6.406843,-0.076 -0.716235,2.53525 5.615678,-2.49752 1.318783,-4.72996 z m 46.159969,4.67362 -1.31929,4.88136 -1.28106,-1.55133 -3.919661,14.19035 h -6.029606 l 2.072742,-7.56853 1.281058,1.62729 3.127975,-11.50369 z m -55.567146,23.03942 -2.638083,9.57358 -1.281575,-1.55132 -5.200716,18.92028 h 16.242936 l 0.03772,0.0377 3.429765,-12.3362 1.281059,1.6273 4.447273,-16.27137 z m 18.949231,0 -2.638082,9.57358 -1.281059,-1.55132 -5.201233,18.92028 h 16.242936 l 0.03772,0.0377 3.429765,-12.3362 1.281059,1.6273 4.447273,-16.27137 z m 37.182235,0 -3.16571,11.31456 3.8437,4.95681 v -0.0377 l 4.74855,-1.89187 -2.18592,7.83311 h -6.14278 l 0.82941,-2.80034 -3.806486,-4.80591 -2.110465,7.60625 h -0.03772 l 3.693311,4.76766 0.0377,0.0377 v -0.0377 h 11.3435 l 3.80648,-14.79548 -3.69331,-4.1248 -0.0377,0.0377 -4.74855,2.00556 1.43196,-5.29787 6.03011,-0.0754 -0.67851,2.42155 5.76606,-2.42155 1.35702,-4.69223 z m -93.825806,0.0186 -4.2209312,15.6285 -0.1508953,0.2651 1.5828492,1.9296 7.2734573,9.08214 -0.03772,-0.076 0.03772,0.0377 v 0.0383 0.0377 h 4.447274 l 2.298568,-8.36279 -3.655591,-4.57905 -1.620573,6.77374 -4.861202,-6.09264 2.035018,-7.53029 c 0.100498,-0.35318 0.213376,-0.7317 0.338998,-1.13533 0.125621,-0.40365 0.251099,-0.81964 0.376721,-1.24851 l 6.406843,-0.076 -0.716235,2.53577 5.615678,-2.49752 1.318783,-4.73046 z m 18.884635,0 -2.638082,9.53585 -1.281575,-1.55132 -3.919141,14.19034 3.844209,4.76818 2.750737,-10.06605 c 0.326617,0.40364 0.716166,0.90867 1.168405,1.51413 0.477362,0.58022 0.979789,1.21073 1.507401,1.89187 0.527611,0.65591 1.067837,1.33692 1.620572,2.04328 0.552737,0.68115 1.067764,1.32466 1.545126,1.93012 0.477363,0.60545 0.90471,1.14745 1.281576,1.62677 0.376865,0.47932 0.653019,0.83284 0.82889,1.05988 l 1.771467,-6.35723 c -0.653233,-0.95864 -1.331535,-1.91767 -2.035017,-2.87631 -0.703482,-0.98387 -1.394384,-1.96738 -2.072742,-2.95123 l 8.743136,-3.822 3.3538,-10.93628 z m 57.242501,0.0191 -2.638082,9.49813 -1.281575,-1.55133 -3.919141,14.19035 3.843693,4.76766 2.751254,-10.06553 c 0.577859,0.73159 1.268762,1.60212 2.072741,2.61121 0.80398,1.00909 1.595677,2.01811 2.374532,3.0272 0.803979,0.98387 1.520081,1.89189 2.148189,2.72439 0.653233,0.80728 1.105263,1.37479 1.356507,1.70273 l 1.771468,-6.35723 c -0.57786,-0.80727 -1.244081,-1.72778 -1.997811,-2.7621 -0.75373,-1.03433 -1.481915,-2.04386 -2.185396,-3.02773 l 8.818581,-3.85971 3.31608,-10.89804 H 99.2065 l -1.997294,7.18974 -7.009908,3.02721 2.8267,-10.21695 z m -28.55898,4.6545 -1.318783,4.88135 -1.281576,-1.55132 -3.919657,14.19034 h -6.029607 l 2.072743,-7.56853 1.281575,1.6273 3.127975,-11.5037 z m 18.949231,0 -1.318783,4.88135 -1.281576,-1.55132 -3.91914,14.19034 h -6.030123 l 2.072742,-7.56853 1.281575,1.6273 3.127974,-11.5037 z m -37.645765,0.0568 -0.678511,2.53524 -7.009392,2.98949 1.507402,-5.44928 z" />
    <path
       id="text11"
       style="font-style:normal;font-variant:normal;font-weight:normal;font-stretch:normal;font-size:37.7637px;line-height:33.0365px;font-family:Omen;-inkscape-font-specification:'Omen, Normal';font-variant-ligatures:normal;font-variant-caps:normal;font-variant-numeric:normal;font-variant-east-asian:normal;letter-spacing:-2.92934px;writing-mode:lr-tb;fill:#000000;fill-opacity:1;stroke:none;stroke-width:1.77286"
       d="m 78.008311,166.00883 -2.638082,9.45989 -1.281575,-1.58905 -3.919141,14.19035 0.07545,0.11317 h -0.150895 l -1.281576,4.76819 h 16.356107 l 0.03772,0.0377 2.148189,-7.98452 -3.806486,-4.76766 -2.148189,7.83311 -6.105053,0.0755 2.110465,-7.60574 1.281059,1.62678 4.447273,-16.15767 z m 17.152441,0 -2.637565,9.57358 -1.281575,-1.55133 -5.200716,18.9203 h 16.242934 l 0.0377,0.0377 3.42926,-12.33619 1.28157,1.62729 4.44676,-16.27136 z m -72.740263,0.0186 -4.220931,15.6285 -0.150895,0.2646 1.582849,1.93011 7.273458,9.08162 -0.03772,-0.0755 0.03772,0.0378 v 0.0377 0.0383 h 4.447274 l 2.298567,-8.36332 -3.65559,-4.57853 -1.620573,6.77375 -4.861203,-6.09266 2.035018,-7.53029 c 0.100498,-0.35318 0.213376,-0.73169 0.338998,-1.13533 0.125622,-0.40363 0.251099,-0.81963 0.376721,-1.2485 l 6.406845,-0.076 -0.715719,2.53524 5.615161,-2.49752 0.65629,-2.35438 5.860625,7.46311 -3.429248,12.3362 3.844209,4.76819 3.429249,-12.37444 0.866614,1.0976 9.120373,-15.66623 h -5.690609 l -3.806486,7.03834 -5.464266,-7.03834 h -4.067969 -2.527493 z m 36.454622,0 -4.22093,15.6285 -0.150895,0.2646 1.582849,1.93011 7.273458,9.08162 -0.03772,-0.0755 0.03772,0.0378 v 0.0377 0.0383 h 4.447273 l 2.298568,-8.36332 -3.65559,-4.57853 -1.620573,6.77375 -4.861203,-6.09266 2.035018,-7.53029 c 0.100497,-0.35318 0.213375,-0.73169 0.338997,-1.13533 0.125622,-0.40363 0.2511,-0.81963 0.376722,-1.2485 l 6.406844,-0.076 -0.716235,2.53524 5.615678,-2.49752 1.318782,-4.72995 z m 46.159969,4.67362 -1.31929,4.88136 -1.28106,-1.55133 -3.91966,14.19035 h -6.029607 l 2.072743,-7.56853 1.281058,1.62729 3.127974,-11.50369 z m -55.567146,23.03942 -2.638082,9.57357 -1.281575,-1.55131 -5.200717,18.92028 h 16.242937 l 0.03772,0.0377 3.429765,-12.3362 1.281059,1.62729 4.447274,-16.27136 z m 18.949231,0 -2.638082,9.57357 -1.281058,-1.55131 -5.201234,18.92028 h 16.242936 l 0.03772,0.0377 3.429765,-12.3362 1.281059,1.62729 4.447274,-16.27136 z m 37.182235,0 -3.16571,11.31456 3.8437,4.95681 v -0.0377 l 4.74855,-1.89188 -2.18592,7.83311 h -6.14278 l 0.82941,-2.80034 -3.806486,-4.8059 -2.110465,7.60624 h -0.03772 l 3.693314,4.76767 0.0377,0.0377 v -0.0377 h 11.3435 l 3.80648,-14.79548 -3.69331,-4.1248 -0.0377,0.0377 -4.74855,2.00557 1.43196,-5.29787 6.03011,-0.0755 -0.67851,2.42156 5.76606,-2.42156 1.35702,-4.69222 z m -93.825806,0.0186 -4.2209312,15.6285 -0.1508953,0.2651 1.5828492,1.92959 7.2734583,9.08214 -0.03772,-0.076 0.03772,0.0377 v 0.0383 0.0377 h 4.447273 l 2.298568,-8.36279 -3.65559,-4.57905 -1.620574,6.77374 -4.861202,-6.09264 2.035018,-7.53029 c 0.100498,-0.35319 0.213376,-0.7317 0.338998,-1.13533 0.125621,-0.40365 0.251099,-0.81965 0.376721,-1.24851 l 6.406844,-0.076 -0.716235,2.53577 5.615678,-2.49752 1.318782,-4.73046 z m 18.884636,0 -2.638083,9.53585 -1.281575,-1.55132 -3.919141,14.19034 3.84421,4.76818 2.750736,-10.06605 c 0.326617,0.40363 0.716167,0.90867 1.168405,1.51412 0.477362,0.58023 0.97979,1.21074 1.507402,1.89188 0.527611,0.65591 1.067836,1.33692 1.620572,2.04328 0.552736,0.68114 1.067763,1.32466 1.545125,1.93011 0.477363,0.60546 0.90471,1.14746 1.281576,1.62678 0.376866,0.47932 0.653019,0.83284 0.82889,1.05988 l 1.771468,-6.35723 c -0.653233,-0.95864 -1.331536,-1.91767 -2.035018,-2.87631 -0.703481,-0.98387 -1.394384,-1.96738 -2.072742,-2.95124 l 8.743136,-3.82199 3.3538,-10.93628 z m 57.2425,0.0191 -2.638081,9.49813 -1.281576,-1.55133 -3.919141,14.19034 3.843693,4.76767 2.751254,-10.06553 c 0.577859,0.73159 1.268762,1.60211 2.072742,2.61121 0.803979,1.00909 1.595676,2.01811 2.374531,3.0272 0.80398,0.98387 1.520081,1.89188 2.148189,2.72438 0.653233,0.80728 1.105263,1.37479 1.356507,1.70274 l 1.771468,-6.35723 c -0.57786,-0.80727 -1.24408,-1.72778 -1.997811,-2.76211 -0.75373,-1.03432 -1.481915,-2.04385 -2.185396,-3.02772 l 8.818581,-3.85971 3.31608,-10.89804 h -5.125269 l -1.997294,7.18974 -7.009909,3.02721 2.826701,-10.21695 z m -28.55898,4.65449 -1.318782,4.88135 -1.281576,-1.55131 -3.919658,14.19034 h -6.029606 l 2.072742,-7.56853 1.281575,1.6273 3.127975,-11.5037 z m 18.949231,0 -1.318782,4.88135 -1.281576,-1.55131 -3.919141,14.19034 H 65.74136 l 2.072741,-7.56853 1.281575,1.6273 3.127975,-11.5037 z m -37.645765,0.0568 -0.678511,2.53524 -7.009391,2.98948 1.507401,-5.44928 z" />
  </g>
</svg>
