<?xml version="1.0" standalone="no"?>
<!DOCTYPE svg PUBLIC "-//W3C//DTD SVG 20010904//EN"
 "http://www.w3.org/TR/2001/REC-SVG-20010904/DTD/svg10.dtd">
<svg version="1.0" xmlns="http://www.w3.org/2000/svg"
 width="1000.000000pt" height="1000.000000pt" viewBox="0 0 1000.000000 1000.000000"
 preserveAspectRatio="xMidYMid meet">
<metadata>
Created by potrace 1.14, written by Peter Selinger 2001-2017
</metadata>
<g transform="translate(0.000000,1000.000000) scale(0.100000,-0.100000)"
fill="#000000" stroke="none">
<path d="M1989 8252 c-15 -10 -20 -11 -14 -2 5 8 3 11 -5 8 -7 -2 -14 -12 -16
-21 -2 -13 3 -16 16 -12 10 3 21 2 24 -4 3 -5 -8 -8 -25 -7 -16 1 -32 -1 -35
-6 -3 -4 -10 -8 -17 -8 -6 0 -2 6 8 14 33 24 27 44 -14 42 -20 0 -42 -5 -50
-10 -10 -7 -12 -6 -6 4 5 8 3 11 -5 8 -7 -2 -14 -12 -16 -21 -2 -13 3 -16 16
-12 10 3 21 2 24 -3 3 -5 -7 -8 -22 -8 -15 1 -34 -3 -42 -9 -13 -9 -13 -8 0 9
26 33 21 43 -24 43 -29 0 -43 -4 -43 -13 0 -17 3 -17 26 -5 11 6 23 6 32 0 12
-8 12 -10 -1 -8 -27 3 -41 -1 -36 -9 3 -5 -1 -9 -9 -9 -8 0 -16 4 -16 9 -1 4
-2 13 -3 19 0 7 -17 14 -37 16 -27 2 -36 -1 -36 -12 0 -18 8 -19 27 -2 8 6 6
2 -4 -11 -21 -24 -26 -23 -30 5 -3 16 -13 18 -97 18 l-93 0 -12 -42 c-11 -37
-10 -45 4 -59 15 -15 14 -16 -6 -10 -13 5 -22 3 -22 -3 0 -11 11 -14 40 -12
10 0 11 -1 2 -5 -6 -3 -10 -10 -6 -15 3 -5 0 -9 -5 -9 -6 0 -11 5 -11 10 0 6
-7 10 -16 10 -11 0 -14 -5 -10 -16 3 -9 6 -18 6 -20 0 -3 6 -2 13 2 10 6 10 4
0 -7 -18 -18 -16 -34 1 -20 12 10 14 9 11 -6 -2 -10 -4 -20 -5 -23 -1 -3 -2
-9 -1 -13 1 -4 -8 -3 -19 3 -25 13 -26 22 -2 13 15 -6 15 -5 4 10 -8 9 -11 21
-7 27 3 5 1 10 -4 10 -6 0 -12 -10 -13 -22 -1 -22 -4 -38 -8 -48 -1 -3 -3 -12
-6 -20 -2 -8 -10 -37 -18 -65 -9 -33 -10 -56 -4 -68 6 -11 5 -24 -2 -35 -9
-15 -10 -14 -5 6 4 13 2 22 -4 22 -9 0 -16 -37 -12 -62 0 -5 -4 -8 -11 -8 -6
0 -9 -3 -5 -6 3 -3 -1 -24 -9 -47 -14 -40 -14 -42 8 -59 13 -10 18 -18 11 -18
-6 0 -15 5 -18 10 -9 14 -22 12 -22 -2 -1 -7 -9 -40 -18 -73 -10 -33 -18 -67
-19 -75 -1 -9 -5 -21 -9 -27 -5 -8 0 -11 13 -10 23 2 23 2 9 29 -9 16 -8 19 2
13 9 -6 11 -3 6 8 -4 10 -2 14 7 11 7 -3 13 -11 13 -19 0 -8 -4 -12 -9 -9 -4
3 -7 -5 -5 -18 1 -15 -3 -22 -11 -20 -8 1 -12 -3 -9 -10 2 -7 11 -12 18 -10 8
1 7 -4 -5 -12 -10 -8 -15 -19 -11 -25 3 -7 0 -8 -9 -5 -9 3 -16 2 -16 -4 0 -6
6 -13 13 -15 9 -4 9 -6 0 -6 -21 -2 -25 20 -8 39 17 18 13 40 -6 40 -6 0 -7
-4 -4 -10 3 -5 1 -18 -4 -28 -6 -11 -13 -31 -16 -45 -3 -15 -7 -38 -10 -52 -3
-13 -10 -36 -15 -50 -13 -34 -13 -35 5 -29 8 4 15 2 16 -2 0 -5 2 -17 4 -26 2
-12 -2 -15 -13 -11 -11 5 -13 3 -7 -7 6 -9 4 -11 -5 -5 -10 6 -9 11 4 21 9 6
13 14 9 17 -12 7 -27 -4 -32 -23 -2 -8 -6 -23 -8 -32 -3 -10 0 -18 6 -18 5 0
9 6 7 13 -1 6 -1 9 1 4 3 -4 9 -5 14 -1 5 3 9 1 9 -5 0 -5 -6 -12 -12 -14 -10
-4 -10 -6 0 -6 6 -1 12 -6 12 -13 0 -9 -3 -9 -12 0 -28 28 -33 19 -63 -101 -3
-13 0 -17 9 -14 10 4 12 0 9 -14 -3 -11 0 -19 8 -19 7 0 10 -2 7 -5 -8 -9 -38
6 -32 16 3 5 0 9 -5 9 -6 0 -11 -7 -11 -15 0 -8 4 -15 10 -15 5 0 14 -9 20
-20 9 -16 8 -18 -5 -14 -8 3 -12 10 -9 15 3 5 0 9 -6 9 -6 0 -15 -12 -20 -26
-13 -32 -13 -31 5 -31 9 0 14 6 11 13 -3 8 0 11 8 8 18 -7 16 -31 -6 -51 -11
-9 -18 -11 -18 -5 0 7 5 12 11 12 5 0 7 5 4 10 -9 15 -37 -9 -31 -27 3 -7 2
-13 -3 -13 -8 0 -24 -57 -25 -90 -1 -8 -4 -20 -9 -27 -9 -14 -11 -52 -5 -73 3
-8 3 -12 1 -7 -8 13 -25 7 -20 -7 3 -8 1 -16 -4 -18 -12 -4 -1 -38 12 -38 5 0
9 5 9 10 0 6 -5 10 -12 10 -6 0 -9 2 -6 5 3 3 13 3 22 -1 12 -4 14 -10 6 -19
-5 -6 -6 -16 -2 -20 4 -5 1 -5 -5 -1 -7 4 -21 1 -30 -6 -17 -13 -21 -20 -29
-63 l-4 -20 9 20 c9 19 10 18 10 -5 0 -14 2 -40 5 -57 4 -24 1 -35 -12 -42
-14 -7 -18 -5 -18 9 0 13 4 16 12 9 8 -7 11 -2 11 16 1 14 -4 25 -9 25 -5 0
-6 5 -3 10 3 6 1 10 -5 10 -7 0 -9 -8 -5 -21 5 -15 4 -19 -4 -15 -10 7 -16
-27 -12 -63 2 -7 -2 -11 -6 -8 -19 12 -11 -34 8 -47 14 -9 17 -16 9 -21 -6 -4
-9 -13 -6 -20 2 -7 -2 -22 -10 -34 -8 -12 -12 -25 -9 -31 3 -6 -1 -7 -10 -4
-11 5 -13 10 -5 19 5 6 7 15 3 18 -3 4 1 9 10 13 13 5 14 10 6 26 -8 16 -8 19
1 13 8 -5 11 -3 8 5 -2 8 -11 16 -19 18 -8 3 -11 1 -7 -3 4 -5 3 -14 -4 -22
-6 -7 -8 -16 -5 -20 3 -3 0 -21 -8 -40 -17 -41 -18 -46 -6 -39 4 3 17 -1 27
-9 18 -14 18 -15 0 -9 -16 6 -17 5 -6 -16 10 -18 9 -21 -1 -15 -9 6 -11 3 -6
-9 4 -10 3 -15 -3 -11 -14 9 -12 -8 3 -25 10 -12 9 -12 -5 -1 -21 15 -24 2 -5
-18 10 -11 8 -11 -10 0 -20 12 -20 14 -6 36 21 32 26 73 7 66 -8 -3 -12 -9 -9
-13 3 -4 -2 -25 -11 -46 -15 -35 -15 -39 1 -50 18 -13 13 -34 -8 -34 -8 0 -8
3 2 9 8 5 9 11 3 15 -12 7 -19 -2 -26 -35 -3 -13 -9 -39 -15 -57 -6 -19 -6
-30 0 -27 5 4 9 2 9 -4 0 -5 -5 -11 -12 -13 -6 -2 -13 -13 -15 -24 -5 -28 6
-66 17 -59 7 4 6 13 0 25 -8 16 -7 18 4 14 18 -7 13 -38 -8 -60 -17 -17 -22
-39 -7 -30 11 7 9 -13 -2 -31 -5 -7 -6 -17 -3 -21 2 -4 1 -14 -4 -22 -7 -11
-9 -8 -8 10 1 14 5 30 10 37 5 6 5 14 -2 18 -5 3 -10 1 -10 -4 0 -6 -8 -11
-17 -11 -15 0 -16 -2 -3 -10 8 -5 10 -10 4 -10 -6 0 -19 -27 -29 -60 -18 -60
-18 -60 3 -83 12 -13 22 -27 22 -33 0 -5 -4 -3 -9 5 -8 13 -12 13 -28 0 -17
-13 -17 -13 -4 4 8 9 11 20 7 24 -8 9 -15 1 -19 -23 -1 -10 -6 -24 -10 -31 -4
-7 0 -17 10 -23 16 -10 16 -11 1 -6 -21 6 -23 2 -32 -47 -5 -27 -4 -37 4 -32
5 3 8 10 6 14 -3 4 0 13 6 21 8 12 9 11 4 -4 -4 -13 -2 -17 7 -13 8 3 14 -1
14 -8 0 -7 -5 -11 -11 -9 -17 6 -44 -20 -50 -47 -8 -41 -14 -62 -30 -113 -12
-39 -13 -53 -3 -65 10 -12 9 -14 -6 -8 -13 5 -17 3 -14 -5 2 -7 15 -12 28 -11
13 1 18 -1 11 -3 -6 -3 -10 -10 -7 -15 4 -5 -1 -6 -10 -3 -11 5 -14 2 -9 -12
5 -16 4 -16 -5 -4 -10 13 -12 13 -21 0 -5 -8 -7 -21 -5 -29 3 -8 0 -18 -7 -22
-7 -4 -9 -11 -6 -14 4 -4 17 0 29 9 20 13 20 16 6 22 -9 3 -17 11 -17 17 0 5
9 2 21 -8 l20 -19 -23 -19 c-16 -13 -18 -17 -5 -13 9 3 17 1 17 -5 0 -7 -10
-9 -25 -5 -33 8 -44 -17 -18 -42 10 -9 14 -14 9 -9 -12 9 -42 10 -33 1 3 -4
-1 -20 -9 -36 -8 -16 -12 -33 -9 -37 3 -5 -1 -12 -7 -14 -10 -4 -10 -6 0 -6 9
-1 9 -7 -3 -25 -8 -13 -13 -31 -9 -40 3 -9 2 -16 -3 -16 -5 0 -10 -6 -11 -12
0 -7 -6 -31 -12 -53 -6 -22 -12 -48 -15 -58 -2 -9 -7 -22 -10 -27 -4 -6 -2
-17 5 -25 8 -10 8 -15 -1 -21 -8 -5 -10 -3 -4 7 6 11 5 12 -5 2 -7 -7 -13 -28
-13 -47 0 -19 -4 -33 -9 -30 -4 3 -8 -1 -9 -8 -2 -34 -11 -63 -22 -70 -6 -4
-7 -8 -2 -8 6 0 4 -4 -4 -9 -18 -12 -6 -61 15 -61 10 0 14 -6 11 -14 -6 -16
12 -46 56 -93 17 -18 27 -33 23 -33 -5 0 6 -13 23 -29 17 -16 31 -35 30 -43 0
-10 -2 -10 -6 0 -2 6 -8 10 -13 7 -4 -3 -7 3 -6 13 0 10 -6 16 -16 16 -10 -1
-16 2 -13 6 3 5 -4 15 -16 23 -12 9 -16 16 -9 19 7 2 3 11 -9 22 -21 19 -21
19 -18 -4 2 -12 10 -28 18 -34 9 -6 18 -19 22 -29 3 -9 12 -16 19 -15 7 2 12
-3 10 -10 -1 -7 5 -15 13 -18 8 -4 15 -10 15 -15 0 -4 16 -25 35 -46 19 -21
38 -46 41 -55 3 -10 10 -18 16 -18 7 0 6 5 -1 14 -20 24 5 27 25 4 11 -12 14
-18 8 -15 -22 13 -23 -22 -1 -38 27 -19 43 -19 27 0 -7 8 -16 13 -20 10 -5 -3
-11 -1 -14 4 -15 24 31 0 55 -29 26 -30 31 -58 8 -44 -5 3 -7 10 -4 15 4 5 1
9 -5 9 -6 0 -8 4 -5 10 3 5 0 7 -9 4 -12 -5 -11 -10 7 -30 12 -14 26 -23 32
-20 16 6 25 -2 64 -52 19 -24 26 -39 17 -36 -9 3 -16 10 -16 16 0 5 -4 6 -10
3 -5 -3 -7 0 -4 8 6 18 -12 32 -21 17 -3 -5 -1 -10 5 -10 6 0 9 -4 5 -9 -3 -6
4 -15 15 -21 11 -6 18 -15 15 -20 -3 -5 5 -7 17 -5 18 2 33 -9 65 -51 28 -35
39 -56 31 -60 -7 -5 -8 -3 -3 6 6 9 4 11 -5 5 -9 -6 -11 -4 -5 5 6 9 4 11 -5
5 -9 -6 -11 -4 -5 5 6 9 4 11 -5 5 -9 -6 -11 -4 -5 5 5 9 4 11 -4 6 -14 -9 -5
-24 26 -49 13 -10 21 -22 18 -27 -3 -4 10 -21 27 -36 18 -15 32 -30 31 -33 -3
-12 26 -31 32 -21 3 6 2 10 -3 10 -5 0 -9 7 -9 15 0 21 12 10 31 -30 10 -20
21 -33 26 -30 6 3 7 -1 4 -9 -5 -12 -8 -12 -23 2 -10 9 -16 24 -13 32 3 13 2
13 -6 1 -8 -11 -5 -20 9 -35 10 -12 26 -30 34 -41 13 -17 16 -18 26 -5 9 12
10 11 6 -8 -4 -17 3 -33 21 -53 35 -37 41 -46 77 -94 17 -22 34 -43 40 -47 19
-14 25 -8 13 11 -7 11 -14 19 -17 18 -4 -1 -7 2 -8 7 -1 5 -7 13 -15 17 -7 5
-8 9 -2 9 6 0 20 -11 33 -23 24 -27 38 -71 18 -62 -7 4 -5 1 3 -7 8 -7 21 -25
29 -40 16 -30 26 -35 37 -16 4 7 3 8 -4 4 -8 -5 -10 -1 -5 9 4 13 8 14 14 4 4
-7 4 -20 -1 -29 -8 -14 10 -52 24 -51 3 1 7 -2 7 -6 3 -20 83 -104 94 -99 12
4 51 -28 57 -49 2 -5 7 -9 11 -7 5 1 6 -2 3 -7 -4 -5 0 -11 6 -14 10 -3 10 -7
0 -19 -10 -13 -10 -17 4 -22 23 -9 31 -7 14 4 -8 5 -10 10 -5 10 6 0 16 -4 24
-9 11 -7 9 -10 -7 -15 -21 -7 -21 -7 -1 -27 25 -25 37 -25 14 1 -10 11 -13 20
-7 20 7 0 12 -5 12 -11 0 -5 5 -7 12 -3 6 4 8 3 4 -4 -3 -6 -1 -14 6 -19 7 -4
21 -18 31 -30 14 -16 15 -23 6 -29 -8 -5 -10 -3 -4 6 6 9 4 11 -5 5 -9 -6 -11
-4 -5 5 5 9 4 11 -3 6 -9 -5 -4 -18 14 -42 15 -19 30 -34 35 -34 5 0 9 -7 9
-16 0 -9 5 -12 12 -8 8 5 4 13 -10 25 -12 9 -19 19 -15 22 5 2 2 2 -5 0 -7 -1
-10 2 -7 7 3 6 1 10 -6 10 -7 0 -9 3 -6 6 4 4 18 -1 33 -10 14 -10 23 -20 20
-24 -4 -3 4 -17 16 -31 13 -14 15 -19 6 -12 -15 12 -18 11 -18 -3 0 -9 5 -16
10 -16 6 0 10 -6 10 -13 0 -20 37 -50 54 -44 17 7 42 -18 27 -27 -5 -4 -12 -2
-16 4 -3 5 -12 10 -18 10 -7 0 -4 -5 6 -11 9 -6 15 -14 12 -20 -8 -12 8 -12
21 0 5 5 16 2 26 -8 16 -16 16 -17 -2 -17 -10 0 -16 5 -13 10 4 5 1 6 -7 1 -9
-6 -3 -17 23 -40 20 -18 34 -35 31 -38 -2 -2 3 -10 12 -17 13 -11 17 -11 24
-1 6 10 10 8 15 -8 3 -12 11 -18 17 -15 6 4 8 2 4 -4 -3 -6 0 -14 7 -19 17
-10 41 -53 34 -60 -3 -2 -8 5 -12 16 -3 12 -11 19 -16 15 -5 -3 -8 -2 -7 3 4
11 -38 64 -45 57 -3 -4 6 -17 20 -30 14 -13 22 -24 17 -24 -5 0 0 -7 10 -15
11 -8 16 -15 12 -15 -4 0 6 -12 21 -26 15 -14 28 -31 28 -37 0 -7 12 -11 27
-11 15 1 25 -2 23 -6 -3 -4 2 -11 11 -14 8 -3 13 -10 9 -15 -3 -6 4 -15 15
-21 15 -8 18 -15 11 -28 -6 -11 -4 -22 9 -37 11 -11 29 -33 42 -48 13 -15 33
-29 45 -30 12 0 19 -5 17 -9 -3 -4 0 -8 5 -8 6 0 11 -5 11 -12 0 -6 -7 -4 -18
5 -10 10 -22 17 -27 17 -4 0 2 -8 13 -19 12 -10 22 -22 22 -27 0 -12 84 -104
94 -104 5 0 3 7 -4 15 -7 9 -8 15 -2 15 14 0 22 -26 11 -37 -5 -5 4 -23 24
-45 18 -20 46 -55 62 -78 16 -23 38 -46 49 -51 16 -8 15 -6 -4 10 -14 11 -20
21 -15 21 6 0 3 5 -5 11 -13 9 -13 10 0 6 8 -2 14 -10 12 -16 -1 -7 6 -11 15
-9 19 3 25 -19 10 -39 -12 -16 5 -17 20 -2 8 8 13 7 18 -2 5 -7 4 -10 -2 -6
-6 4 -14 0 -17 -9 -9 -24 -7 -27 9 -14 9 7 18 10 22 6 3 -3 1 -6 -5 -6 -17 0
-15 -13 7 -37 17 -18 30 -20 148 -18 70 1 134 -3 141 -8 6 -5 12 -5 12 -1 0
11 130 12 148 1 6 -5 12 -4 12 0 0 10 130 10 146 0 7 -4 14 0 18 8 3 8 1 17
-4 20 -6 4 -10 0 -10 -7 0 -10 -2 -10 -9 1 -7 11 -9 11 -14 0 -4 -10 -6 -10
-6 -1 -1 6 -6 12 -12 12 -5 0 -7 -5 -3 -12 4 -7 3 -8 -5 -4 -6 4 -9 12 -6 17
4 5 1 9 -4 9 -6 0 -11 -8 -11 -17 0 -15 -2 -16 -10 -3 -9 13 -10 13 -10 0 0
-13 -1 -13 -10 0 -9 13 -10 13 -10 0 0 -9 -3 -11 -8 -5 -4 6 -14 10 -22 10 -8
0 -18 -4 -22 -10 -5 -6 -8 -4 -8 5 0 13 -1 13 -10 0 -6 -10 -10 -11 -10 -2 0
6 -5 12 -11 12 -5 0 -7 -5 -3 -12 4 -7 3 -8 -5 -4 -6 4 -9 12 -6 17 4 5 1 9
-4 9 -6 0 -11 -8 -11 -17 0 -15 -2 -16 -10 -3 -9 13 -10 13 -10 0 0 -13 -1
-13 -10 0 -9 13 -10 13 -10 0 0 -9 -3 -11 -8 -5 -4 6 -14 10 -22 10 -8 0 -18
-4 -22 -10 -5 -6 -8 -4 -8 5 0 13 -1 13 -10 0 -6 -10 -10 -11 -10 -2 0 6 -5
12 -11 12 -5 0 -7 -5 -3 -12 4 -7 3 -8 -5 -4 -6 4 -9 12 -6 17 4 5 1 9 -4 9
-6 0 -11 -8 -11 -17 0 -15 -2 -16 -10 -3 -9 13 -10 13 -10 0 0 -13 -1 -13 -10
0 -9 13 -10 13 -10 0 0 -12 -2 -12 -9 -2 -4 8 -12 14 -16 14 -4 0 -12 -6 -16
-14 -7 -10 -9 -10 -9 2 0 13 -1 13 -10 0 -7 -11 -10 -11 -10 -2 0 8 -5 10 -12
5 -17 -10 -42 -14 -33 -5 4 4 11 8 16 8 22 3 23 5 9 14 -11 7 -20 4 -33 -13
-10 -12 -15 -15 -11 -7 6 12 5 13 -8 3 -18 -15 -32 -5 -17 13 6 7 18 10 26 7
10 -4 14 -2 10 4 -4 6 7 9 30 7 19 -1 39 -8 44 -15 8 -12 12 -7 11 11 0 3 8 6
18 6 12 0 16 -6 12 -16 -4 -12 -2 -12 8 -3 7 6 19 9 28 6 11 -5 13 -2 7 6 -6
10 -3 11 13 2 27 -14 35 -14 26 2 -4 6 3 3 16 -8 16 -14 22 -16 18 -5 -4 11 2
15 22 15 20 0 26 -4 22 -15 -4 -12 -2 -12 8 -3 7 6 19 9 28 6 11 -5 13 -2 7 6
-6 10 -3 11 13 2 27 -14 35 -14 26 2 -4 6 3 3 16 -8 16 -14 22 -16 18 -5 -4
11 2 15 22 15 20 0 26 -4 22 -15 -4 -12 -2 -12 8 -3 7 6 19 9 28 6 11 -5 13
-2 7 6 -6 10 -3 11 13 2 27 -14 35 -14 26 2 -4 6 3 3 16 -8 16 -14 22 -16 18
-5 -4 11 1 15 18 15 21 0 22 -2 9 -12 -10 -6 -12 -14 -6 -17 5 -4 17 4 25 16
9 12 16 17 16 10 0 -7 5 -10 11 -7 5 4 21 8 34 9 18 2 22 -1 18 -13 -5 -13 -3
-13 7 -4 7 6 19 9 28 6 9 -4 13 -2 9 4 -3 5 0 10 7 10 10 0 10 -6 2 -23 -7
-15 -13 -19 -18 -11 -5 8 -8 7 -8 -3 0 -10 -3 -11 -8 -4 -7 11 -16 11 -52 3
-8 -2 -14 2 -12 9 1 8 -2 11 -8 7 -6 -3 -8 -11 -5 -16 4 -5 2 -9 -4 -9 -5 0
-11 5 -13 11 -2 7 -8 6 -16 -3 -10 -13 9 -15 143 -14 97 1 155 -3 155 -9 0 -7
3 -7 8 0 4 6 32 10 62 10 30 0 55 5 55 10 1 6 7 21 14 34 8 14 9 21 2 17 -6
-4 -11 -2 -11 3 0 6 5 11 11 11 5 0 7 5 4 10 -4 6 -1 17 5 25 7 8 10 21 7 30
-4 8 -2 17 4 20 5 4 7 10 4 15 -3 5 0 12 6 15 5 4 8 14 5 22 -4 9 -2 11 6 7 7
-5 9 0 6 14 -4 12 -2 22 2 22 5 0 7 11 6 25 -2 13 1 22 5 19 8 -5 13 10 10 29
-1 4 5 23 14 43 8 19 10 32 4 28 -6 -3 -3 6 7 22 14 21 15 26 4 19 -12 -7 -13
-6 -3 7 7 8 10 18 6 21 -3 4 -2 7 4 7 6 0 14 7 17 16 3 8 2 12 -4 9 -6 -3 -10
-1 -10 4 0 6 5 11 11 11 6 0 9 7 5 15 -3 8 -1 15 5 15 6 0 9 7 5 15 -3 8 -2
15 2 15 4 0 9 9 10 20 1 11 3 29 4 40 1 11 6 20 11 20 4 0 6 4 2 9 -3 5 -1 13
5 16 6 4 8 15 5 26 -4 10 -2 19 3 19 6 0 9 11 8 25 -2 15 1 22 7 18 6 -4 8 0
4 10 -3 10 -2 17 3 17 5 0 7 9 5 20 -2 11 0 20 4 20 4 0 8 6 9 13 2 22 7 42
16 56 7 11 6 12 -5 6 -11 -7 -12 -6 -2 6 7 9 14 24 16 35 1 10 6 25 10 32 5 6
5 17 2 22 -3 6 -2 10 4 10 6 0 7 7 4 17 -5 12 -3 14 7 8 9 -5 11 -4 6 3 -4 6
-2 21 5 33 9 17 8 20 -3 13 -10 -6 -11 -5 -1 8 7 8 10 18 6 21 -3 4 -1 7 6 7
8 0 11 7 7 15 -3 8 0 15 6 15 6 0 8 3 5 7 -4 3 -1 13 6 21 10 13 9 14 -3 7
-11 -7 -11 -3 3 18 10 15 15 32 12 38 -4 5 -1 16 5 24 6 8 9 19 5 25 -3 5 -2
10 4 10 5 0 8 11 7 25 -2 15 1 22 7 18 6 -4 8 0 4 10 -3 10 -2 17 3 17 5 0 7
6 4 14 -3 8 -1 17 5 20 6 4 8 13 4 21 -3 8 -1 15 5 15 6 0 9 8 7 18 -1 9 1 22
6 27 4 6 9 22 11 35 2 14 7 31 11 38 5 6 5 12 1 12 -3 0 -1 7 6 15 7 8 9 15 5
15 -4 0 -1 8 6 17 12 15 12 16 -1 8 -12 -7 -13 -6 -3 7 7 8 10 18 6 21 -3 4
-1 7 5 7 6 0 9 9 7 20 -2 11 1 20 7 20 5 0 8 6 5 14 -3 8 -3 17 1 21 4 4 8 11
8 16 1 5 2 10 4 12 4 5 11 43 11 60 0 9 4 17 9 17 5 0 9 8 9 18 0 16 6 50 12
62 1 3 3 10 4 15 2 6 4 12 5 15 1 3 4 24 6 48 4 35 -1 50 -23 80 -22 29 -223
282 -280 352 -7 8 -53 67 -103 130 -50 63 -99 124 -108 135 -9 11 -35 43 -57
70 -21 28 -42 52 -45 55 -3 3 -27 34 -55 70 -46 60 -75 96 -100 124 -5 6 -26
32 -45 58 -19 26 -41 48 -49 48 -8 0 -11 3 -8 7 4 3 2 12 -4 20 -13 15 -43 18
-34 3 4 -6 11 -7 17 -4 7 4 8 2 4 -5 -4 -6 -12 -9 -17 -6 -5 4 -9 -8 -9 -24 0
-17 -4 -31 -9 -31 -6 0 -10 -8 -10 -17 0 -10 -3 -31 -6 -48 -5 -23 -4 -26 4
-15 7 9 11 11 11 3 0 -7 -6 -16 -14 -20 -8 -4 -16 -21 -19 -38 -3 -16 -8 -43
-12 -60 -5 -24 -4 -27 5 -15 10 13 11 12 6 -3 -3 -11 0 -20 9 -23 8 -4 12 -10
9 -16 -3 -5 -12 -1 -19 9 -15 20 -23 16 -28 -13 -2 -10 -7 -31 -12 -47 -8 -30
9 -62 28 -50 6 3 7 1 3 -5 -5 -9 -13 -9 -27 -2 -23 13 -25 2 -2 -15 17 -12 11
-35 -10 -35 -7 0 -6 4 3 10 8 5 11 12 7 16 -12 12 -30 -13 -23 -31 5 -13 10
-14 28 -5 22 11 22 10 4 -4 -11 -9 -14 -16 -8 -16 7 0 12 -5 12 -11 0 -8 -4
-9 -13 0 -8 6 -18 7 -22 3 -5 -4 -5 -1 -1 6 4 6 2 12 -4 12 -7 0 -9 -8 -5 -20
3 -11 2 -20 -3 -20 -5 0 -13 -19 -17 -42 -5 -24 -9 -45 -10 -48 -2 -7 -27
-123 -29 -135 -1 -5 -5 -16 -9 -22 -5 -7 -6 -17 -2 -22 3 -5 0 -13 -6 -16 -5
-4 -8 -13 -5 -20 3 -8 -2 -29 -11 -46 -12 -24 -13 -34 -5 -37 7 -2 12 -8 12
-13 0 -4 -8 -6 -17 -3 -13 5 -10 -1 7 -17 14 -13 21 -21 16 -16 -23 17 -37 6
-15 -13 14 -11 19 -20 12 -21 -7 -1 -17 -2 -22 -3 -15 -2 -22 -12 -27 -42 -5
-27 -4 -27 14 -11 10 9 22 17 27 17 6 0 -4 -9 -54 -47 -2 -2 -1 -6 2 -10 4 -3
19 4 35 18 l27 24 -24 -28 c-14 -15 -30 -27 -36 -27 -15 0 -16 -33 -1 -42 6
-4 17 -1 25 5 10 8 9 4 -3 -15 -13 -19 -14 -27 -5 -30 9 -3 7 -7 -5 -11 -9 -4
-15 -3 -11 2 3 5 1 12 -5 16 -5 3 -10 1 -10 -5 0 -6 -4 -9 -8 -6 -12 7 -11
-26 0 -41 5 -6 15 -11 21 -9 7 1 9 1 4 -1 -4 -3 -4 -10 0 -16 3 -7 -3 -4 -14
5 -30 27 -31 26 -35 -37 -1 -14 -5 -25 -8 -25 -4 0 -7 -6 -8 -12 -1 -20 -12
-71 -18 -88 -5 -13 -9 -32 -18 -85 -1 -5 -5 -16 -9 -23 -5 -7 -5 -22 -1 -34 6
-19 5 -20 -8 -8 -8 8 -74 89 -146 180 -73 91 -138 172 -145 180 -7 8 -93 116
-192 240 -98 124 -181 227 -185 230 -3 3 -30 37 -60 75 -30 39 -57 72 -60 75
-3 3 -34 41 -68 85 -35 44 -68 87 -75 95 -148 182 -178 223 -173 235 2 7 0 16
-7 18 -8 3 -7 10 6 24 9 11 15 27 12 36 -4 8 -1 18 4 22 6 3 9 11 6 16 -4 5
-1 9 5 9 6 0 8 5 5 10 -4 6 -2 16 3 23 9 12 10 18 14 72 1 14 6 25 11 25 5 0
7 9 4 20 -3 11 -2 18 3 15 4 -3 10 4 13 15 3 13 1 18 -6 13 -7 -3 -3 4 8 17
11 13 14 20 6 15 -11 -6 -12 -5 -5 6 9 15 11 20 13 45 1 9 6 12 14 8 7 -5 6 0
-3 11 -12 15 -12 17 -1 10 11 -6 13 -4 8 8 -3 9 -2 19 3 22 15 9 12 27 -2 20
-7 -4 -6 -1 3 7 9 7 15 21 13 31 -1 9 1 17 6 17 5 0 7 11 6 25 -2 15 1 22 7
18 6 -4 8 0 4 10 -3 9 -2 19 4 23 6 3 8 12 5 19 -2 7 1 21 8 31 7 11 12 29 11
42 -1 12 2 22 7 22 5 0 6 5 3 10 -4 6 -1 17 5 25 7 8 10 20 7 27 -2 7 2 21 11
31 12 14 13 17 1 17 -11 1 -10 3 2 10 10 6 15 20 14 35 -2 14 0 25 5 25 4 0 6
10 6 23 -1 12 5 31 13 41 14 17 14 18 1 11 -12 -7 -13 -6 -3 7 7 8 10 18 6 21
-3 4 -2 7 4 7 10 0 13 14 14 57 1 13 4 21 8 19 4 -3 8 4 9 15 1 10 3 28 4 39
1 11 5 20 8 20 4 0 7 6 8 13 0 6 3 25 7 41 3 16 7 34 8 40 1 6 5 13 8 16 4 3
8 19 10 35 2 17 7 36 12 43 5 6 6 12 2 12 -4 0 -3 6 2 13 6 6 9 20 8 30 -2 9
1 17 6 17 6 0 8 4 5 8 -3 5 1 21 9 36 8 15 9 24 3 20 -7 -5 -8 -2 -2 7 4 8 10
22 11 32 2 10 10 32 19 49 12 22 12 28 2 22 -10 -6 -10 -4 1 9 7 9 10 17 6 17
-4 0 -2 7 5 15 7 8 10 22 6 30 -3 8 -1 15 5 15 6 0 7 5 4 10 -4 6 -1 17 5 25
6 8 9 19 5 25 -3 5 -1 10 5 10 7 0 9 8 5 21 -5 16 -4 19 5 14 9 -5 10 -1 5 15
-5 17 -4 21 6 15 9 -6 11 -4 6 7 -3 9 0 21 6 27 8 8 7 11 -3 11 -13 0 -13 2 0
10 8 5 16 17 16 27 3 31 8 47 23 62 10 11 11 16 2 19 -8 3 -6 9 6 19 10 8 12
12 6 8 -7 -3 -13 -1 -13 5 0 6 7 13 16 17 13 5 13 7 2 14 -11 7 -11 9 1 9 8 0
11 6 7 16 -4 10 1 25 10 35 9 10 14 25 11 34 -4 8 -2 15 3 15 5 0 6 7 3 17 -5
11 -3 14 6 8 10 -5 11 -2 6 14 -3 12 -2 21 4 21 5 0 8 9 6 20 -2 11 0 20 5 20
5 0 6 7 3 17 -4 10 -2 14 4 10 6 -4 14 0 17 9 9 24 7 31 -4 14 -6 -9 -10 -10
-10 -3 0 6 4 14 10 18 5 3 8 11 6 18 -1 7 -1 8 2 4 2 -4 9 -3 16 2 12 11 41 9
52 -2 10 -10 26 -9 20 1 -2 4 6 8 19 8 14 0 22 -2 20 -5 -3 -2 0 -10 6 -17 7
-8 7 -14 -1 -19 -6 -4 -10 -3 -9 2 4 22 -2 25 -16 7 -14 -18 -16 -18 -29 -1
-12 15 -15 15 -26 2 -7 -8 -16 -12 -22 -9 -5 3 -4 12 3 20 7 8 7 14 1 14 -5 0
-15 -7 -22 -15 -9 -11 -9 -15 -1 -15 7 0 10 -4 7 -8 -2 -4 31 -8 74 -8 43 1
76 4 73 9 -2 4 -7 5 -11 3 -4 -2 -8 6 -8 18 -1 18 4 23 26 23 22 0 27 -5 26
-23 0 -12 -4 -20 -8 -17 -5 2 -8 -1 -8 -7 0 -14 25 -8 26 6 2 24 18 42 35 41
10 -1 19 -5 19 -10 0 -5 -7 -6 -16 -3 -14 5 -15 4 -5 -8 9 -11 9 -16 0 -22 -7
-4 -9 -3 -6 3 3 5 0 10 -7 10 -8 0 -12 -5 -10 -11 5 -13 124 -16 124 -3 0 4 6
5 13 0 19 -12 40 -13 54 -1 7 6 13 7 13 2 0 -5 11 -9 23 -9 13 0 24 5 24 12 0
6 -11 9 -26 7 -17 -3 -22 -2 -13 4 11 7 10 10 -3 16 -9 3 -21 4 -25 1 -5 -3
-11 -1 -14 3 -7 12 47 10 56 -2 11 -16 36 -15 43 2 6 16 7 15 16 -1 6 -9 15
-15 21 -11 7 4 5 10 -3 16 -11 8 -10 9 3 5 9 -3 19 -3 22 0 3 4 17 7 30 8 21
0 22 -2 13 -22 -6 -13 -15 -23 -20 -23 -5 0 -4 7 3 15 8 10 9 15 2 15 -6 0
-16 -8 -21 -17 -7 -12 -10 -14 -11 -4 0 9 -4 10 -12 4 -7 -6 -21 -9 -30 -8
-25 4 -23 -11 2 -18 11 -3 20 -1 20 3 0 5 9 8 20 7 11 -1 20 -4 20 -7 0 -3 9
-6 20 -6 12 0 19 5 16 13 -7 17 23 45 40 39 8 -3 14 0 14 7 0 7 5 4 11 -6 8
-14 14 -15 24 -7 7 6 27 8 45 5 24 -4 30 -2 24 7 -6 10 -5 10 8 0 12 -10 17
-10 20 -1 2 7 11 1 20 -13 15 -23 15 -24 -7 -24 -13 0 -22 3 -19 7 2 4 0 10
-6 14 -5 3 -10 -2 -10 -12 0 -15 -2 -16 -10 -3 -8 13 -10 13 -10 1 0 -11 -4
-9 -15 5 -15 19 -15 19 -9 -1 l7 -20 -16 20 c-14 19 -16 19 -22 3 -4 -10 -11
-18 -17 -18 -5 0 -7 4 -4 8 2 4 -4 9 -15 9 -10 1 -19 -4 -19 -10 0 -8 -3 -7
-9 2 -6 9 -11 10 -15 2 -9 -14 -21 -14 286 -15 198 -1 269 2 272 11 3 7 -3 10
-14 8 -10 -2 -24 3 -31 11 -6 8 -16 14 -22 14 -5 0 -3 -8 6 -18 15 -17 15 -18
-6 -19 -12 0 -16 1 -9 4 6 3 10 9 6 14 -3 5 -13 5 -25 -1 -10 -6 -19 -8 -19
-4 0 3 -8 0 -17 -7 -15 -11 -16 -11 -5 1 6 8 12 19 12 25 -1 5 -10 -1 -20 -14
-11 -13 -20 -19 -20 -14 0 5 5 14 11 20 9 9 7 12 -10 10 -16 -1 -20 -6 -15
-22 4 -16 3 -17 -5 -5 -6 8 -11 11 -11 5 0 -5 -4 -4 -9 4 -5 8 -20 15 -34 17
-20 2 -25 -2 -22 -15 2 -11 -3 -17 -15 -17 -12 0 -17 6 -14 19 2 14 -1 17 -14
12 -26 -11 -41 -11 -41 -1 -1 6 65 10 159 11 88 1 155 -2 148 -7 -7 -4 -11 -8
-8 -9 3 0 13 -2 23 -4 12 -2 17 1 14 9 -3 7 1 13 9 13 9 0 13 -6 9 -15 -3 -8
0 -12 7 -9 7 2 12 9 11 14 -1 5 7 9 17 9 10 0 18 -5 17 -10 -1 -5 6 -12 16
-14 9 -2 17 2 17 8 0 6 -5 8 -12 4 -6 -4 -8 -3 -5 2 3 6 27 9 54 9 26 0 51 4
55 10 5 6 8 2 8 -9 0 -19 0 -19 22 0 12 10 18 14 15 7 -4 -6 1 -19 10 -29 16
-16 16 -16 -5 -10 -14 5 -22 3 -22 -4 0 -19 53 -7 56 13 1 12 -2 17 -10 14 -7
-3 -13 1 -13 8 0 10 5 11 18 4 12 -6 16 -17 13 -34 -2 -14 0 -25 6 -25 5 0 10
-8 10 -17 0 -16 -2 -16 -11 -3 -8 11 -9 7 -6 -18 2 -18 -1 -36 -6 -39 -6 -4
-7 -1 -2 8 5 8 4 10 0 6 -10 -9 -16 -37 -7 -37 14 0 40 33 35 46 -3 8 -1 14 5
14 9 0 9 -20 2 -40 -4 -8 -7 -24 -8 -40 -2 -11 -5 -11 -14 -2 -16 16 -38 15
-38 -1 0 -8 9 -22 20 -32 11 -10 19 -25 19 -34 -1 -12 -2 -12 -6 2 -3 11 -10
16 -20 13 -8 -3 -20 -6 -25 -6 -6 0 -8 -3 -5 -7 4 -3 2 -12 -3 -18 -6 -7 -12
-27 -13 -44 -1 -17 -6 -31 -10 -31 -5 0 -6 -4 -2 -9 3 -5 1 -12 -5 -16 -6 -4
-8 -11 -4 -16 3 -5 0 -16 -6 -24 -7 -8 -10 -15 -7 -15 4 0 0 -18 -8 -40 -8
-23 -10 -38 -5 -35 17 11 11 -7 -7 -21 -11 -8 -13 -13 -6 -14 17 0 54 41 46
53 -3 5 -9 3 -14 -4 -14 -22 -10 4 5 30 8 14 13 30 12 35 -2 6 -1 8 1 4 2 -4
12 -4 21 -1 12 4 11 0 -5 -16 -22 -21 -32 -48 -14 -37 5 4 8 -2 6 -11 -2 -10
-4 -18 -5 -18 -1 0 -3 -12 -5 -27 -2 -16 -7 -37 -10 -48 -6 -18 -3 -20 19 -17
14 1 28 6 32 9 3 4 13 4 22 1 11 -5 13 -3 7 8 -4 8 -5 11 0 7 4 -4 20 1 34 11
26 19 27 19 50 0 18 -15 26 -17 32 -7 9 14 3 28 -12 28 -6 0 -7 -4 -4 -10 10
-17 -2 -11 -16 8 -7 9 -9 14 -5 10 5 -4 15 -3 23 3 10 9 13 8 13 -2 0 -11 2
-11 10 1 5 8 12 11 17 7 4 -5 3 -11 -2 -15 -6 -4 -11 -13 -13 -21 -3 -12 0
-12 12 -1 9 7 16 9 16 4 0 -12 20 19 20 31 0 6 -5 3 -11 -5 -9 -13 -10 -13 -6
2 3 9 1 19 -6 22 -7 3 -1 3 12 0 17 -5 21 -3 16 6 -5 8 -4 11 3 6 5 -3 13 0
15 6 4 10 6 10 6 1 1 -7 6 -13 12 -13 5 0 8 4 4 9 -7 12 29 33 39 24 3 -3 6
-1 6 4 0 6 12 10 26 8 18 -2 24 1 20 12 -3 8 -2 11 3 8 5 -3 12 -1 16 4 3 6
13 7 22 4 10 -4 14 -2 9 5 -4 7 2 9 20 6 15 -3 23 -1 20 5 -4 6 2 15 13 21 23
12 34 1 20 -20 -6 -10 -9 -11 -9 -2 0 6 -5 12 -10 12 -6 0 -9 -3 -9 -7 4 -23
-3 -31 -21 -28 -13 3 -18 0 -14 -7 5 -7 2 -8 -6 -3 -7 4 -16 2 -21 -6 -7 -12
-9 -12 -9 1 0 9 -5 7 -16 -8 -11 -16 -22 -21 -36 -16 -13 4 -18 2 -14 -4 3 -6
1 -14 -5 -18 -7 -4 -9 -3 -5 4 3 6 2 13 -4 17 -5 3 -10 -1 -10 -9 0 -9 -5 -16
-11 -16 -5 0 -7 -4 -4 -10 5 -8 69 14 85 30 3 3 14 7 25 8 11 2 27 10 36 18 9
8 19 11 23 7 4 -4 11 -2 15 5 7 12 25 19 55 21 4 1 6 7 3 14 -3 8 1 14 9 14 7
0 11 -5 7 -10 -3 -5 5 -3 18 4 13 7 28 12 32 11 4 -1 10 5 13 13 3 8 10 12 15
9 6 -3 27 3 48 15 22 11 42 17 45 14 3 -4 6 -1 6 5 0 7 3 11 8 10 4 -1 17 1
30 6 22 7 31 36 11 36 -5 0 -8 -4 -4 -9 3 -5 0 -13 -6 -17 -8 -5 -10 -2 -5 7
6 10 4 10 -6 -1 -12 -14 -19 -17 -58 -25 -8 -2 -17 -4 -20 -5 -3 -1 -9 -2 -13
-1 -5 1 -6 -3 -2 -9 3 -5 1 -10 -4 -10 -6 0 -11 8 -11 18 0 14 -2 15 -10 2 -6
-9 -5 -17 3 -23 8 -5 5 -7 -8 -5 -11 2 -23 7 -27 13 -4 5 -10 6 -14 2 -4 -3
-1 -13 5 -21 11 -13 9 -15 -8 -11 -14 2 -19 0 -15 -7 5 -7 2 -8 -7 -2 -19 12
-33 12 -41 0 -4 -6 -10 -7 -15 -3 -8 9 17 28 28 21 4 -2 10 0 14 6 4 6 10 8
15 5 4 -3 11 2 14 11 4 10 13 13 25 9 11 -3 21 0 24 8 3 9 16 13 32 12 18 -2
25 1 22 9 -3 7 1 13 9 13 8 0 14 -4 14 -9 0 -4 4 -8 10 -8 5 0 8 6 6 13 -1 6
-1 9 1 5 3 -5 9 -8 14 -8 6 0 8 4 5 9 -3 5 1 14 9 21 8 7 15 9 15 5 0 -5 9 0
20 10 11 10 20 15 20 10 0 -4 7 -1 16 6 20 16 44 21 44 8 0 -6 5 -7 10 -4 6 4
8 11 5 16 -3 5 2 6 11 2 13 -5 15 -3 9 8 -5 8 -4 11 0 6 16 -14 15 -39 -1 -33
-8 3 -12 2 -9 -4 3 -5 -4 -7 -15 -5 -13 3 -18 0 -15 -8 4 -7 0 -4 -8 6 -14 17
-16 16 -36 -9 -12 -15 -21 -21 -21 -14 0 7 -3 11 -6 7 -3 -3 -1 -14 5 -24 6
-10 11 -12 11 -5 0 6 3 11 8 10 19 -5 112 38 107 49 -2 7 1 13 7 13 6 0 5 6
-3 17 -10 11 -10 14 -1 9 7 -4 12 -2 12 4 0 6 5 8 10 5 6 -3 10 -1 10 6 0 8 5
5 13 -5 13 -17 14 -17 28 0 12 16 12 17 -3 11 -30 -11 -20 1 14 19 18 9 45 17
60 16 16 0 26 3 23 8 -10 16 10 18 35 4 l25 -15 -25 6 c-20 5 -22 4 -10 -5 13
-10 12 -11 -2 -6 -10 3 -18 2 -18 -3 0 -4 -15 -7 -33 -6 -27 3 -33 0 -32 -16
2 -24 15 -38 15 -16 0 11 5 14 17 10 12 -5 14 -3 8 7 -6 9 -4 12 6 8 8 -3 31
1 50 10 18 8 39 16 44 17 6 0 9 7 7 14 -1 7 2 10 7 7 5 -3 25 1 45 9 20 8 37
14 38 13 2 -1 13 4 25 10 15 8 20 18 16 29 -5 12 -3 14 8 8 8 -4 11 -5 7 -1
-3 4 0 28 7 54 8 25 12 49 9 53 -2 4 4 12 13 18 12 7 13 10 4 11 -11 0 -11 3
-1 15 6 8 9 19 5 25 -3 5 -1 10 5 10 6 0 8 5 5 10 -4 6 -2 17 4 24 6 7 12 21
14 32 1 10 7 25 11 33 7 11 6 12 -5 6 -11 -7 -12 -6 -2 7 7 8 10 18 6 21 -3 4
0 7 7 7 7 0 10 3 7 7 -4 3 -1 13 6 21 9 12 9 14 0 9 -8 -5 -8 1 2 19 8 15 12
31 9 36 -3 4 -1 8 5 8 5 0 8 9 6 20 -2 11 1 20 7 20 6 0 8 3 5 7 -4 3 -1 13 6
21 10 13 9 14 -2 8 -8 -5 -6 3 5 20 14 21 15 26 4 19 -9 -5 -7 1 5 15 11 13
14 20 6 15 -8 -4 -6 3 5 21 14 21 15 26 4 19 -9 -5 -8 0 4 13 11 12 16 25 13
29 -4 3 -1 13 6 21 10 13 9 14 -3 7 -13 -8 -13 -7 -1 8 7 9 10 17 6 17 -4 0
-2 6 4 13 6 8 8 17 4 20 -3 4 -1 7 6 7 9 0 12 9 9 25 -3 15 -1 22 5 18 6 -4 8
4 5 21 -3 14 -1 29 4 32 4 3 6 10 3 15 -4 5 -1 9 5 9 6 0 8 5 5 10 -3 6 -2 10
2 10 8 0 12 17 13 63 1 9 5 15 9 12 5 -2 7 7 5 20 -1 14 2 25 7 25 4 0 5 7 2
17 -4 9 -2 14 3 10 5 -3 10 2 11 11 1 9 4 38 6 65 6 48 3 51 -35 48 -9 -1 -19
3 -23 9 -3 6 -11 8 -16 5 -5 -4 -10 -1 -10 4 -1 6 -2 16 -3 22 -2 23 -58 19
-91 -7 -28 -21 -33 -22 -39 -8 -8 21 -8 24 5 24 5 0 7 -4 4 -10 -3 -5 -1 -10
4 -10 6 0 11 5 11 11 0 5 5 7 10 4 6 -3 10 -2 10 3 0 18 -38 20 -61 4 -15 -10
-20 -11 -14 -2 5 8 3 11 -5 8 -7 -2 -14 -12 -16 -21 -2 -13 3 -16 16 -12 10 3
21 2 24 -4 3 -5 -8 -8 -25 -7 -16 1 -32 -1 -35 -6 -3 -4 -10 -8 -17 -8 -6 0
-2 6 8 14 33 24 27 44 -14 42 -20 0 -42 -5 -50 -10 -10 -7 -12 -6 -6 4 5 8 3
11 -5 8 -7 -2 -14 -12 -16 -21 -2 -13 3 -16 16 -12 10 3 21 2 24 -3 3 -5 -7
-8 -22 -8 -15 1 -34 -3 -42 -9 -13 -9 -13 -8 0 9 26 33 21 43 -24 43 -29 0
-43 -4 -43 -13 0 -17 3 -17 26 -5 11 6 23 6 32 0 12 -8 12 -10 -1 -8 -27 3
-41 -1 -36 -9 3 -5 -1 -9 -9 -9 -8 0 -16 4 -16 9 -1 4 -2 13 -3 19 0 7 -17 14
-37 16 -27 2 -36 -1 -36 -12 0 -18 8 -19 27 -2 8 6 6 2 -4 -11 -21 -24 -26
-23 -30 5 -2 15 -12 18 -64 18 -56 0 -83 -13 -51 -24 6 -2 9 1 6 6 -3 5 3 9
14 9 19 0 18 -1 -3 -17 -20 -16 -23 -16 -34 -1 -7 9 -11 19 -9 23 7 10 -120 7
-132 -3 -9 -7 -13 -7 -13 2 0 17 -13 4 -16 -16 -2 -10 3 -13 16 -9 10 3 21 2
24 -3 3 -5 -7 -8 -22 -8 -15 1 -32 -2 -39 -7 -6 -4 -14 -3 -18 3 -3 6 -11 8
-16 5 -11 -8 -12 6 0 23 6 10 10 8 14 -9 5 -19 9 -21 19 -11 6 6 13 21 15 33
3 18 1 19 -11 10 -9 -8 -21 -8 -40 -1 -23 8 -38 -2 -18 -13 4 -2 0 -1 -8 1
-31 10 -106 9 -119 -2 -11 -8 -13 -8 -7 2 4 6 3 12 -3 12 -23 0 -20 -20 6 -34
17 -9 22 -15 12 -16 -17 0 -52 33 -44 42 3 2 -30 4 -72 4 -71 -1 -78 -3 -78
-21 0 -15 -7 -20 -30 -21 -17 0 -37 -4 -45 -9 -7 -5 -5 3 6 18 10 15 23 27 28
27 5 0 3 -6 -3 -14 -10 -11 -7 -14 12 -12 19 1 24 7 24 25 0 13 -2 19 -6 14
-3 -5 -28 -8 -56 -7 -27 1 -56 -3 -64 -10 -11 -8 -13 -8 -7 2 4 6 3 12 -3 12
-23 0 -20 -20 6 -34 17 -9 22 -15 12 -16 -17 0 -53 33 -44 41 2 3 -35 5 -84 6
-68 0 -88 -3 -88 -14 0 -8 6 -12 14 -9 7 3 13 1 13 -3 0 -12 -30 -22 -31 -11
-1 6 -2 15 -3 21 0 7 -17 14 -37 16 -27 2 -36 -1 -36 -12 0 -18 8 -19 27 -2 8
6 6 2 -4 -11 -21 -24 -26 -23 -30 4 -4 28 -54 27 -91 -2 -28 -21 -33 -22 -39
-8 -8 21 -8 24 5 24 5 0 7 -4 4 -10 -3 -5 -1 -10 4 -10 6 0 11 5 11 11 0 5 5
7 10 4 6 -3 10 -2 10 3 0 18 -38 20 -61 4 -15 -10 -20 -11 -14 -2 5 8 3 11 -5
8 -7 -2 -14 -12 -16 -21 -2 -13 3 -16 16 -12 10 3 21 2 24 -4 3 -5 -8 -8 -25
-7 -16 1 -32 -1 -35 -6 -3 -4 -10 -8 -17 -8 -6 0 -2 6 8 14 33 24 27 44 -14
42 -20 0 -42 -5 -50 -10 -10 -7 -12 -6 -6 4 5 8 3 11 -5 8 -7 -2 -14 -12 -16
-21 -2 -13 3 -16 16 -12 10 3 21 2 24 -3 3 -5 -7 -8 -22 -8 -15 1 -34 -3 -42
-9 -13 -9 -13 -8 0 9 26 33 21 43 -24 43 -29 0 -43 -4 -43 -13 0 -17 3 -17 26
-5 11 6 23 6 32 0 12 -8 12 -10 -1 -8 -27 3 -41 -1 -36 -9 3 -5 -1 -9 -9 -9
-8 0 -16 4 -16 9 -1 4 -2 13 -3 19 0 7 -17 14 -37 16 -27 2 -36 -1 -36 -12 0
-18 8 -19 27 -2 8 6 6 2 -4 -11 -21 -24 -26 -23 -30 4 -3 23 -73 32 -73 9 0
-18 8 -19 27 -2 8 6 6 2 -4 -11 -21 -24 -26 -23 -30 4 -3 23 -73 32 -73 9 0
-18 8 -19 27 -2 8 6 6 2 -4 -11 -21 -24 -26 -23 -30 4 -4 28 -54 27 -91 -2
-28 -21 -33 -22 -39 -8 -8 21 -8 24 5 24 5 0 7 -4 4 -10 -3 -5 -1 -10 4 -10 6
0 11 5 11 11 0 5 5 7 10 4 6 -3 10 -2 10 3 0 18 -38 20 -61 4 -15 -10 -20 -11
-14 -2 5 8 3 11 -5 8 -7 -2 -14 -12 -16 -21 -2 -13 3 -16 16 -12 10 3 21 2 24
-4 3 -5 -8 -8 -25 -7 -16 1 -32 -1 -35 -6 -3 -4 -10 -8 -17 -8 -6 0 -2 6 8 14
33 24 27 44 -14 42 -20 0 -42 -5 -50 -10 -10 -7 -12 -6 -6 4 5 8 3 11 -5 8 -7
-2 -14 -12 -16 -21 -2 -13 3 -16 16 -12 10 3 21 2 24 -3 3 -5 -7 -8 -22 -8
-15 1 -34 -3 -42 -9 -13 -9 -13 -8 0 9 26 33 21 43 -24 43 -29 0 -43 -4 -43
-13 0 -17 3 -17 26 -5 11 6 23 6 32 0 12 -8 12 -10 -1 -8 -27 3 -41 -1 -36 -9
3 -5 -1 -9 -9 -9 -8 0 -16 4 -16 9 -1 4 -2 13 -3 19 0 7 -17 14 -37 16 -27 2
-36 -1 -36 -12 0 -18 8 -19 27 -2 8 6 6 2 -4 -11 -21 -24 -26 -23 -30 5 -2 15
-12 18 -64 18 -56 0 -83 -13 -51 -24 6 -2 9 1 6 6 -3 5 3 9 14 9 19 0 18 -1
-3 -17 -20 -16 -23 -16 -34 -1 -7 9 -11 19 -9 23 7 10 -120 7 -132 -3 -9 -7
-13 -7 -13 2 0 17 -13 4 -16 -16 -2 -10 3 -13 16 -9 10 3 21 2 24 -3 3 -5 -7
-8 -22 -8 -15 1 -32 -2 -39 -7 -6 -4 -14 -3 -18 3 -3 6 -11 8 -16 5 -11 -8
-12 6 0 23 6 10 10 8 14 -9 5 -19 9 -21 19 -11 6 6 13 22 15 34 3 17 1 20 -8
11 -7 -7 -26 -9 -46 -6 -26 4 -33 2 -31 -8 2 -8 7 -17 12 -20 4 -4 3 -10 -3
-13 -6 -4 -12 -2 -12 3 -1 6 -2 16 -3 22 0 7 -17 14 -37 16 -27 2 -36 -1 -36
-12 0 -18 8 -19 27 -2 8 6 6 2 -4 -11 -21 -24 -26 -23 -30 4 -4 28 -54 27 -91
-2 -28 -21 -33 -22 -39 -8 -8 21 -8 24 5 24 5 0 7 -4 4 -10 -3 -5 -1 -10 4
-10 6 0 11 5 11 11 0 5 5 7 10 4 6 -3 10 -2 10 3 0 18 -38 20 -61 4z m-499
-23 c0 -5 -4 -9 -8 -9 -5 0 -9 7 -9 15 0 8 4 12 9 9 4 -3 8 -9 8 -15z m83 11
c-7 -7 -73 -8 -69 -1 2 3 20 6 39 6 20 0 33 -2 30 -5z m35 -4 c-10 -7 -14 -17
-10 -22 4 -5 3 -6 -2 -2 -5 4 -16 3 -25 -3 -9 -6 -3 0 12 15 15 14 31 26 35
26 4 0 -1 -7 -10 -14z m302 3 c4 7 10 9 13 4 3 -5 -2 -14 -12 -20 -14 -9 -20
-7 -31 11 -12 19 -12 20 4 7 14 -12 19 -12 26 -2z m178 -3 c-10 -7 -14 -17
-10 -21 4 -5 2 -5 -5 -1 -6 3 -14 2 -18 -4 -3 -5 -11 -10 -18 -10 -6 0 4 11
23 25 19 14 36 25 39 25 3 0 -2 -7 -11 -14z m293 -6 c6 0 8 4 5 8 -2 4 4 8 15
8 19 0 18 -1 -3 -17 -22 -17 -39 -10 -37 16 0 6 3 4 6 -2 2 -7 9 -13 14 -13z
m55 4 c-4 -12 -1 -14 13 -9 11 3 22 2 25 -4 3 -5 -8 -8 -25 -7 -16 1 -32 -1
-35 -6 -3 -4 -9 -8 -14 -8 -5 0 1 11 13 24 27 29 31 31 23 10z m132 2 c-10 -7
-14 -17 -10 -21 4 -5 2 -5 -5 -1 -6 3 -14 2 -18 -4 -3 -5 -11 -10 -18 -10 -6
0 4 11 23 25 19 14 36 25 39 25 3 0 -2 -7 -11 -14z m302 3 c4 7 10 9 13 4 3
-5 -2 -14 -12 -20 -14 -9 -20 -7 -31 11 -12 19 -12 20 4 7 14 -12 19 -12 26
-2z m178 -3 c-10 -7 -14 -17 -10 -21 4 -5 2 -5 -5 -1 -6 3 -14 2 -18 -4 -3 -5
-11 -10 -18 -10 -6 0 4 11 23 25 19 14 36 25 39 25 3 0 -2 -7 -11 -14z m462 3
c4 7 10 9 13 4 3 -5 -2 -14 -12 -20 -14 -9 -20 -7 -31 11 -12 19 -12 20 4 7
14 -12 19 -12 26 -2z m178 -3 c-10 -7 -14 -17 -10 -21 4 -5 2 -5 -5 -1 -6 3
-14 2 -18 -4 -3 -5 -11 -10 -18 -10 -6 0 4 11 23 25 19 14 36 25 39 25 3 0 -2
-7 -11 -14z m214 2 c-24 -24 -11 -31 16 -8 l27 24 -22 -23 c-12 -14 -33 -25
-47 -26 l-26 -1 28 23 c29 24 44 31 24 11z m54 -4 c-4 -11 -1 -14 13 -9 11 3
24 -1 32 -12 12 -15 12 -16 -1 -8 -19 11 -51 12 -69 0 -9 -5 -6 3 5 18 22 30
29 34 20 11z m104 6 c0 -5 -5 -10 -11 -10 -5 0 -7 5 -4 10 3 6 8 10 11 10 2 0
4 -4 4 -10z m25 0 c3 -5 1 -10 -4 -10 -6 0 -11 5 -11 10 0 6 2 10 4 10 3 0 8
-4 11 -10z m137 -2 c-24 -24 -11 -31 16 -8 l27 24 -22 -23 c-12 -14 -33 -25
-47 -26 l-26 -1 28 23 c29 24 44 31 24 11z m54 -4 c-4 -11 -1 -14 13 -9 11 3
24 -1 32 -12 12 -15 12 -16 -1 -8 -19 11 -51 12 -69 0 -9 -5 -6 3 5 18 22 30
29 34 20 11z m104 6 c0 -5 -5 -10 -11 -10 -5 0 -7 5 -4 10 3 6 8 10 11 10 2 0
4 -4 4 -10z m25 0 c3 -5 1 -10 -4 -10 -6 0 -11 5 -11 10 0 6 2 10 4 10 3 0 8
-4 11 -10z m34 -6 c-12 -15 -11 -16 8 -10 12 4 24 3 27 -2 3 -5 -7 -8 -22 -8
-15 1 -34 -3 -42 -9 -8 -6 -6 1 5 17 11 15 24 28 29 28 5 0 2 -7 -5 -16z m182
-4 c6 0 8 4 5 8 -2 4 4 8 15 8 19 0 18 -1 -3 -17 -22 -17 -39 -10 -37 16 0 6
3 4 6 -2 2 -7 9 -13 14 -13z m55 4 c-4 -12 -1 -14 13 -9 11 3 22 2 25 -4 3 -5
-8 -8 -25 -7 -16 1 -32 -1 -35 -6 -3 -4 -9 -8 -14 -8 -5 0 1 11 13 24 27 29
31 31 23 10z m132 2 c-10 -7 -14 -17 -10 -21 4 -5 2 -5 -5 -1 -6 3 -14 2 -18
-4 -3 -5 -11 -10 -18 -10 -6 0 4 11 23 25 19 14 36 25 39 25 3 0 -2 -7 -11
-14z m302 3 c4 7 10 9 13 4 3 -5 -2 -14 -12 -20 -14 -9 -20 -7 -31 11 -12 19
-12 20 4 7 14 -12 19 -12 26 -2z m178 -3 c-10 -7 -14 -17 -10 -21 4 -5 2 -5
-5 -1 -6 3 -14 2 -18 -4 -3 -5 -11 -10 -18 -10 -6 0 4 11 23 25 19 14 36 25
39 25 3 0 -2 -7 -11 -14z m-3654 -11 c-4 -8 -11 -15 -16 -15 -6 0 -5 6 2 15 7
8 14 15 16 15 2 0 1 -7 -2 -15z m80 0 c-4 -8 -11 -15 -16 -15 -6 0 -5 6 2 15
7 8 14 15 16 15 2 0 1 -7 -2 -15z m400 0 c-4 -8 -11 -15 -16 -15 -6 0 -5 6 2
15 7 8 14 15 16 15 2 0 1 -7 -2 -15z m80 0 c-4 -8 -11 -15 -16 -15 -6 0 -5 6
2 15 7 8 14 15 16 15 2 0 1 -7 -2 -15z m400 0 c-4 -8 -11 -15 -16 -15 -6 0 -5
6 2 15 7 8 14 15 16 15 2 0 1 -7 -2 -15z m80 0 c-4 -8 -11 -15 -16 -15 -6 0
-5 6 2 15 7 8 14 15 16 15 2 0 1 -7 -2 -15z m400 0 c-4 -8 -11 -15 -16 -15 -6
0 -5 6 2 15 7 8 14 15 16 15 2 0 1 -7 -2 -15z m80 0 c-4 -8 -11 -15 -16 -15
-6 0 -5 6 2 15 7 8 14 15 16 15 2 0 1 -7 -2 -15z m80 0 c-4 -8 -11 -15 -16
-15 -6 0 -5 6 2 15 7 8 14 15 16 15 2 0 1 -7 -2 -15z m80 0 c-4 -8 -11 -15
-16 -15 -6 0 -5 6 2 15 7 8 14 15 16 15 2 0 1 -7 -2 -15z m400 0 c-4 -8 -11
-15 -16 -15 -6 0 -5 6 2 15 7 8 14 15 16 15 2 0 1 -7 -2 -15z m80 0 c-4 -8
-11 -15 -16 -15 -6 0 -5 6 2 15 7 8 14 15 16 15 2 0 1 -7 -2 -15z m1040 0 c-4
-8 -11 -15 -16 -15 -6 0 -5 6 2 15 7 8 14 15 16 15 2 0 1 -7 -2 -15z m80 0
c-4 -8 -11 -15 -16 -15 -6 0 -5 6 2 15 7 8 14 15 16 15 2 0 1 -7 -2 -15z m400
0 c-4 -8 -11 -15 -16 -15 -6 0 -5 6 2 15 7 8 14 15 16 15 2 0 1 -7 -2 -15z
m-3787 -11 c-3 -3 -12 -4 -19 -1 -8 3 -5 6 6 6 11 1 17 -2 13 -5z m-33 -13 c4
-5 -3 -7 -14 -4 -23 6 -26 13 -6 13 8 0 17 -4 20 -9z m-5 -39 c-1 -16 -2 -16
-6 0 -3 11 -11 15 -21 12 -14 -5 -14 -4 -2 4 18 13 30 6 29 -16z m-54 -161 c3
-6 -3 -9 -14 -8 -11 0 -17 5 -15 9 7 11 22 10 29 -1z m-12 -38 c-5 -12 -3 -14
8 -9 8 4 4 -1 -9 -13 -13 -11 -18 -22 -12 -26 5 -3 10 -12 9 -18 0 -9 -2 -9
-6 1 -8 21 -20 13 -20 -13 0 -14 4 -22 10 -18 6 3 7 1 3 -6 -13 -21 -26 -1
-20 32 3 18 5 41 5 52 1 11 3 14 6 8 8 -21 22 -15 16 7 -3 11 0 20 6 20 6 0 8
-7 4 -17z m-32 -160 c-12 -20 -14 -14 -5 12 4 9 9 14 11 11 3 -2 0 -13 -6 -23z
m-13 -38 c-3 -3 -9 2 -12 12 -6 14 -5 15 5 6 7 -7 10 -15 7 -18z m-21 -9 c-3
-8 -3 -17 1 -20 10 -11 11 -36 0 -36 -6 0 -8 7 -5 15 4 8 2 17 -3 20 -9 5 -3
35 7 35 3 0 3 -6 0 -14z m-17 -56 c0 -5 -5 -10 -11 -10 -5 0 -7 5 -4 10 3 6 8
10 11 10 2 0 4 -4 4 -10z m-17 -78 c-6 -15 -5 -16 12 -2 17 14 17 14 4 -7 -8
-14 -16 -18 -20 -11 -4 5 -9 6 -11 2 -3 -5 -3 -2 0 6 2 8 5 20 5 27 0 7 4 10
8 7 5 -2 5 -12 2 -22z m-3 -52 c-13 -9 -13 -11 0 -20 8 -5 11 -10 5 -10 -5 0
-17 5 -25 10 -13 9 -13 11 0 20 8 5 20 10 25 10 6 0 3 -5 -5 -10z m-56 -206
c6 2 8 1 3 -1 -4 -3 -4 -10 0 -16 3 -7 3 -9 -2 -5 -4 4 -17 3 -29 -3 -19 -9
-19 -9 -4 4 12 9 14 17 8 25 -7 8 -7 9 1 3 6 -5 17 -8 23 -7z m-32 -61 c-11
-22 -4 -46 10 -37 7 4 8 2 4 -4 -11 -17 -35 -3 -31 19 4 21 14 39 21 39 3 0 1
-8 -4 -17z m-38 -194 c-3 -5 -11 -9 -17 -8 -8 0 -8 2 1 6 10 4 10 8 0 21 -12
15 -11 16 4 3 10 -7 15 -17 12 -22z m-4 -34 c-9 -11 -10 -15 -10 -42 0 -15 -2
-16 -10 -3 -6 9 -5 17 1 21 14 9 13 20 -3 30 -9 6 -6 8 9 6 14 -1 19 -5 13
-12z m1715 -5 c-3 -5 -12 -10 -18 -10 -7 0 -6 4 3 10 19 12 23 12 15 0z m-177
-15 c4 6 13 11 20 13 10 2 10 -2 3 -17 -6 -10 -8 -20 -6 -23 3 -3 -2 -5 -10
-5 -8 0 -12 5 -8 10 3 5 -3 6 -16 2 -23 -7 -24 -5 -15 20 5 13 9 14 15 3 6 -8
12 -9 17 -3z m78 0 c8 -8 22 -12 32 -9 15 5 15 4 -1 -9 -22 -18 -52 -16 -52 4
0 8 -4 17 -10 21 -6 5 -5 8 3 8 7 0 20 -7 28 -15z m2304 0 c-6 -8 -8 -20 -4
-26 4 -8 3 -9 -4 -5 -7 4 -12 2 -12 -5 0 -7 -3 -9 -7 -6 -3 4 -13 1 -22 -6
-14 -11 -14 -10 -2 6 8 10 9 17 3 17 -6 0 -16 -8 -21 -18 -11 -22 -51 -27 -51
-6 0 17 12 18 29 2 10 -11 12 -9 9 7 -2 12 2 19 10 18 6 -2 12 2 12 8 0 5 4 8
9 4 5 -3 12 -1 16 5 4 6 10 8 15 5 5 -3 11 -1 15 5 3 5 9 10 12 10 3 0 0 -7
-7 -15z m-1820 -15 c0 -5 -5 -10 -11 -10 -5 0 -7 5 -4 10 3 6 8 10 11 10 2 0
4 -4 4 -10z m94 -1 c3 -3 -4 -5 -14 -6 -11 -1 -20 2 -20 7 0 8 25 8 34 -1z
m531 -39 c3 -5 1 -10 -4 -10 -6 0 -11 5 -11 10 0 6 2 10 4 10 3 0 8 -4 11 -10z
m1060 -19 c1 -12 -4 -18 -14 -16 -9 1 -15 8 -13 15 2 8 -3 10 -13 6 -10 -3
-13 -2 -10 5 4 5 16 7 27 3 15 -5 19 -3 13 7 -5 8 -4 11 0 6 5 -4 9 -16 10
-26z m-1091 -110 c-2 -3 -12 3 -22 13 -16 17 -16 18 5 5 12 -7 20 -15 17 -18z
m-2754 -16 c-7 -9 -15 -13 -19 -10 -3 3 1 10 9 15 21 14 24 12 10 -5z m-38
-37 c-8 -8 -9 -4 -5 13 4 13 8 18 11 10 2 -7 -1 -18 -6 -23z m29 -1 c-6 -8 -7
-18 -3 -22 4 -5 2 -5 -5 -1 -14 8 -6 36 9 36 7 0 6 -5 -1 -13z m2739 3 c0 -5
-9 -14 -20 -20 -14 -7 -20 -7 -20 0 0 5 7 10 15 10 8 0 15 5 15 10 0 6 2 10 5
10 3 0 5 -4 5 -10z m790 6 c0 -2 -7 -7 -16 -10 -8 -3 -12 -2 -9 4 6 10 25 14
25 6z m-3549 -69 c-6 -8 -9 -22 -5 -31 3 -9 1 -16 -4 -16 -20 0 -24 21 -8 39
17 19 21 32 9 30 -18 -3 -24 2 -17 12 4 7 11 6 22 -5 12 -12 13 -18 3 -29z
m2759 22 c0 -5 -4 -8 -9 -4 -6 3 -14 -3 -20 -12 -5 -10 -13 -14 -17 -10 -4 4
1 14 12 22 23 17 34 19 34 4z m-18 -47 c-7 -5 -10 -16 -6 -28 6 -18 6 -18 -9
1 -15 20 -7 35 18 35 6 0 4 -4 -3 -8z m-2763 -36 c9 -11 9 -16 0 -22 -8 -4 -9
-3 -5 4 4 7 2 12 -3 12 -6 0 -11 5 -11 10 0 14 5 13 19 -4z m2735 -2 c5 -14 4
-15 -9 -4 -17 14 -19 20 -6 20 5 0 12 -7 15 -16z m516 -8 c0 -3 -4 -8 -10 -11
-5 -3 -10 -1 -10 4 0 6 5 11 10 11 6 0 10 -2 10 -4z m-3250 -41 c0 -8 -4 -15
-10 -15 -5 0 -7 7 -4 15 4 8 8 15 10 15 2 0 4 -7 4 -15z m-24 -87 c4 -6 3 -8
-4 -4 -6 3 -14 1 -18 -5 -3 -6 0 -15 7 -20 8 -5 9 -9 4 -9 -21 0 -34 22 -22
36 15 17 24 17 33 2z m-21 -58 c3 -5 1 -10 -4 -10 -6 0 -11 5 -11 10 0 6 2 10
4 10 3 0 8 -4 11 -10z m-40 -139 c3 -18 1 -20 -16 -11 -23 13 -26 22 -4 14 11
-5 14 -2 9 12 -4 11 -4 16 0 13 4 -4 8 -16 11 -28z m-84 -314 c-6 -8 -7 -17
-3 -22 4 -4 -3 -2 -15 4 -13 6 -23 14 -23 17 0 3 4 3 8 0 4 -2 14 -1 22 5 21
12 24 11 11 -4z m-15 -50 c1 -9 -2 -14 -7 -11 -6 3 -8 -6 -5 -21 3 -15 3 -25
0 -22 -3 3 -5 7 -3 9 1 2 -3 13 -10 26 -13 24 -6 45 12 39 5 -1 11 -11 13 -20z
m-22 -72 c3 -8 1 -15 -3 -15 -5 0 -11 7 -15 15 -3 8 -1 15 3 15 5 0 11 -7 15
-15z m-60 -210 c7 -19 -3 -45 -16 -45 -6 0 -5 7 2 15 7 9 10 19 6 22 -4 4 -11
1 -16 -7 -11 -17 -13 -9 -4 14 8 20 20 20 28 1z m-11 -73 c-3 -7 -9 -10 -12
-5 -3 4 -10 11 -15 15 -4 4 1 6 12 5 12 -1 18 -6 15 -15z m-24 -73 c-22 -13
-31 -11 -17 5 7 8 17 12 22 9 4 -3 2 -9 -5 -14z m1 -51 c0 -5 -4 -7 -9 -4 -5
4 -11 2 -13 -3 -1 -5 -8 -3 -15 4 -9 10 -6 13 13 13 13 0 24 -5 24 -10z m-36
-76 c-6 -4 -16 -16 -23 -27 l-11 -20 2 20 c3 21 16 35 33 35 6 0 6 -3 -1 -8z
m-34 -62 c0 -5 -5 -10 -11 -10 -5 0 -7 5 -4 10 3 6 8 10 11 10 2 0 4 -4 4 -10z
m20 -12 c0 -7 -12 -22 -27 -32 -26 -20 -24 -8 6 25 20 22 21 22 21 7z m-30
-68 c-14 -10 -27 -16 -30 -13 -3 3 1 8 8 10 7 3 18 11 25 18 7 7 14 11 17 8 3
-2 -6 -13 -20 -23z m-4 -54 c2 -13 1 -13 -3 -1 -2 8 -9 13 -14 10 -5 -4 -9 -1
-9 5 0 18 25 5 26 -14z m-19 -88 c-3 -8 -6 -5 -6 6 -1 11 2 17 5 13 3 -3 4
-12 1 -19z m-27 -82 c0 -3 -4 -8 -10 -11 -5 -3 -10 -1 -10 4 0 6 5 11 10 11 6
0 10 -2 10 -4z m-30 -57 c0 -5 4 -7 10 -4 6 3 7 -1 4 -10 -4 -9 -7 -15 -8 -13
-1 2 -8 11 -15 21 -9 11 -10 17 -2 17 6 0 11 -5 11 -11z m-4 -66 c2 -20 0 -21
-18 -12 -15 8 -17 14 -9 22 14 14 15 30 1 22 -6 -4 -7 1 -3 11 5 15 7 15 16
-2 6 -10 11 -28 13 -41z m-33 -41 c-10 -10 -20 -17 -22 -16 -6 5 20 34 30 34
5 0 1 -8 -8 -18z m14 -20 c-10 -10 -14 -22 -10 -27 5 -4 2 -5 -4 -1 -10 5 -10
11 0 26 6 11 16 20 21 20 5 0 2 -8 -7 -18z m2700 -53 c1 -22 1 -23 -4 -1 -2
12 -9 20 -14 17 -5 -4 -9 -1 -9 5 0 23 25 3 27 -21z m-2718 0 c-15 -9 -32 -2
-24 11 3 5 13 6 21 3 12 -4 13 -8 3 -14z m-18 -23 c5 3 9 0 9 -6 0 -15 -23 -7
-26 8 -1 7 0 8 3 2 2 -5 9 -8 14 -4z m2709 -4 c0 -5 -7 -17 -16 -28 -15 -18
-15 -18 -5 2 6 12 7 24 4 28 -3 3 -1 6 5 6 7 0 12 -4 12 -8z m15 -19 c-4 -10
-9 -27 -10 -38 -2 -11 -4 -21 -5 -22 -3 -4 -7 -20 -9 -34 0 -5 -5 -8 -10 -5
-5 4 -11 0 -14 -6 -3 -7 -4 -3 -4 8 1 15 6 20 16 16 9 -3 12 -1 7 6 -3 6 -2
13 4 17 6 4 8 10 5 15 -3 5 0 20 6 34 13 29 25 36 14 9z m-2712 -16 c-3 -4 -8
-6 -11 -3 -3 3 -14 -2 -25 -11 -19 -17 -19 -17 -6 4 7 12 21 21 30 20 10 -1
15 -5 12 -10z m-17 -42 c1 -14 -2 -25 -8 -25 -5 0 -6 5 -3 10 3 6 2 10 -4 10
-18 0 -22 -19 -6 -28 14 -7 13 -11 -5 -35 -12 -15 -26 -27 -32 -27 -6 0 0 9
13 19 20 17 22 23 12 39 -9 16 -8 23 10 41 12 11 22 21 22 21 0 0 1 -11 1 -25z
m2692 -79 c-11 -8 -13 -17 -7 -28 5 -9 5 -19 1 -22 -5 -3 -9 0 -9 7 0 7 -2 17
-3 22 -5 20 0 36 10 30 6 -3 10 -1 10 6 0 7 3 9 7 5 5 -4 1 -13 -9 -20z
m-2723 -26 c-10 -11 -21 -18 -23 -15 -3 3 3 12 14 20 27 20 30 18 9 -5z m-11
-46 c3 -8 2 -12 -4 -9 -6 3 -10 10 -10 16 0 14 7 11 14 -7z m-27 -1 c-4 -3 1
-12 11 -20 16 -12 16 -13 -3 -7 -17 5 -18 4 -5 -8 13 -11 12 -16 -7 -34 -20
-20 -21 -20 -20 -4 1 10 4 17 8 14 4 -2 10 0 14 6 3 5 1 10 -4 10 -6 0 -9 10
-7 23 6 29 5 27 13 27 3 0 3 -3 0 -7z m2723 -13 c0 -5 -5 -10 -11 -10 -5 0 -7
5 -4 10 3 6 8 10 11 10 2 0 4 -4 4 -10z m4 -26 c15 -6 15 -8 -1 -20 -22 -16
-33 -18 -33 -4 0 6 3 9 8 9 19 -3 25 2 12 11 -17 11 -9 13 14 4z m6 -44 c0 -5
-8 -10 -17 -10 -15 0 -16 2 -3 10 19 12 20 12 20 0z m-2761 -30 c4 0 11 3 17
8 5 4 4 1 -2 -7 -15 -16 -34 -6 -33 17 1 15 2 15 6 0 2 -10 8 -18 12 -18z
m2715 -144 c-3 -9 -10 -14 -14 -11 -5 3 -13 -3 -19 -12 -6 -10 -11 -13 -11 -6
0 6 4 14 10 18 5 3 8 11 6 18 -1 7 -1 9 1 5 10 -18 24 -6 18 15 -5 18 -4 19 5
5 5 -9 7 -23 4 -32z m-14 -45 c-5 -11 -15 -23 -21 -26 -7 -5 -6 -12 3 -23 10
-12 10 -14 1 -8 -13 7 -17 -4 -14 -33 2 -7 -2 -10 -8 -7 -11 7 -11 46 0 46 4
0 6 11 5 24 -2 17 1 23 10 19 8 -3 14 2 14 11 0 9 5 16 10 16 7 0 7 -6 0 -19z
m-2526 -70 c12 -14 14 -19 4 -17 -22 3 -39 17 -33 27 8 12 9 12 29 -10z m16
-42 c0 -5 4 -8 9 -4 5 3 12 1 15 -4 12 -19 -12 -20 -29 -1 -10 12 -13 20 -7
20 7 0 12 -5 12 -11z m2485 -1 c5 4 5 1 1 -6 -6 -10 -11 -10 -22 -1 -8 6 -14
14 -14 16 0 3 6 0 13 -6 8 -6 18 -7 22 -3z m-5 -34 c0 -2 -7 -4 -15 -4 -8 0
-15 4 -15 10 0 5 7 7 15 4 8 -4 15 -8 15 -10z m-20 -18 c0 -2 -7 -7 -16 -10
-8 -3 -12 -2 -9 4 6 10 25 14 25 6z m11 -19 c-6 -8 -8 -17 -4 -21 4 -4 -1 -4
-11 0 -15 6 -17 4 -10 -7 14 -23 13 -38 -3 -32 -12 5 -12 7 -1 14 12 8 5 13
-17 10 -5 -1 4 10 20 24 33 28 43 32 26 12z m-26 -95 c-6 -4 -11 -21 -10 -39
0 -17 -4 -29 -8 -26 -5 3 -6 16 -3 29 4 16 2 22 -6 20 -7 -1 -10 -1 -5 1 4 3
5 8 3 12 -3 4 5 8 17 8 12 1 17 -1 12 -5z m-60 -232 c-10 -11 -23 -20 -29 -20
-6 0 0 9 14 20 32 25 38 25 15 0z m-2041 -12 c-3 -4 0 -8 6 -8 7 0 10 -7 7
-15 -4 -8 -2 -17 3 -20 4 -3 11 1 13 7 3 8 6 6 6 -5 1 -11 6 -15 13 -11 7 4 8
3 4 -4 -5 -8 -13 -9 -25 -3 -21 12 -47 41 -36 41 4 0 2 6 -4 13 -8 10 -7 14 4
14 8 0 12 -4 9 -9z m2011 -96 c-3 -3 -11 0 -18 7 -9 10 -8 11 6 5 10 -3 15 -9
12 -12z m-17 -45 c8 -10 6 -13 -7 -13 -11 0 -17 6 -14 13 3 7 6 13 8 13 1 0 7
-6 13 -13z m-1855 -43 c-4 -12 -8 -13 -14 -3 -9 15 -2 32 11 24 5 -3 6 -13 3
-21z m1862 6 c4 -6 1 -9 -7 -8 -8 2 -13 -6 -13 -19 0 -11 -4 -25 -8 -29 -4 -5
-5 0 -1 10 5 14 4 17 -4 12 -9 -6 -9 -1 0 18 12 28 23 33 33 16z m-1820 -40
c-3 -5 -12 -10 -18 -10 -7 0 -6 4 3 10 19 12 23 12 15 0z m18 -30 c4 -17 2
-18 -14 -9 -10 5 -19 12 -19 15 0 3 5 2 10 -1 6 -3 10 -1 10 4 0 18 7 12 13
-9z m1781 -24 c-7 -18 -34 -22 -34 -5 0 5 5 7 10 4 6 -3 13 1 16 10 4 9 8 14
10 12 3 -2 2 -12 -2 -21z m-1738 -28 c1 -5 2 -14 3 -20 1 -9 4 -8 11 2 6 9 10
10 10 3 0 -6 -4 -14 -8 -17 -12 -7 -50 46 -44 63 4 11 7 9 16 -5 6 -10 11 -22
12 -26z m1720 -9 c3 -6 -3 -21 -15 -33 -18 -17 -21 -17 -15 -3 3 9 10 17 15
17 5 0 9 5 9 11 0 6 -7 8 -16 5 -8 -3 -12 -2 -9 4 8 13 22 13 31 -1z m-15 -83
c-6 -7 -9 -16 -6 -20 3 -3 -1 -1 -8 5 -9 9 -9 12 1 16 6 3 9 10 6 15 -4 7 -2
8 5 4 8 -6 9 -12 2 -20z m-15 -53 c1 -7 -2 -13 -8 -13 -6 0 -8 7 -5 15 4 8 2
17 -3 20 -6 4 -10 12 -10 18 1 14 23 -22 26 -40z m-1571 -15 c3 -11 1 -18 -2
-14 -4 4 -8 12 -9 19 -1 7 -5 21 -9 32 -6 18 -5 18 5 2 6 -9 13 -27 15 -39z
m45 -48 c-13 -8 -13 -10 1 -10 9 0 22 -7 29 -15 10 -12 7 -12 -19 1 -29 15
-34 34 -8 34 7 0 6 -4 -3 -10z m57 -64 c4 -4 8 -13 8 -19 1 -7 6 -11 13 -9 7
1 11 -1 11 -5 -3 -20 2 -34 11 -28 6 3 10 4 10 1 0 -20 -22 -8 -53 29 -21 24
-30 42 -22 41 8 -1 18 -6 22 -10z m338 -426 c-3 -5 1 -10 9 -10 18 0 21 -15 7
-25 -6 -3 -15 3 -20 14 -14 25 -14 31 0 31 5 0 7 -4 4 -10z m121 -145 c9 -8
11 -15 6 -15 -5 0 -15 7 -22 15 -7 8 -9 15 -6 15 4 0 14 -7 22 -15z m26 -32
c-6 -2 -9 -10 -6 -15 4 -7 2 -8 -5 -4 -13 9 -5 26 12 25 9 0 8 -2 -1 -6z m106
-130 c-2 -10 3 -17 10 -15 6 1 12 -2 12 -8 0 -5 -4 -10 -8 -10 -15 0 -30 22
-25 36 7 20 14 17 11 -3z m146 -179 c3 -8 6 -16 6 -19 0 -8 -10 -6 -12 3 -4
15 -23 30 -32 24 -5 -3 -6 0 -2 6 8 14 33 5 40 -14z m40 -53 c12 -14 14 -19 4
-17 -22 3 -39 17 -33 27 8 12 9 12 29 -10z m98 -139 c-2 -9 1 -11 9 -6 8 5 10
3 4 -6 -5 -9 -14 -4 -30 16 -13 16 -21 32 -18 36 2 5 -1 8 -7 8 -6 0 -8 5 -5
10 8 14 51 -40 47 -58z m97 -100 c14 -10 14 -11 -3 -5 -14 5 -17 3 -11 -7 6
-9 4 -11 -4 -6 -7 5 -10 10 -7 13 3 3 -5 14 -17 25 -12 11 -16 17 -9 13 6 -3
12 0 12 7 0 7 6 4 12 -7 6 -11 19 -26 27 -33z m21 -32 c0 -5 -2 -10 -4 -10 -3
0 -8 5 -11 10 -3 6 -1 10 4 10 6 0 11 -4 11 -10z m31 -27 c13 -17 13 -17 -5
-3 -18 14 -19 13 -12 -5 5 -15 4 -17 -5 -8 -6 6 -8 16 -5 22 9 14 11 14 27 -6z
m103 -138 c-4 -8 -11 -12 -16 -9 -6 4 -5 10 3 15 19 12 19 11 13 -6z m828 -9
c-2 -9 2 -16 8 -16 9 0 14 13 12 31 -1 3 5 6 13 6 11 0 11 -4 -1 -22 -15 -23
-64 -32 -64 -11 0 6 -5 4 -10 -4 -5 -8 -10 -11 -10 -6 0 15 33 47 44 43 6 -2
10 -11 8 -21z m88 14 c13 7 21 7 25 0 3 -5 11 -10 16 -10 6 0 8 4 5 8 -6 10
51 9 60 -1 12 -12 26 -8 18 5 -5 7 -3 8 5 3 9 -5 8 -11 -6 -24 -19 -18 -57
-25 -47 -9 3 5 10 5 16 2 6 -4 8 -2 4 4 -8 14 -48 11 -42 -3 2 -6 -7 -11 -20
-11 -13 0 -24 4 -24 8 0 4 5 8 11 8 5 0 7 5 3 11 -4 8 -12 3 -20 -12 -7 -13
-13 -18 -14 -10 0 11 -3 11 -15 1 -21 -18 -29 -6 -13 19 7 12 14 17 16 11 2
-6 10 -7 22 0z"/>
<path d="M5075 7040 c-3 -5 -1 -10 4 -10 6 0 11 5 11 10 0 6 -2 10 -4 10 -3 0
-8 -4 -11 -10z"/>
<path d="M870 5999 c0 -5 5 -7 10 -4 6 3 10 8 10 11 0 2 -4 4 -10 4 -5 0 -10
-5 -10 -11z"/>
<path d="M595 4960 c-3 -5 -1 -10 4 -10 6 0 11 5 11 10 0 6 -2 10 -4 10 -3 0
-8 -4 -11 -10z"/>
<path d="M2300 2116 c0 -2 8 -10 18 -17 15 -13 16 -12 3 4 -13 16 -21 21 -21
13z"/>
<path d="M3385 1781 c-3 -5 0 -13 6 -17 7 -4 9 -3 5 4 -3 5 0 13 6 15 9 4 10
6 1 6 -6 1 -14 -3 -18 -8z"/>
<path d="M6070 8262 c0 -5 -24 -8 -52 -6 -29 1 -59 -3 -67 -9 -12 -9 -13 -9
-7 1 4 6 3 12 -3 12 -23 0 -20 -20 6 -34 17 -9 22 -15 12 -16 -17 0 -52 33
-44 42 3 2 -46 4 -109 4 -63 -1 -118 -4 -122 -8 -4 -4 -1 -14 5 -22 9 -11 9
-16 0 -22 -8 -4 -9 -3 -5 4 4 7 2 12 -5 12 -6 0 -9 8 -7 18 5 16 -2 18 -56 19
-42 0 -54 -2 -39 -8 12 -4 27 -18 34 -31 6 -13 8 -20 4 -16 -4 4 -17 -5 -29
-19 -20 -23 -22 -23 -22 -5 0 12 5 18 13 15 14 -5 18 12 6 20 -5 2 -2 2 5 0 8
-1 12 2 10 9 -2 6 -11 12 -20 14 -12 1 -18 -9 -23 -39 -4 -23 -12 -51 -18 -62
-5 -11 -6 -17 -2 -13 10 9 47 -31 39 -43 -3 -5 -7 -9 -10 -9 -3 0 -3 4 0 9 8
13 -21 34 -34 26 -7 -4 -10 -16 -7 -26 3 -10 1 -22 -4 -25 -11 -7 -12 -24 -1
-24 5 0 13 10 19 22 6 15 12 18 17 10 4 -7 2 -12 -4 -12 -6 0 -8 -4 -5 -10 3
-5 -6 -12 -20 -16 -21 -5 -34 -31 -23 -46 1 -2 -4 -12 -10 -24 -8 -16 -8 -24
1 -34 10 -10 9 -12 -4 -7 -9 3 -16 0 -17 -6 -2 -27 -10 -63 -16 -79 -4 -9 -8
-22 -10 -30 -1 -7 -6 -19 -10 -27 -7 -11 -5 -13 7 -8 22 9 44 15 34 10 -4 -3
-5 -9 -2 -14 4 -5 -1 -6 -10 -3 -11 5 -14 2 -9 -12 5 -16 4 -16 -5 -4 -10 13
-12 13 -21 0 -5 -8 -10 -20 -10 -27 0 -15 19 -27 28 -18 4 4 1 10 -5 12 -7 3
-13 9 -13 15 0 6 8 4 18 -5 10 -10 21 -16 23 -15 2 2 -2 -3 -10 -10 -8 -6 -23
-10 -33 -6 -10 3 -18 1 -18 -4 0 -12 29 -24 41 -16 5 3 9 0 9 -6 0 -6 -12 -9
-27 -8 -20 2 -28 -2 -31 -16 -2 -11 0 -16 7 -12 6 4 11 2 11 -3 0 -6 -8 -11
-17 -11 -13 0 -14 -3 -5 -12 8 -8 15 -8 29 3 17 13 17 13 4 -4 -8 -10 -20 -16
-26 -13 -7 2 -17 -6 -23 -19 -9 -18 -8 -25 4 -29 9 -3 12 -10 9 -16 -3 -6 1
-13 10 -16 14 -6 12 -8 -7 -18 -24 -12 -31 -45 -13 -59 6 -5 5 -7 -4 -5 -19 5
-23 39 -7 58 15 17 17 50 4 50 -4 0 -8 -3 -9 -7 0 -5 -3 -17 -5 -28 -3 -11 -7
-29 -9 -40 -2 -11 -8 -32 -13 -47 -9 -21 -8 -27 5 -32 8 -4 23 -1 32 6 14 12
14 11 3 -4 -8 -10 -21 -16 -30 -15 -10 1 -19 -2 -20 -8 -2 -5 -8 -16 -14 -22
-6 -7 -8 -13 -5 -13 4 0 0 -18 -8 -40 -8 -22 -12 -40 -10 -40 3 0 0 -12 -6
-27 -14 -37 -21 -63 -22 -90 -1 -13 -4 -23 -7 -23 -10 0 -8 -34 2 -47 12 -15
2 -33 -18 -33 -8 0 -13 -4 -10 -9 4 -5 0 -12 -6 -14 -8 -3 -6 -6 5 -6 9 -1 17
3 17 8 0 5 7 11 15 15 11 4 8 -4 -7 -24 -20 -28 -37 -42 -23 -20 3 6 1 10 -4
10 -6 0 -12 -6 -12 -12 -4 -35 -7 -55 -14 -73 -6 -19 -6 -19 8 -3 8 10 16 15
19 12 3 -2 8 2 11 11 4 8 2 15 -3 15 -6 0 -10 5 -10 12 0 6 3 8 7 5 3 -4 15 5
25 20 10 16 18 23 18 18 0 -6 -5 -16 -11 -22 -9 -9 -15 -28 -18 -55 -1 -4 -14
-15 -30 -24 -17 -10 -27 -22 -24 -26 3 -5 13 -2 22 6 16 15 17 14 15 -6 -1
-13 -3 -23 -4 -23 -1 0 -3 -8 -5 -18 -4 -24 -13 -32 -22 -23 -4 4 -1 11 7 16
8 6 11 10 6 10 -5 0 -3 6 3 14 9 11 6 14 -14 14 -22 0 -24 -3 -13 -16 11 -13
11 -14 -1 -7 -11 6 -13 4 -8 -8 3 -10 3 -17 -1 -17 -6 0 -13 -21 -37 -115 -3
-11 4 -29 18 -44 l22 -26 -23 19 c-12 11 -25 16 -29 12 -4 -4 -1 -11 7 -16 13
-8 12 -10 -3 -10 -9 0 -16 -3 -15 -7 1 -5 -2 -20 -6 -34 -4 -14 -8 -32 -9 -40
-2 -8 -6 -20 -10 -26 -5 -8 -4 -13 2 -13 6 0 16 9 23 20 15 24 25 26 25 5 0
-8 -4 -12 -8 -9 -4 2 -14 -5 -22 -16 -7 -11 -17 -17 -22 -12 -5 4 -5 1 -1 -5
4 -7 3 -13 -2 -13 -5 0 -9 -7 -9 -15 0 -8 4 -15 9 -15 5 0 11 7 14 15 6 16 24
21 24 7 0 -5 -12 -15 -27 -22 -16 -8 -30 -16 -32 -17 -2 -2 4 -12 14 -23 25
-27 28 -51 7 -42 -15 5 -15 3 -4 -10 9 -11 10 -18 2 -23 -6 -3 -8 -11 -5 -16
4 -5 1 -9 -4 -9 -14 0 -14 17 -1 25 6 4 7 11 4 17 -4 6 -10 5 -15 -3 -6 -10
-9 -10 -9 -2 0 6 5 15 10 18 6 4 8 11 5 16 -4 5 2 6 12 2 16 -6 16 -5 4 10 -7
9 -18 17 -24 17 -6 0 -8 -3 -4 -6 3 -3 -1 -24 -9 -46 -17 -48 -17 -51 -4 -43
17 11 11 -7 -7 -21 -16 -12 -16 -15 -3 -24 8 -5 20 -11 25 -13 6 -3 6 -8 1
-13 -5 -5 -11 -4 -13 4 -8 21 -33 13 -35 -10 -2 -37 -3 -42 -11 -55 -5 -7 -5
-13 -1 -13 3 0 1 -7 -6 -15 -15 -18 -6 -47 14 -39 8 3 17 1 20 -5 4 -6 -6 -8
-24 -6 -17 2 -28 0 -25 -5 3 -4 -1 -11 -7 -14 -7 -4 -4 -5 7 -3 15 3 21 -2 23
-17 0 -11 -2 -16 -6 -11 -12 16 -32 16 -26 0 4 -8 2 -15 -3 -15 -5 0 -10 -7
-10 -15 0 -8 4 -15 8 -15 4 0 9 7 13 15 6 17 26 20 26 4 0 -5 -4 -7 -10 -4 -5
3 -10 2 -10 -4 0 -5 6 -11 13 -14 6 -2 -1 -4 -16 -4 -35 -1 -43 -8 -27 -28 7
-9 10 -18 6 -22 -3 -3 -6 -1 -6 5 0 7 -5 12 -11 12 -5 0 -7 -5 -4 -10 4 -6 2
-16 -3 -23 -6 -7 -12 -28 -15 -48 -2 -20 -8 -43 -12 -50 -6 -9 -3 -11 8 -6 10
3 17 2 17 -3 0 -6 -9 -10 -20 -10 -11 0 -20 -6 -20 -12 0 -7 -3 -24 -7 -37 -4
-17 -3 -22 6 -17 6 4 9 11 6 15 -2 5 7 9 21 9 25 0 25 -1 -10 -21 -36 -21 -45
-40 -26 -52 6 -4 17 -3 23 2 7 4 4 0 -6 -9 -11 -10 -25 -18 -31 -18 -7 0 -13
-6 -13 -12 0 -7 -3 -24 -7 -38 -6 -23 -6 -23 7 -7 17 21 23 21 30 3 4 -11 1
-13 -11 -9 -14 6 -15 4 -4 -9 16 -20 12 -39 -11 -56 -10 -8 -14 -19 -10 -25
14 -22 13 -39 -2 -27 -8 6 -11 22 -9 36 3 14 1 23 -4 20 -9 -5 -24 -56 -26
-86 0 -8 -4 -17 -8 -20 -4 -3 -9 -20 -13 -37 -3 -18 -10 -44 -15 -58 -8 -21
-7 -26 2 -22 7 2 12 13 10 23 -3 18 -3 18 13 -1 14 -17 16 -18 11 -2 -3 10 -2
15 3 12 6 -3 9 -14 8 -25 -1 -13 -5 -16 -13 -10 -6 6 -14 7 -17 3 -4 -3 1 -12
11 -20 15 -13 15 -13 -6 -3 -28 14 -42 6 -37 -20 2 -11 0 -20 -5 -20 -14 0 -5
-29 14 -43 13 -10 16 -18 10 -29 -8 -14 -10 -14 -24 0 -13 14 -12 15 3 9 9 -3
17 -2 17 2 0 11 -31 24 -38 16 -3 -3 -2 -5 3 -5 4 0 1 -8 -6 -17 -8 -9 -9 -14
-4 -11 6 3 18 -5 28 -18 21 -28 16 -32 -8 -7 -14 14 -18 14 -26 2 -11 -18 -11
-21 1 -39 5 -8 13 -11 17 -6 4 5 2 11 -4 13 -7 3 -13 9 -13 14 0 5 9 4 19 -3
15 -9 17 -16 10 -25 -6 -7 -7 -18 -3 -25 4 -7 -2 -4 -14 6 -12 11 -25 16 -29
13 -3 -4 4 -15 15 -26 29 -25 28 -35 -1 -16 -18 11 -24 12 -25 3 -2 -24 -8
-47 -14 -53 -3 -3 -4 -23 -1 -43 3 -28 1 -33 -6 -22 -9 13 -11 13 -11 -1 0 -9
7 -20 16 -23 23 -9 24 -8 18 12 -5 14 -4 15 5 2 8 -12 5 -19 -11 -31 -28 -21
-34 -59 -10 -60 10 0 12 -3 4 -6 -6 -2 -9 -10 -6 -15 5 -7 2 -8 -6 -3 -10 6
-12 4 -7 -7 6 -17 -18 -58 -34 -58 -5 0 -2 9 9 20 20 21 24 71 6 77 -7 2 -10
-7 -8 -27 2 -17 0 -29 -4 -26 -5 3 -9 0 -10 -7 0 -7 -2 -21 -4 -32 -2 -16 2
-19 20 -18 15 2 21 -1 16 -8 -3 -6 -16 -8 -29 -5 -20 5 -23 2 -21 -23 1 -17
-1 -28 -5 -25 -4 2 -9 -6 -12 -18 -4 -15 0 -26 14 -35 17 -12 17 -16 5 -29 -8
-8 -18 -14 -22 -14 -5 0 -3 5 4 12 17 17 15 28 -5 28 -9 0 -13 -3 -10 -6 3 -4
2 -14 -3 -23 -6 -13 -3 -20 11 -29 14 -9 19 -9 19 0 0 6 3 8 6 5 4 -4 2 -13
-4 -20 -7 -8 -8 -18 -4 -22 4 -5 1 -5 -5 -1 -7 4 -13 2 -13 -4 0 -6 -5 -8 -11
-4 -8 5 -6 10 5 16 17 9 13 28 -5 28 -6 0 -7 -4 -4 -10 3 -5 2 -10 -2 -10 -5
0 -14 -9 -20 -20 -11 -17 -9 -23 15 -46 l27 -27 -32 22 c-18 12 -33 19 -33 14
1 -13 26 -43 32 -38 3 3 8 -13 12 -35 4 -28 10 -39 19 -35 6 4 4 0 -5 -8 -17
-13 -16 -16 12 -45 17 -18 30 -37 30 -42 0 -6 4 -9 9 -5 12 6 -19 64 -33 62
-4 -1 -11 4 -13 11 -3 6 0 12 6 12 10 0 71 -82 71 -97 0 -4 -5 -1 -10 7 -5 8
-10 10 -10 4 0 -5 6 -18 13 -29 11 -14 16 -15 22 -5 6 9 4 11 -5 5 -9 -6 -11
-4 -5 5 6 9 17 2 41 -26 18 -22 33 -45 34 -52 0 -7 4 -11 8 -8 5 3 8 -8 7 -24
-1 -16 2 -27 7 -24 4 3 8 -2 8 -11 0 -9 5 -13 10 -10 6 4 7 11 4 17 -4 6 -3 8
3 5 6 -4 9 -18 7 -33 -1 -14 0 -23 3 -20 4 3 14 -8 24 -24 11 -17 24 -30 29
-30 6 0 8 -4 5 -10 -3 -5 3 -15 15 -22 11 -7 20 -18 20 -25 0 -7 7 -13 15 -13
8 0 15 5 15 11 0 5 -3 8 -7 6 -5 -2 -18 7 -30 20 -13 13 -17 23 -10 23 7 1 2
6 -11 13 -12 7 -19 17 -15 22 5 4 2 5 -6 0 -9 -5 -12 -4 -7 3 4 7 2 12 -5 12
-7 0 -9 3 -6 7 4 3 -1 11 -10 18 -13 10 -14 13 -2 20 8 5 11 5 7 1 -3 -4 1
-16 10 -25 34 -36 57 -66 57 -76 1 -5 7 -9 15 -7 8 2 12 1 9 -3 -4 -3 6 -20
22 -38 31 -33 36 -47 18 -47 -5 0 -7 5 -3 12 5 7 3 8 -6 3 -8 -5 -11 -4 -6 3
3 6 2 13 -4 17 -18 11 -10 -19 13 -49 12 -16 39 -47 60 -69 20 -22 37 -44 37
-49 0 -5 5 -6 10 -3 6 4 8 11 5 16 -3 5 1 6 9 3 14 -5 14 -8 0 -21 -8 -9 -12
-18 -8 -22 4 -3 9 0 11 7 8 20 22 14 16 -8 -3 -10 2 -26 11 -35 8 -9 20 -24
25 -33 5 -9 13 -13 18 -8 4 5 2 11 -5 13 -6 3 -9 10 -6 15 5 7 2 8 -7 3 -8 -5
-11 -5 -7 0 4 4 0 13 -9 20 -13 9 -13 14 -3 20 9 5 11 4 6 -3 -4 -7 -2 -12 4
-12 6 0 20 -16 31 -35 12 -19 25 -32 30 -29 10 6 12 -9 2 -19 -3 -4 -12 1 -19
11 -15 19 -19 5 -5 -17 5 -8 16 -11 26 -7 14 5 15 3 7 -6 -8 -10 -3 -22 19
-48 18 -22 32 -31 36 -24 5 6 14 4 26 -8 9 -10 13 -18 9 -18 -4 0 -13 5 -20
12 -21 21 -13 -8 10 -38 31 -40 45 -54 54 -54 4 0 -7 16 -26 35 -19 19 -29 35
-23 35 6 0 13 -7 17 -15 3 -8 11 -14 18 -13 7 2 12 -1 13 -7 0 -5 15 -26 33
-45 17 -19 30 -38 29 -41 -1 -3 10 -17 25 -31 26 -23 28 -38 6 -38 -5 0 -6 5
-2 12 4 7 3 8 -4 4 -13 -8 54 -96 72 -96 5 0 7 -3 3 -6 -3 -3 17 -34 45 -68
53 -65 76 -86 92 -86 14 0 -12 25 -27 25 -7 1 -11 6 -10 13 2 7 -2 12 -7 12
-6 0 -10 7 -10 16 0 9 -5 12 -12 8 -7 -5 -8 -3 -3 6 5 8 4 11 -2 7 -6 -4 -14
0 -17 9 -5 13 -1 12 24 -2 16 -10 27 -21 25 -24 -2 -4 9 -20 26 -36 17 -16 35
-37 41 -47 8 -16 7 -17 -11 -8 -31 17 -36 13 -12 -8 13 -11 28 -18 35 -15 18
7 40 -23 41 -55 1 -25 71 -131 88 -131 4 0 5 -6 1 -12 -4 -7 -3 -9 1 -5 15 13
14 36 -1 30 -16 -6 -18 5 -5 25 11 17 24 -10 26 -53 0 -18 6 -29 13 -28 7 2
12 -3 12 -10 0 -8 11 -26 24 -42 22 -26 24 -26 35 -9 13 23 15 9 1 -15 -7 -14
-4 -23 15 -40 14 -11 28 -21 33 -21 4 1 -4 10 -17 20 -13 11 -19 20 -14 20 6
0 19 -8 31 -18 19 -17 19 -19 4 -29 -14 -10 -12 -11 13 -10 16 1 30 -2 31 -8
2 -23 17 -44 27 -38 5 3 7 1 4 -4 -4 -6 4 -18 18 -27 14 -9 24 -20 24 -24 -3
-21 2 -32 13 -26 7 5 8 3 3 -6 -6 -10 -12 -7 -26 11 -9 13 -15 27 -13 31 3 4
0 8 -5 8 -12 0 -15 -27 -3 -32 4 -1 21 -21 37 -43 30 -40 59 -58 49 -30 -4 8
-11 12 -17 8 -6 -4 -7 -1 -2 7 6 9 4 11 -5 5 -9 -6 -11 -4 -5 5 6 9 4 11 -5 5
-9 -6 -11 -4 -5 5 6 9 16 3 39 -21 17 -18 31 -36 31 -39 0 -3 6 -12 13 -20 42
-49 62 -76 62 -83 0 -5 6 -5 13 -1 6 4 9 4 5 -1 -11 -11 11 -47 24 -39 7 4 8
3 4 -4 -4 -7 -3 -12 2 -12 15 0 23 -28 10 -36 -7 -5 -8 -2 -3 6 5 9 4 11 -3 6
-15 -9 16 -55 38 -56 12 0 12 2 1 9 -9 6 -10 11 -2 15 11 7 13 0 14 -42 0 -13
6 -22 15 -22 11 0 12 3 3 14 -9 11 -9 16 1 22 7 4 10 4 6 0 -4 -5 2 -18 13
-30 45 -47 124 -149 124 -159 1 -7 7 -11 13 -9 10 2 10 -3 2 -18 -10 -18 -6
-26 23 -55 19 -19 32 -36 30 -39 -2 -2 7 -13 21 -24 14 -10 23 -22 19 -25 -3
-4 2 -9 11 -13 9 -3 16 -11 16 -16 0 -12 39 -48 52 -48 5 0 7 -4 3 -9 -7 -12
29 -33 39 -24 10 10 440 10 454 0 7 -5 12 -6 12 -1 0 11 130 12 148 1 6 -5 12
-4 12 0 0 11 131 10 148 0 6 -5 12 -4 12 0 0 11 131 10 148 0 6 -5 12 -4 12 2
0 6 15 8 34 6 24 -3 36 0 40 10 3 8 1 15 -4 15 -6 0 -10 -6 -10 -12 0 -10 -3
-9 -9 1 -6 9 -11 10 -15 2 -5 -8 -13 -8 -27 -1 -14 8 -19 7 -19 -2 0 -10 -2
-10 -9 1 -7 11 -9 11 -14 0 -4 -10 -6 -10 -6 -1 -1 6 -6 12 -12 12 -5 0 -7 -5
-3 -12 4 -7 3 -8 -5 -4 -6 4 -9 12 -6 17 4 5 1 9 -4 9 -6 0 -11 -8 -11 -17 0
-15 -2 -16 -10 -3 -9 13 -10 13 -10 0 0 -13 -1 -13 -10 0 -9 13 -10 13 -10 0
0 -9 -3 -11 -8 -5 -4 6 -14 10 -22 10 -8 0 -18 -4 -22 -10 -5 -6 -8 -4 -8 5 0
13 -1 13 -10 0 -6 -10 -10 -11 -10 -2 0 6 -5 12 -11 12 -5 0 -7 -5 -3 -12 4
-7 3 -8 -5 -4 -6 4 -9 12 -6 17 4 5 1 9 -4 9 -6 0 -11 -8 -11 -17 0 -15 -2
-16 -10 -3 -9 13 -10 13 -10 0 0 -13 -1 -13 -10 0 -9 13 -10 13 -10 0 0 -9 -3
-11 -8 -5 -4 6 -14 10 -22 10 -8 0 -18 -4 -22 -10 -5 -6 -8 -4 -8 5 0 13 -1
13 -10 0 -6 -10 -10 -11 -10 -2 0 6 -5 12 -11 12 -5 0 -7 -5 -3 -12 4 -7 3 -8
-5 -4 -6 4 -9 12 -6 17 4 5 1 9 -4 9 -6 0 -11 -8 -11 -17 0 -15 -2 -16 -10 -3
-9 13 -10 13 -10 0 0 -13 -1 -13 -10 0 -9 13 -10 13 -10 0 0 -9 -3 -11 -8 -5
-4 6 -14 10 -22 10 -8 0 -18 -4 -22 -10 -5 -6 -8 -4 -8 5 0 13 -1 13 -10 0 -6
-10 -10 -11 -10 -2 0 6 -5 12 -11 12 -5 0 -7 -5 -3 -12 4 -7 3 -8 -5 -4 -6 4
-9 12 -6 17 4 5 1 9 -4 9 -6 0 -11 -8 -11 -17 0 -14 -2 -15 -9 -4 -7 11 -9 11
-14 0 -4 -11 -6 -11 -6 1 -1 13 -2 13 -11 0 -8 -12 -10 -12 -10 -1 0 11 -3 11
-15 1 -12 -10 -15 -10 -15 0 0 9 -4 9 -17 -1 -13 -11 -17 -11 -20 -1 -3 6 -10
9 -16 5 -19 -12 -36 -12 -43 -2 -3 6 -12 5 -22 -3 -12 -10 -14 -10 -8 0 4 6 3
12 -3 12 -5 0 -11 -3 -14 -7 -2 -5 -2 -2 -1 5 2 6 -1 12 -6 12 -6 0 -10 -8
-10 -17 0 -15 -2 -16 -10 -3 -9 13 -10 13 -10 0 0 -10 -3 -11 -8 -4 -7 11 -16
11 -52 3 -8 -2 -14 2 -12 9 1 8 -2 11 -8 7 -6 -3 -8 -11 -5 -16 4 -5 1 -9 -4
-9 -6 0 -11 5 -11 12 0 7 -7 5 -18 -5 -16 -15 -19 -15 -30 3 -12 20 -4 32 26
36 10 2 8 -3 -4 -17 -9 -10 -12 -19 -6 -19 6 0 18 10 26 22 9 12 16 17 16 10
0 -7 5 -10 11 -7 5 4 21 8 34 9 18 2 22 -1 18 -13 -5 -13 -3 -13 7 -4 7 6 19
9 28 6 11 -5 13 -2 7 6 -6 10 -3 11 13 2 25 -13 35 -14 28 -3 -3 5 1 9 9 9 8
0 12 -4 9 -8 -2 -4 0 -10 6 -14 5 -3 10 -2 10 3 0 5 10 12 23 15 20 6 21 5 4
-8 -11 -7 -14 -16 -8 -19 5 -4 17 4 25 16 9 12 16 17 16 10 0 -7 5 -10 11 -7
5 4 21 8 34 9 18 2 22 -1 18 -13 -5 -13 -3 -13 7 -4 7 6 19 9 28 6 11 -5 13
-2 7 6 -6 10 -3 11 13 2 27 -14 35 -14 26 2 -4 6 3 3 16 -8 16 -14 22 -16 18
-5 -4 11 2 15 22 15 20 0 26 -4 22 -15 -4 -12 -2 -12 8 -3 7 6 19 9 28 6 11
-5 13 -2 7 6 -6 10 -3 11 13 2 27 -14 35 -14 26 2 -4 6 3 3 16 -8 16 -14 22
-16 18 -5 -4 11 2 15 22 15 20 0 26 -4 22 -15 -4 -12 -2 -12 8 -3 7 6 19 9 28
6 11 -5 13 -2 7 6 -6 10 -3 11 13 2 27 -14 35 -14 26 2 -4 6 3 3 16 -8 16 -14
22 -16 18 -5 -4 11 2 15 22 15 20 0 26 -4 22 -15 -4 -12 -2 -12 8 -3 7 6 19 9
28 6 11 -5 13 -2 7 6 -6 10 -3 11 13 2 27 -14 35 -14 26 2 -4 6 3 3 16 -8 16
-14 22 -16 18 -5 -4 11 2 15 22 15 20 0 26 -4 22 -15 -4 -11 2 -9 18 5 13 11
20 14 16 8 -4 -7 -2 -13 3 -13 10 0 16 21 12 43 0 4 3 7 8 7 6 0 8 9 6 20 -2
11 0 20 5 20 4 0 7 11 6 25 -2 13 1 22 5 19 8 -5 13 19 12 53 -1 7 3 13 7 13
5 0 7 11 6 25 -2 13 0 22 4 20 5 -3 11 2 14 11 4 10 2 13 -7 8 -9 -5 -9 -4 0
6 6 7 9 19 6 28 -4 8 -2 13 3 9 5 -3 11 3 12 14 1 10 3 28 4 39 1 11 6 20 10
20 4 0 5 6 2 14 -3 8 -1 17 5 20 6 4 8 13 4 21 -3 8 0 15 7 15 6 0 9 4 6 9 -4
5 0 12 6 14 10 4 9 6 -1 6 -11 1 -11 4 -1 16 7 8 9 15 4 15 -5 0 -3 4 5 9 9 6
14 24 13 45 -1 21 3 36 10 36 6 0 8 3 5 7 -4 3 -1 13 6 21 9 12 9 14 0 9 -9
-5 -8 0 2 19 7 15 11 32 9 39 -3 7 0 16 5 20 6 3 9 11 6 16 -4 5 -2 9 4 9 6 0
8 7 5 15 -4 8 -1 15 6 15 7 0 10 6 7 14 -3 7 0 19 6 26 9 10 9 11 -3 5 -12 -7
-13 -6 -3 7 7 8 10 18 6 21 -3 4 -1 7 6 7 8 0 10 7 6 21 -4 12 -3 19 2 16 5
-3 10 3 11 14 1 10 3 28 4 39 1 11 6 20 11 20 4 0 5 5 2 10 -3 6 0 10 7 10 10
0 9 3 -2 10 -12 7 -12 12 5 29 10 12 15 24 12 27 -3 4 1 20 9 36 9 17 11 27 5
24 -7 -4 -8 -1 -5 8 3 9 10 16 14 16 5 0 7 11 5 25 -1 14 2 25 7 25 6 0 8 7 5
15 -4 8 -2 17 4 21 5 3 7 15 3 26 -4 15 -3 18 7 13 9 -6 11 -4 6 8 -3 9 -2 19
4 23 6 3 8 12 5 20 -3 8 -2 14 3 14 5 0 11 9 14 20 3 13 1 18 -6 13 -7 -4 -6
0 1 10 8 9 11 21 7 27 -3 5 -1 10 5 10 6 0 9 4 5 9 -3 5 -1 12 4 16 6 3 8 12
4 20 -3 8 0 15 6 15 6 0 11 5 11 11 0 5 -4 8 -9 4 -5 -3 -3 8 5 25 9 16 12 35
8 41 -5 8 -3 9 6 4 10 -6 12 -4 7 8 -3 9 -2 19 3 22 5 3 6 13 3 22 -5 12 -3
14 7 8 9 -5 11 -4 6 4 -4 6 -2 19 6 28 11 14 11 16 -2 8 -12 -7 -13 -6 -3 7 7
8 10 18 6 21 -3 4 -1 7 6 7 7 0 9 4 6 10 -3 5 1 24 10 41 12 23 13 29 3 23
-11 -6 -11 -5 0 9 8 9 10 22 6 28 -5 8 -3 9 6 4 9 -5 10 -2 5 14 -3 12 -2 21
3 21 6 0 9 11 8 25 -2 14 1 22 7 18 6 -4 8 2 5 15 -4 15 0 25 10 32 10 5 12
10 6 10 -9 0 -9 12 -3 42 6 23 6 44 2 47 -5 3 -28 33 -53 66 -24 33 -49 65
-55 71 -5 6 -23 28 -40 49 -65 83 -456 571 -468 585 -8 8 -66 81 -131 163 -65
81 -122 145 -127 142 -5 -4 -6 1 -3 9 3 8 -3 19 -15 26 -14 7 -21 7 -21 0 0
-5 5 -10 10 -10 6 0 10 -8 9 -17 0 -11 -3 -13 -6 -5 -2 6 -9 12 -14 12 -6 0
-7 -5 -4 -10 4 -6 1 -17 -5 -25 -8 -10 -9 -15 -2 -15 6 0 14 5 17 10 3 6 14
10 23 9 12 0 10 -3 -7 -10 -23 -9 -23 -10 -6 -29 10 -11 15 -23 12 -27 -4 -3
-7 -1 -7 6 0 7 -7 11 -14 8 -11 -4 -13 -1 -9 11 4 12 3 14 -4 7 -6 -5 -14 -19
-17 -30 -5 -16 -1 -21 14 -22 13 -1 18 2 14 9 -4 7 -2 8 4 4 6 -4 9 -13 5 -22
-4 -11 -9 -12 -18 -4 -16 13 -31 -8 -36 -50 -2 -14 -8 -28 -14 -32 -6 -4 -2
-8 8 -8 9 0 17 -4 17 -10 0 -5 -8 -7 -17 -3 -10 3 -15 3 -11 -1 3 -4 1 -22 -7
-39 -7 -18 -11 -42 -10 -54 1 -13 -2 -23 -7 -23 -4 0 -8 -5 -8 -11 0 -5 5 -7
10 -4 6 3 10 2 10 -3 0 -6 -7 -13 -16 -16 -14 -5 -14 -9 -3 -23 12 -14 12 -16
-1 -11 -12 4 -16 -2 -18 -26 -1 -17 -5 -40 -9 -51 -5 -16 -3 -18 9 -10 7 6 5
2 -5 -8 -30 -26 -14 -31 19 -5 22 17 26 18 14 4 -8 -11 -14 -22 -13 -25 2 -3
-3 -6 -10 -7 -29 -2 -34 -5 -35 -16 0 -7 -3 -20 -5 -28 -2 -8 -7 -33 -11 -55
-4 -22 -12 -50 -17 -63 -6 -16 -5 -30 3 -45 17 -31 17 -56 1 -50 -16 6 -17 20
-2 25 7 2 6 8 -3 16 -16 13 -15 15 -19 -45 -1 -18 -7 -33 -12 -33 -6 0 -7 -3
-4 -7 4 -3 1 -13 -6 -21 -9 -13 -9 -14 1 -8 7 4 12 1 12 -9 0 -12 6 -15 23
-10 15 4 18 4 8 -3 -8 -6 -10 -15 -6 -23 5 -8 -3 -4 -17 9 -15 14 -25 18 -26
10 -2 -30 -15 -84 -22 -98 -5 -9 -4 -23 1 -32 10 -18 2 -51 -11 -43 -7 4 -16
-25 -27 -84 -2 -14 -9 -33 -14 -43 -7 -14 -6 -18 6 -18 8 0 15 -4 15 -10 0 -5
-6 -7 -13 -4 -8 3 -14 -1 -15 -8 0 -7 -7 -35 -16 -61 -8 -26 -11 -45 -6 -42 6
4 10 1 10 -4 0 -6 -4 -11 -10 -11 -5 0 -10 -5 -10 -10 0 -7 7 -7 20 0 15 8 18
15 11 28 -11 21 2 48 18 38 6 -4 10 -15 10 -24 -1 -15 -2 -15 -6 1 -2 9 -9 15
-14 12 -5 -4 -5 -14 1 -25 7 -13 7 -21 0 -25 -8 -5 -7 -12 2 -23 12 -15 11
-16 -4 -4 -12 10 -22 11 -35 3 -10 -6 -14 -11 -9 -11 5 0 4 -6 -1 -12 -13 -17
-23 -59 -13 -53 5 3 10 0 12 -6 2 -7 10 -4 18 7 14 16 13 17 -2 11 -10 -3 -18
-2 -18 3 0 13 27 13 35 1 8 -14 -23 -41 -40 -35 -9 4 -15 0 -16 -10 -1 -9 -2
-26 -3 -38 -1 -13 6 -30 16 -38 18 -15 18 -16 -1 -16 -11 0 -19 2 -17 3 2 2
-15 22 -36 46 -22 23 -116 139 -209 257 -94 118 -184 230 -200 248 -16 18 -29
35 -29 38 0 3 -6 11 -13 19 -7 7 -153 187 -323 400 -218 272 -308 393 -307
408 1 12 4 34 5 49 2 14 6 24 10 22 4 -3 7 4 6 13 0 10 3 29 7 43 4 14 8 35 9
47 0 11 5 19 10 15 5 -3 7 2 3 11 -4 10 -2 17 4 17 6 0 9 7 5 15 -3 8 -1 15 4
15 5 0 7 9 5 20 -2 11 1 20 6 20 6 0 7 9 4 21 -5 14 -3 19 4 15 7 -5 10 3 7
23 -2 17 1 28 5 25 5 -3 10 4 10 15 2 30 3 34 13 50 7 10 6 12 -3 6 -8 -4 -6
4 4 18 9 15 14 31 11 36 -4 5 -2 12 3 16 6 3 7 13 4 22 -4 10 -2 14 4 10 6 -4
9 6 8 23 -1 17 2 27 8 23 6 -4 8 2 5 15 -4 13 -2 20 3 16 6 -3 8 6 5 20 -3 18
-1 24 6 20 7 -5 9 -1 5 9 -3 10 -2 17 4 17 6 0 7 5 4 10 -3 6 -3 16 2 23 4 6
9 21 11 32 7 36 8 40 15 52 4 6 4 19 0 29 -4 12 -3 15 5 10 8 -5 10 -2 6 8 -3
9 -2 16 4 16 6 0 9 11 7 25 -1 14 2 25 7 25 5 0 6 5 3 10 -3 6 0 10 7 10 10 0
10 2 -1 9 -9 6 -10 11 -2 15 6 4 9 12 6 17 -4 5 -2 9 3 9 6 0 13 7 16 16 3 8
2 12 -4 9 -6 -3 -10 -2 -10 4 0 5 5 13 11 16 6 4 8 13 5 21 -3 8 -1 14 5 14 6
0 7 5 4 10 -4 6 -1 17 5 25 6 8 9 19 5 25 -3 5 -1 10 6 10 7 0 9 3 6 7 -4 3
-1 13 6 21 10 13 9 14 -3 7 -12 -7 -13 -6 -3 7 7 8 10 18 6 21 -3 4 -1 7 4 7
6 0 10 11 9 25 -2 14 2 29 9 35 7 6 11 21 9 35 -1 14 2 25 7 25 6 0 7 5 4 10
-3 6 -1 10 4 10 6 0 11 5 11 11 0 5 -6 7 -12 3 -10 -6 -10 -4 0 8 7 9 15 27
18 39 3 13 6 29 7 34 2 6 7 16 11 24 7 11 6 12 -5 6 -11 -7 -12 -6 -2 7 7 8
10 18 6 21 -3 4 -1 7 6 7 8 0 11 7 7 15 -3 8 -1 15 4 15 5 0 7 12 4 26 -3 18
-1 23 7 18 9 -5 10 -1 7 14 -4 13 -1 22 5 22 6 0 7 3 4 7 -4 3 -1 13 6 21 10
13 9 14 -2 8 -8 -6 -7 0 4 18 14 20 14 26 4 26 -10 1 -10 3 2 10 10 6 15 20
14 35 -2 14 1 25 7 25 6 0 7 7 4 16 -4 10 -2 13 6 8 8 -5 9 -2 5 9 -3 9 -2 19
4 23 6 3 8 12 5 20 -3 7 2 20 10 29 10 10 11 15 3 15 -9 0 -9 3 1 15 6 8 8 20
4 26 -5 8 -3 9 6 4 10 -6 12 -4 6 10 -4 10 -1 25 7 34 8 9 17 25 21 35 6 17 4
17 -11 5 -17 -13 -17 -12 -2 6 27 34 34 49 18 40 -10 -6 -9 -3 2 11 9 10 17
27 18 37 3 40 5 47 14 47 6 0 7 3 4 7 -4 3 -1 13 6 21 10 13 9 14 -3 7 -13 -8
-13 -7 -1 8 7 9 10 17 7 17 -4 0 0 7 8 16 9 8 16 21 16 27 0 7 -4 6 -10 -3 -6
-9 -10 -10 -10 -3 0 6 5 15 10 18 6 4 8 11 5 16 -4 5 -1 9 5 9 6 0 9 4 6 9 -3
4 1 17 9 27 10 13 14 15 15 5 0 -9 4 -10 13 -4 15 13 47 13 47 0 0 -5 7 -4 15
3 12 10 13 8 10 -10 -2 -13 -6 -25 -9 -27 -8 -8 -27 8 -21 18 4 5 2 9 -3 9 -6
0 -12 -7 -15 -15 -4 -8 -15 -12 -26 -10 -11 2 -23 0 -26 -5 -3 -4 23 -7 58 -6
61 2 62 3 60 29 -2 21 2 26 17 24 11 -2 23 -6 26 -10 10 -10 26 -9 20 1 -2 4
6 8 19 8 23 0 23 -1 8 -18 -12 -13 -13 -18 -3 -18 7 0 10 -3 7 -6 -4 -4 -13
-1 -22 6 -8 7 -15 9 -15 4 0 -5 -5 -2 -11 6 -9 12 -10 11 -5 -5 5 -16 3 -15
-13 5 -17 22 -19 22 -16 5 2 -11 4 -22 4 -25 2 -10 86 -5 87 5 0 6 4 17 8 26
8 19 63 21 70 3 6 -16 -10 -28 -19 -14 -3 5 -10 10 -16 10 -5 0 -4 -9 3 -19 9
-16 15 -17 26 -9 10 9 16 8 23 -3 7 -11 8 -10 6 6 -1 11 -6 25 -9 31 -8 13 50
13 70 1 6 -5 12 -4 12 1 0 5 18 8 40 8 22 0 40 -4 40 -9 0 -5 8 -3 17 4 14 12
16 12 9 0 -6 -9 -5 -12 5 -9 8 3 13 11 11 18 -2 10 0 11 11 2 8 -7 17 -9 20
-5 4 3 7 -1 7 -11 0 -9 -4 -14 -10 -11 -5 3 -10 0 -10 -7 0 -9 -3 -9 -10 2 -7
11 -10 11 -10 2 0 -8 -5 -10 -12 -5 -21 12 -39 12 -32 0 3 -7 -1 -4 -9 6 -17
21 -24 22 -24 2 0 -8 4 -15 9 -15 5 0 7 -4 4 -8 -6 -10 30 -9 40 1 4 3 15 2
25 -3 12 -7 19 -6 22 3 3 9 7 9 18 0 8 -6 20 -8 27 -4 7 4 30 6 52 4 22 -2 42
2 46 9 5 7 3 8 -6 3 -8 -5 -11 -4 -6 3 3 6 2 13 -4 17 -5 3 -10 10 -10 16 0 5
9 0 20 -11 11 -11 20 -25 20 -32 0 -6 3 -8 6 -5 4 3 15 2 25 -3 14 -8 21 -5
33 12 18 25 16 31 -8 22 -10 -4 -15 -13 -12 -23 5 -13 4 -13 -7 1 -8 10 -18
14 -22 10 -5 -4 -5 -1 -1 6 4 7 1 12 -8 12 -8 0 -18 4 -21 10 -7 12 23 2 44
-14 12 -9 13 -7 8 8 -6 16 -5 17 8 6 12 -10 15 -10 15 1 0 10 3 10 12 1 7 -7
17 -8 29 -1 15 8 17 6 12 -8 -6 -16 -4 -16 18 2 18 15 20 16 10 3 -15 -20 -2
-25 17 -6 9 9 15 9 24 0 16 -16 33 -15 20 1 -8 10 -6 13 7 13 12 0 17 -6 14
-14 -3 -7 -2 -12 3 -11 20 3 34 -2 34 -12 0 -8 -4 -8 -14 0 -11 9 -15 9 -19
-1 -4 -11 -6 -10 -6 0 -1 7 -5 10 -11 7 -24 -15 -4 -20 80 -20 74 -1 90 2 90
15 0 13 -1 13 -10 0 -5 -8 -10 -10 -10 -5 0 17 18 40 32 41 7 0 22 -7 32 -15
17 -14 19 -14 14 -1 -5 12 3 16 38 16 24 0 44 -4 44 -9 0 -5 6 -5 13 0 6 6 25
9 40 8 15 -1 30 2 33 7 3 4 15 3 27 -3 16 -9 22 -9 25 0 3 8 12 5 28 -10 13
-12 21 -25 19 -30 -12 -18 14 -17 30 1 15 16 16 23 6 33 -10 9 -11 9 -6 -4 10
-25 -9 -31 -24 -7 -7 11 -8 17 -3 14 6 -3 12 0 15 6 7 20 32 -8 32 -37 1 -13
-2 -22 -5 -20 -3 2 -6 -8 -7 -21 -1 -13 -3 -35 -4 -49 -1 -15 -6 -22 -13 -18
-6 3 -5 0 3 -8 11 -12 15 -11 25 5 6 10 19 28 29 40 18 21 18 21 3 -5 -9 -14
-14 -28 -10 -31 3 -3 -9 -12 -25 -19 -31 -14 -45 -34 -35 -50 3 -5 10 -9 16
-9 7 0 6 5 -1 14 -9 11 -9 16 0 22 7 4 9 3 5 -4 -3 -6 2 -15 11 -21 10 -6 13
-11 8 -11 -6 0 -12 -9 -13 -20 -1 -11 -3 -28 -4 -38 -1 -10 -11 -19 -23 -20
-11 0 -15 2 -10 6 10 7 35 47 35 56 0 2 -9 6 -20 9 -13 3 -20 0 -20 -10 0 -8
5 -11 13 -8 6 4 5 1 -4 -7 -9 -7 -19 -25 -22 -40 -6 -23 -4 -27 10 -22 10 3 7
-1 -6 -9 -14 -8 -19 -17 -13 -21 6 -3 13 -2 17 4 9 15 22 12 22 -4 0 -8 -6
-12 -15 -8 -11 4 -13 2 -7 -9 8 -12 6 -12 -8 0 -19 15 -26 6 -31 -41 -1 -13
-6 -29 -10 -36 -4 -7 -4 -16 -1 -22 3 -5 1 -10 -4 -10 -6 0 -11 -4 -11 -10 0
-5 6 -7 13 -5 28 11 39 -10 27 -54 -8 -30 -8 -46 -1 -55 6 -7 8 -16 4 -20 -4
-4 0 -4 10 0 9 3 17 10 17 16 0 5 -5 6 -12 2 -7 -4 -8 -3 -4 5 4 6 12 9 17 6
5 -4 9 -1 9 4 0 6 3 10 8 9 4 -1 23 6 42 15 26 14 30 14 16 2 -16 -12 -17 -15
-4 -15 17 0 41 24 32 32 -2 3 2 8 10 11 11 4 13 1 9 -11 -6 -15 -5 -15 10 -3
9 7 14 18 10 25 -4 6 0 5 9 -2 10 -8 19 -9 22 -3 3 5 3 11 -1 14 -5 2 -3 2 4
1 6 -2 17 3 23 11 6 8 22 11 36 9 15 -3 23 -1 20 5 -9 14 29 32 50 24 12 -4
15 -3 10 5 -5 8 -1 10 10 5 12 -4 15 -3 10 6 -4 6 -4 10 1 9 4 -1 23 6 42 16
18 10 30 12 26 6 -5 -8 -3 -11 4 -9 7 3 12 8 11 13 -3 15 24 25 38 14 9 -8 16
-8 24 0 9 9 7 12 -8 13 -18 0 -18 1 1 8 11 5 26 6 34 3 10 -4 12 -1 7 7 -6 10
-4 10 12 0 25 -16 18 -32 -10 -23 -14 4 -18 2 -14 -5 4 -6 4 -10 -1 -9 -4 1
-19 -4 -32 -11 -13 -7 -21 -8 -17 -3 3 6 2 13 -4 17 -9 5 -14 -6 -12 -26 1 -6
-17 -9 -55 -10 -12 -1 -21 -6 -20 -13 1 -6 -4 -10 -11 -8 -8 1 -11 -2 -6 -9 5
-8 2 -10 -8 -6 -22 8 -56 -17 -38 -28 9 -6 11 -4 5 5 -6 10 -4 12 9 7 11 -4
29 1 46 13 15 11 30 17 34 13 3 -3 6 -1 6 6 0 7 5 9 10 6 6 -3 10 -2 10 3 0 5
7 9 15 10 8 1 22 3 30 4 8 1 17 8 19 15 3 8 10 12 15 8 11 -6 81 25 81 37 0 4
-6 5 -13 2 -8 -3 -20 3 -28 12 -8 10 -9 15 -3 11 7 -4 17 0 24 7 6 8 20 13 30
11 10 -2 21 3 24 12 4 9 9 13 12 10 3 -3 26 5 50 18 24 13 41 19 38 13 -4 -6
-1 -8 7 -6 8 3 12 12 11 19 -2 8 0 11 3 7 4 -4 26 3 49 17 22 13 50 25 61 27
11 2 23 8 27 13 4 6 8 2 8 -8 0 -10 4 -16 10 -12 5 3 6 13 3 23 -7 18 -5 17
17 -12 8 -11 10 -17 3 -13 -6 4 -14 3 -18 -3 -4 -7 -12 -7 -26 0 -20 11 -24 4
-11 -18 6 -9 21 -6 63 15 30 15 57 28 62 29 4 1 10 3 15 4 4 1 10 2 15 1 4 0
7 3 7 9 0 5 7 10 15 10 8 0 15 4 15 9 0 4 8 8 18 8 29 0 62 15 56 25 -3 5 0
16 8 25 11 15 11 16 -6 10 -16 -7 -17 -5 -5 9 8 10 15 12 17 5 2 -6 8 -11 13
-11 6 0 7 5 3 12 -4 7 -3 8 5 4 6 -4 14 0 17 8 3 9 10 14 14 11 5 -3 11 -1 15
5 4 6 11 8 16 4 6 -3 16 1 22 10 7 9 23 18 36 21 13 2 20 1 17 -3 -4 -4 -12
-8 -17 -8 -5 -1 -13 -2 -19 -3 -21 -2 -9 -18 15 -18 24 0 28 6 28 50 0 9 3 17
6 17 6 0 10 17 13 58 1 6 6 12 11 12 6 0 7 3 4 7 -4 3 -1 13 6 21 10 13 9 14
-3 7 -9 -5 -7 1 5 15 12 14 14 20 5 15 -13 -8 -13 -6 -2 8 8 9 11 21 7 27 -3
5 -1 10 5 10 6 0 9 4 5 9 -3 5 0 13 6 16 5 4 8 13 5 20 -2 7 2 24 9 39 10 19
11 24 2 19 -8 -4 -7 -1 1 10 8 9 10 22 6 28 -5 8 -3 9 6 4 10 -6 12 -4 7 7 -3
9 -1 20 3 24 5 5 10 24 12 42 1 17 6 32 11 32 5 0 7 7 3 15 -3 8 -2 15 3 15 5
0 7 11 6 25 -2 14 0 23 5 20 4 -3 10 4 13 15 3 13 1 18 -6 13 -7 -4 -6 1 2 10
7 9 11 17 7 17 -4 0 2 12 11 27 14 21 15 25 3 18 -12 -7 -13 -6 -3 7 7 8 10
18 6 21 -3 4 -1 7 5 7 6 0 9 7 6 15 -4 8 -2 15 4 15 6 0 9 8 7 18 -1 9 2 22 7
29 5 7 7 17 3 23 -3 5 -2 10 4 10 5 0 8 11 7 25 -2 13 0 22 4 20 4 -3 10 4 13
15 3 12 1 18 -5 14 -6 -4 -3 5 6 18 9 14 13 28 10 31 -4 4 -1 13 5 21 7 8 10
20 6 26 -3 5 -1 10 5 10 7 0 10 7 6 15 -3 8 0 15 6 15 6 0 8 3 5 7 -4 3 -1 13
6 21 10 13 9 14 -3 7 -12 -7 -13 -6 -3 6 7 8 12 24 11 34 -1 11 2 30 6 42 6
18 3 22 -21 25 -24 3 -28 7 -25 30 3 24 0 26 -31 26 -22 0 -34 -5 -34 -14 0
-17 3 -17 27 -4 13 7 21 7 25 0 4 -6 3 -10 -2 -9 -19 3 -34 -2 -29 -9 3 -5 -1
-9 -9 -9 -8 0 -16 4 -16 9 -1 4 -2 13 -3 19 0 7 -17 14 -37 16 -27 2 -36 -1
-36 -12 0 -18 8 -19 27 -2 8 6 6 2 -4 -11 -21 -24 -26 -23 -30 5 -2 15 -12 18
-64 18 -56 0 -83 -13 -51 -24 6 -2 9 1 6 6 -3 5 3 9 14 9 19 0 18 -1 -3 -17
-20 -16 -23 -16 -34 -1 -7 9 -11 19 -9 23 7 10 -120 7 -132 -3 -9 -7 -13 -7
-13 2 0 17 -13 4 -16 -16 -2 -10 3 -13 16 -9 10 3 21 2 24 -3 3 -5 -7 -8 -22
-8 -15 1 -32 -2 -39 -7 -6 -4 -14 -3 -18 3 -3 6 -11 8 -16 5 -11 -8 -12 6 0
23 6 10 10 8 14 -9 5 -19 9 -21 19 -11 17 17 22 56 6 45 -7 -4 -38 -8 -68 -8
-50 0 -79 -14 -49 -24 6 -2 9 1 6 6 -3 5 3 9 14 9 19 0 18 -1 -3 -17 -20 -16
-23 -16 -34 -1 -7 9 -11 19 -9 23 7 10 -120 7 -132 -3 -9 -7 -13 -7 -13 2 0
17 -13 4 -16 -16 -2 -10 3 -13 16 -9 10 3 21 2 24 -3 3 -5 -7 -8 -22 -8 -15 1
-32 -2 -39 -7 -6 -4 -14 -3 -18 3 -3 6 -11 8 -16 5 -11 -8 -12 6 0 23 6 10 10
8 14 -9 5 -19 9 -21 19 -11 6 6 13 22 15 34 3 17 1 20 -8 11 -7 -7 -26 -9 -46
-6 -26 4 -33 2 -31 -8 2 -8 7 -17 12 -20 4 -4 3 -10 -3 -13 -6 -4 -12 -2 -12
3 -1 6 -2 16 -3 22 0 7 -17 14 -37 16 -27 2 -36 -1 -36 -12 0 -18 8 -19 27 -2
8 6 6 2 -4 -11 -21 -24 -26 -23 -30 4 -4 28 -54 27 -92 -3 -19 -14 -34 -23
-34 -20 0 3 -3 12 -6 21 -3 9 -1 16 6 16 6 0 8 -4 5 -10 -3 -5 -1 -10 4 -10 6
0 11 5 11 11 0 5 5 7 10 4 6 -3 10 -2 10 3 0 18 -38 20 -61 4 -15 -10 -20 -11
-14 -2 5 8 3 11 -5 8 -7 -2 -14 -12 -16 -21 -2 -13 3 -16 16 -12 10 3 21 2 24
-4 3 -5 -8 -8 -25 -7 -16 1 -32 -1 -35 -6 -3 -4 -10 -8 -17 -8 -6 0 -2 6 8 14
33 24 27 44 -14 42 -20 0 -42 -5 -50 -10 -10 -7 -12 -6 -6 4 5 8 3 11 -5 8 -7
-2 -14 -12 -16 -21 -2 -13 3 -16 16 -12 10 3 21 2 24 -3 3 -5 -7 -8 -22 -8
-15 1 -34 -3 -42 -9 -13 -9 -13 -8 0 9 26 33 21 43 -24 43 -29 0 -43 -4 -43
-13 0 -17 3 -17 26 -5 11 6 23 6 32 0 12 -8 12 -10 -1 -8 -27 3 -41 -1 -36 -9
3 -5 -1 -9 -9 -9 -8 0 -16 4 -16 9 -1 4 -2 13 -3 19 0 7 -17 14 -37 16 -27 2
-36 -1 -36 -12 0 -18 8 -19 27 -2 8 6 6 2 -4 -11 -21 -24 -26 -23 -30 5 -2 15
-12 18 -64 18 -56 0 -83 -13 -51 -24 6 -2 9 1 6 6 -3 5 3 9 14 9 19 0 18 -1
-3 -17 -20 -16 -23 -16 -34 -1 -7 9 -11 19 -9 23 7 10 -120 7 -132 -3 -9 -7
-13 -7 -13 2 0 17 -13 4 -16 -16 -2 -10 3 -13 16 -9 10 3 21 2 24 -3 3 -5 -7
-8 -22 -8 -15 1 -32 -2 -39 -7 -6 -4 -14 -3 -18 3 -3 6 -11 8 -16 5 -11 -8
-12 6 0 23 6 10 10 8 14 -9 5 -19 9 -21 19 -11 6 6 13 22 15 34 3 17 1 20 -8
11 -7 -7 -26 -9 -46 -6 -26 4 -33 2 -31 -8 2 -8 7 -17 12 -20 4 -4 3 -10 -3
-13 -6 -4 -12 -2 -12 3 -1 6 -2 16 -3 22 0 7 -17 14 -37 16 -27 2 -36 -1 -36
-12 0 -18 8 -19 27 -2 8 6 6 2 -4 -11 -21 -24 -26 -23 -30 4 -4 28 -54 27 -91
-2 -28 -21 -33 -22 -39 -8 -8 21 -8 24 5 24 5 0 7 -4 4 -10 -3 -5 -1 -10 4
-10 6 0 11 5 11 11 0 5 5 7 10 4 6 -3 10 -2 10 3 0 18 -38 20 -61 4 -15 -10
-20 -11 -14 -2 5 8 3 11 -5 8 -7 -2 -14 -12 -16 -21 -2 -13 3 -16 16 -12 10 3
21 2 24 -4 3 -5 -8 -8 -25 -7 -16 1 -32 -1 -35 -6 -3 -4 -10 -8 -17 -8 -6 0
-2 6 8 14 33 24 27 44 -14 42 -20 0 -42 -5 -50 -10 -10 -7 -12 -6 -6 4 5 8 3
11 -5 8 -7 -2 -14 -12 -16 -21 -2 -13 3 -16 16 -12 10 3 21 2 24 -3 3 -5 -7
-8 -22 -8 -15 1 -34 -3 -42 -9 -13 -9 -13 -8 0 9 26 33 21 43 -24 43 -29 0
-43 -4 -43 -13 0 -17 3 -17 26 -5 11 6 23 6 32 0 12 -8 12 -10 -1 -8 -27 3
-41 -1 -36 -9 3 -5 -1 -9 -9 -9 -8 0 -16 4 -16 9 -1 4 -2 13 -3 19 0 7 -17 14
-37 16 -27 2 -36 -1 -36 -12 0 -18 8 -19 27 -2 8 6 6 2 -4 -11 -21 -24 -26
-23 -30 4 -3 23 -73 32 -73 9 0 -18 8 -19 27 -2 8 6 6 2 -4 -11 -21 -24 -26
-23 -30 4 -3 23 -73 32 -73 9 0 -18 8 -19 27 -2 8 6 6 2 -4 -11 -21 -24 -26
-23 -30 4 -4 28 -54 27 -91 -2 -28 -21 -33 -22 -39 -8 -8 21 -8 24 5 24 5 0 7
-4 4 -10 -3 -5 -1 -10 4 -10 6 0 11 5 11 11 0 5 5 7 10 4 6 -3 10 -2 10 3 0
18 -38 20 -61 4 -15 -10 -20 -11 -14 -2 5 8 3 11 -5 8 -7 -2 -14 -12 -16 -21
-2 -13 3 -16 16 -12 10 3 21 2 24 -4 3 -5 -8 -8 -25 -7 -16 1 -32 -1 -35 -6
-3 -4 -10 -8 -17 -8 -6 0 -2 6 8 14 33 24 27 44 -14 42 -20 0 -42 -5 -50 -10
-10 -7 -12 -6 -6 4 5 8 3 11 -5 8 -7 -2 -14 -12 -16 -21 -2 -13 3 -16 16 -12
10 3 21 2 24 -3 3 -5 -7 -8 -22 -8 -15 1 -34 -3 -42 -9 -13 -9 -13 -8 0 9 26
33 21 43 -24 43 -29 0 -43 -4 -43 -13 0 -17 3 -17 26 -5 11 6 23 6 32 0 12 -8
12 -10 -1 -8 -27 3 -41 -1 -36 -9 3 -5 -1 -9 -9 -9 -8 0 -16 4 -16 9 -1 4 -2
13 -3 19 0 7 -17 14 -37 16 -27 2 -36 -1 -36 -12 0 -18 8 -19 27 -2 8 6 6 2
-4 -11 -21 -24 -26 -23 -31 5 -1 10 -8 17 -14 15 -7 -1 -21 3 -33 9 -16 9 -19
8 -15 -3 2 -7 10 -12 16 -10 7 1 10 -2 6 -8 -4 -6 -14 -5 -28 4 -24 16 -93 17
-116 2 -10 -6 -12 -6 -7 2 4 7 3 12 -3 12 -23 0 -20 -20 6 -34 17 -9 22 -15
12 -16 -17 0 -52 33 -44 42 3 2 -30 4 -72 4 -71 -1 -78 -3 -78 -21 0 -15 -7
-20 -30 -21 -17 0 -37 -4 -45 -9 -7 -5 -5 3 6 18 10 15 23 27 28 27 5 0 3 -6
-3 -14 -10 -11 -7 -14 12 -12 18 1 24 7 24 24 0 12 -1 22 -3 22 -2 0 -4 -4 -4
-8z m-437 -25 c-4 -7 1 -8 13 -3 10 4 15 4 11 0 -4 -4 -1 -14 6 -23 10 -14 10
-14 -4 -4 -9 7 -18 11 -20 8 -3 -2 -10 4 -16 14 -9 14 -8 18 3 18 7 0 10 -5 7
-10z m95 5 c14 10 15 10 5 -2 -20 -22 -15 -35 5 -17 21 19 35 22 30 6 -2 -6
-8 -11 -13 -11 -6 0 -15 -4 -22 -9 -8 -7 -15 -4 -22 10 -6 11 -11 23 -10 28 0
4 3 2 6 -5 4 -10 8 -10 21 0z m94 -4 c-24 -24 -11 -31 16 -8 l27 24 -22 -23
c-12 -14 -33 -25 -47 -26 l-26 -1 28 23 c29 24 44 31 24 11z m54 -4 c-4 -11
-1 -14 13 -9 11 3 24 -1 32 -12 12 -15 12 -16 -1 -8 -19 11 -51 12 -69 0 -9
-5 -6 3 5 18 22 30 29 34 20 11z m104 6 c0 -5 -5 -10 -11 -10 -5 0 -7 5 -4 10
3 6 8 10 11 10 2 0 4 -4 4 -10z m25 0 c3 -5 1 -10 -4 -10 -6 0 -11 5 -11 10 0
6 2 10 4 10 3 0 8 -4 11 -10z m137 -2 c-24 -24 -11 -31 16 -8 l27 24 -22 -23
c-12 -14 -33 -25 -47 -26 l-26 -1 28 23 c29 24 44 31 24 11z m54 -4 c-4 -11
-1 -14 13 -9 11 3 24 -1 32 -12 12 -15 12 -16 -1 -8 -19 11 -51 12 -69 0 -9
-5 -6 3 5 18 22 30 29 34 20 11z m104 6 c0 -5 -5 -10 -11 -10 -5 0 -7 5 -4 10
3 6 8 10 11 10 2 0 4 -4 4 -10z m25 0 c3 -5 1 -10 -4 -10 -6 0 -11 5 -11 10 0
6 2 10 4 10 3 0 8 -4 11 -10z m34 -6 c-12 -15 -11 -16 8 -10 12 4 24 3 27 -2
3 -5 -7 -8 -22 -8 -15 1 -34 -3 -42 -9 -8 -6 -6 1 5 17 11 15 24 28 29 28 5 0
2 -7 -5 -16z m351 5 c4 7 10 9 13 4 3 -5 -2 -14 -12 -20 -14 -9 -20 -7 -31 11
-12 19 -12 20 4 7 14 -12 19 -12 26 -2z m178 -3 c-10 -7 -14 -17 -10 -21 4 -5
2 -5 -5 -1 -6 3 -14 2 -18 -4 -3 -5 -11 -10 -18 -10 -6 0 4 11 23 25 19 14 36
25 39 25 3 0 -2 -7 -11 -14z m462 3 c4 7 10 9 13 4 3 -5 -2 -14 -12 -20 -14
-9 -20 -7 -31 11 -12 19 -12 20 4 7 14 -12 19 -12 26 -2z m178 -3 c-10 -7 -14
-17 -10 -21 4 -5 2 -5 -5 -1 -6 3 -14 2 -18 -4 -3 -5 -11 -10 -18 -10 -6 0 4
11 23 25 19 14 36 25 39 25 3 0 -2 -7 -11 -14z m293 -6 c6 0 8 4 5 8 -2 4 4 8
15 8 19 0 18 -1 -3 -17 -22 -17 -39 -10 -37 16 0 6 3 4 6 -2 2 -7 9 -13 14
-13z m55 4 c-4 -12 -1 -14 13 -9 11 3 22 2 25 -4 3 -5 -8 -8 -25 -7 -16 1 -32
-1 -35 -6 -3 -4 -9 -8 -14 -8 -5 0 1 11 13 24 27 29 31 31 23 10z m132 2 c-10
-7 -14 -17 -10 -21 4 -5 2 -5 -5 -1 -6 3 -14 2 -18 -4 -3 -5 -11 -10 -18 -10
-6 0 4 11 23 25 19 14 36 25 39 25 3 0 -2 -7 -11 -14z m302 3 c4 7 10 9 13 4
3 -5 -2 -14 -12 -20 -14 -9 -20 -7 -31 11 -12 19 -12 20 4 7 14 -12 19 -12 26
-2z m178 -3 c-10 -7 -14 -17 -10 -21 4 -5 2 -5 -5 -1 -6 3 -14 2 -18 -4 -3 -5
-11 -10 -18 -10 -6 0 4 11 23 25 19 14 36 25 39 25 3 0 -2 -7 -11 -14z m293
-6 c6 0 8 4 5 8 -2 4 4 8 15 8 19 0 18 -1 -3 -17 -22 -17 -39 -10 -37 16 0 6
3 4 6 -2 2 -7 9 -13 14 -13z m55 4 c-4 -12 -1 -14 13 -9 11 3 22 2 25 -4 3 -5
-8 -8 -25 -7 -16 1 -32 -1 -35 -6 -3 -4 -9 -8 -14 -8 -5 0 1 11 13 24 27 29
31 31 23 10z m125 3 c-6 -8 -7 -18 -3 -22 4 -5 2 -5 -5 -1 -6 3 -14 2 -18 -4
-3 -5 -11 -10 -16 -10 -6 0 3 11 18 25 31 27 41 32 24 12z m140 -7 c6 0 8 4 5
8 -2 4 4 8 15 8 19 0 18 -1 -3 -17 -22 -17 -39 -10 -37 16 0 6 3 4 6 -2 2 -7
9 -13 14 -13z m55 4 c-4 -12 -1 -14 13 -9 11 3 22 2 25 -4 3 -5 -8 -8 -25 -7
-16 1 -32 -1 -35 -6 -3 -4 -9 -8 -14 -8 -5 0 1 11 13 24 27 29 31 31 23 10z
m132 2 c-10 -7 -14 -17 -10 -21 4 -5 2 -5 -5 -1 -6 3 -14 2 -18 -4 -3 -5 -11
-10 -18 -10 -6 0 4 11 23 25 19 14 36 25 39 25 3 0 -2 -7 -11 -14z m-2854 -11
c-4 -8 -11 -15 -16 -15 -6 0 -5 6 2 15 7 8 14 15 16 15 2 0 1 -7 -2 -15z m80
0 c-4 -8 -11 -15 -16 -15 -6 0 -5 6 2 15 7 8 14 15 16 15 2 0 1 -7 -2 -15z
m400 0 c-4 -8 -11 -15 -16 -15 -6 0 -5 6 2 15 7 8 14 15 16 15 2 0 1 -7 -2
-15z m80 0 c-4 -8 -11 -15 -16 -15 -6 0 -5 6 2 15 7 8 14 15 16 15 2 0 1 -7
-2 -15z m80 0 c-4 -8 -11 -15 -16 -15 -6 0 -5 6 2 15 7 8 14 15 16 15 2 0 1
-7 -2 -15z m80 0 c-4 -8 -11 -15 -16 -15 -6 0 -5 6 2 15 7 8 14 15 16 15 2 0
1 -7 -2 -15z m400 0 c-4 -8 -11 -15 -16 -15 -6 0 -5 6 2 15 7 8 14 15 16 15 2
0 1 -7 -2 -15z m80 0 c-4 -8 -11 -15 -16 -15 -6 0 -5 6 2 15 7 8 14 15 16 15
2 0 1 -7 -2 -15z m400 0 c-4 -8 -11 -15 -16 -15 -6 0 -5 6 2 15 7 8 14 15 16
15 2 0 1 -7 -2 -15z m80 0 c-4 -8 -11 -15 -16 -15 -6 0 -5 6 2 15 7 8 14 15
16 15 2 0 1 -7 -2 -15z m400 0 c-4 -8 -11 -15 -16 -15 -6 0 -5 6 2 15 7 8 14
15 16 15 2 0 1 -7 -2 -15z m80 0 c-4 -8 -11 -15 -16 -15 -6 0 -5 6 2 15 7 8
14 15 16 15 2 0 1 -7 -2 -15z m720 0 c-4 -8 -11 -15 -16 -15 -6 0 -5 6 2 15 7
8 14 15 16 15 2 0 1 -7 -2 -15z m80 0 c-4 -8 -11 -15 -16 -15 -6 0 -5 6 2 15
7 8 14 15 16 15 2 0 1 -7 -2 -15z m-3801 -70 c-3 -9 -8 -14 -10 -11 -3 3 -2 9
2 15 9 16 15 13 8 -4z m-44 -148 c-8 -7 -20 -21 -26 -31 -9 -17 -10 -17 -10 7
0 15 3 25 6 22 4 -2 13 0 21 6 22 13 28 10 9 -4z m-27 -98 c-7 -11 -10 -25 -6
-32 4 -7 4 -9 -1 -5 -4 4 -17 2 -29 -4 -17 -9 -15 -5 7 17 31 32 36 57 10 49
-15 -5 -16 -4 -3 5 22 16 38 -5 22 -30z m-15 -64 c0 -8 -4 -12 -9 -9 -4 3 -13
-6 -20 -20 -6 -14 -15 -26 -20 -26 -13 0 33 67 48 70 0 0 1 -7 1 -15z m-16
-48 c-10 -9 -11 -8 -5 6 3 10 9 15 12 12 3 -3 0 -11 -7 -18z m-46 -167 c3 -5
1 -10 -4 -10 -6 0 -11 5 -11 10 0 6 2 10 4 10 3 0 8 -4 11 -10z m-11 -65 c-4
-8 -11 -12 -16 -9 -6 4 -5 10 3 15 19 12 19 11 13 -6z m-14 -45 c0 -8 -7 -2
-15 14 -19 36 -19 45 0 20 8 -10 14 -26 15 -34z m-10 -54 c0 -3 -4 -8 -10 -11
-5 -3 -10 -1 -10 4 0 6 5 11 10 11 6 0 10 -2 10 -4z m-40 -66 c0 -5 -4 -10
-10 -10 -5 0 -10 5 -10 10 0 6 5 10 10 10 6 0 10 -4 10 -10z m0 -62 c0 -6 -3
-8 -7 -5 -3 4 -12 2 -20 -4 -8 -8 -13 -8 -13 -1 0 10 15 19 33 21 4 1 7 -4 7
-11z m-40 -53 c-15 -18 0 -20 20 -2 12 10 12 9 1 -5 -7 -9 -10 -21 -8 -26 3
-4 1 -14 -5 -22 -8 -12 -9 -12 -4 2 6 20 -10 34 -18 16 -2 -7 -3 -4 -2 7 4 28
17 57 24 51 3 -3 -1 -12 -8 -21z m-17 -72 c-4 -10 -2 -14 4 -10 5 3 10 0 10
-8 0 -8 -4 -15 -8 -15 -10 0 -20 30 -13 41 9 15 14 10 7 -8z m-10 -57 c-4 -5
1 -7 12 -2 15 5 16 4 5 -9 -10 -12 -15 -13 -21 -3 -4 6 -5 16 -3 20 3 4 0 8
-6 8 -6 0 -8 5 -4 11 4 8 9 7 15 -2 4 -7 5 -17 2 -23z m-14 -38 c-2 -13 1 -29
5 -37 7 -10 5 -12 -4 -6 -9 6 -10 2 -5 -16 4 -13 4 -20 -1 -16 -11 10 -12 97
-1 97 5 0 7 -10 6 -22z m1888 -45 c-4 -3 -2 -12 5 -20 6 -7 8 -16 4 -20 -3 -3
-6 0 -6 8 0 11 -2 11 -10 -1 -6 -10 -10 -11 -10 -2 0 6 -5 12 -11 12 -5 0 -7
-6 -3 -12 4 -7 4 -10 -1 -6 -4 4 -16 3 -26 -2 -12 -7 -20 -6 -25 2 -4 6 -3 8
3 5 6 -4 19 0 29 8 18 14 18 14 -3 10 -13 -2 -23 0 -23 5 0 5 14 8 30 6 17 -2
33 0 36 5 3 5 8 9 11 9 4 0 3 -3 0 -7z m407 -11 c-3 -31 -6 -36 -13 -18 -9 25
-43 31 -39 8 2 -10 -4 -17 -12 -17 -9 0 -14 7 -12 19 2 10 -1 16 -5 13 -5 -3
-15 -2 -21 2 -7 4 13 7 45 6 38 -1 58 -5 57 -13z m456 2 c0 -8 -19 -13 -24 -6
-3 5 1 9 9 9 8 0 15 -2 15 -3z m-30 -61 c0 -5 -10 -19 -21 -33 l-20 -25 12 25
c7 14 12 28 11 33 -1 4 3 7 8 7 6 0 10 -3 10 -7z m1020 -58 c-9 -11 -17 -12
-31 -4 -15 7 -21 6 -25 -5 -3 -8 -12 -17 -20 -20 -8 -3 -12 -2 -9 3 3 5 1 12
-5 16 -5 3 -10 -1 -10 -9 0 -9 -5 -16 -11 -16 -5 0 -7 -6 -3 -12 5 -10 4 -10
-6 -1 -10 9 -17 7 -30 -10 l-17 -21 -13 23 c-6 13 -7 21 -2 17 6 -3 13 -2 17
4 4 6 11 8 16 5 5 -4 9 -1 9 5 0 7 6 10 14 7 8 -3 17 1 20 10 5 12 9 13 20 4
9 -8 17 -8 20 -2 3 5 3 11 -1 14 -5 2 -2 2 5 1 6 -2 12 2 13 9 0 9 2 9 6 0 2
-7 9 -13 15 -13 6 0 7 7 4 16 -3 8 -2 12 4 9 6 -3 10 0 10 7 0 8 5 6 11 -5 8
-13 7 -22 -1 -32z m-1037 -50 c-3 -9 -8 -14 -10 -11 -3 3 -2 9 2 15 9 16 15
13 8 -4z m-2778 -117 c5 4 4 0 -1 -8 -4 -8 -9 -21 -10 -28 -2 -8 -5 -17 -9
-20 -3 -4 -4 6 -1 21 2 15 0 27 -5 27 -5 0 -9 5 -9 11 0 8 4 9 13 0 8 -6 18
-7 22 -3z m-46 -70 c-3 -26 1 -39 11 -33 5 3 7 0 4 -9 -8 -20 -33 2 -29 24 2
8 4 18 4 23 1 4 3 7 6 7 3 0 5 -6 4 -12z m26 -8 c3 -5 1 -10 -4 -10 -6 0 -11
5 -11 10 0 6 2 10 4 10 3 0 8 -4 11 -10z m2726 -4 c5 3 9 0 9 -6 0 -15 -23 -7
-26 8 -1 7 0 8 3 2 2 -5 9 -8 14 -4z m-15 -45 c-14 -15 -14 -19 1 -34 10 -9
14 -17 11 -17 -4 0 -14 7 -23 16 -12 12 -13 19 -4 30 6 7 8 18 4 23 -4 7 0 8
10 5 14 -6 14 -8 1 -23z m-2746 -48 c-8 -4 -21 -13 -28 -22 -11 -14 -11 -13
-2 7 6 12 18 22 28 21 14 0 14 -2 2 -6z m0 -43 c0 -5 -4 -10 -10 -10 -5 0 -10
5 -10 10 0 6 5 10 10 10 6 0 10 -4 10 -10z m-40 -135 c-6 -8 -8 -20 -4 -27 6
-10 3 -9 -9 1 -16 13 -16 14 0 27 24 18 28 17 13 -1z m-45 -163 c-3 -3 -11 0
-18 7 -9 10 -8 11 6 5 10 -3 15 -9 12 -12z m-17 -51 c10 -6 10 -10 -2 -20 -8
-7 -13 -21 -11 -32 3 -12 0 -17 -7 -13 -7 5 -9 2 -6 -7 4 -10 -1 -15 -13 -15
-18 0 -18 1 0 21 10 11 16 26 14 33 -3 6 0 12 6 12 6 0 11 5 11 11 0 5 -4 7
-10 4 -5 -3 -10 -1 -10 4 0 13 10 14 28 2z m-64 -248 c4 -9 1 -21 -5 -27 -9
-8 -10 -8 -5 2 4 7 2 19 -4 27 -7 9 -8 15 -2 15 5 0 13 -8 16 -17z m-20 -49
c9 -24 2 -26 -12 -4 -7 11 -8 20 -3 20 5 0 12 -7 15 -16z m-19 -14 c3 -5 1
-10 -4 -10 -6 0 -11 5 -11 10 0 6 2 10 4 10 3 0 8 -4 11 -10z m24 -23 c-2 -1
-14 -11 -26 -21 -13 -11 -23 -16 -23 -13 0 10 31 37 42 37 6 0 9 -1 7 -3z
m-16 -42 c-3 -9 -8 -14 -10 -11 -3 3 -2 9 2 15 9 16 15 13 8 -4z m-13 -40 c-7
-8 -20 -15 -29 -15 -11 0 -8 5 9 14 33 19 35 19 20 1z m-24 -70 c-11 -8 -25
-15 -30 -15 -6 1 0 7 14 15 32 19 40 18 16 0z m-6 -59 c0 -3 -4 -8 -10 -11 -5
-3 -10 -1 -10 4 0 6 5 11 10 11 6 0 10 -2 10 -4z m-30 -16 c0 -5 -5 -10 -11
-10 -5 0 -7 5 -4 10 3 6 8 10 11 10 2 0 4 -4 4 -10z m-34 -195 c-1 -8 -14 -24
-29 -35 -20 -16 -25 -17 -21 -6 3 9 10 16 15 16 5 0 9 7 9 15 0 8 6 15 13 16
10 0 10 2 0 6 -7 2 -13 9 -13 15 0 7 5 6 14 -1 8 -7 13 -18 12 -26z m-13 -55
c-3 -12 -8 -19 -11 -16 -5 6 5 36 12 36 2 0 2 -9 -1 -20z m-23 -20 c0 -5 -5
-10 -11 -10 -5 0 -7 5 -4 10 3 6 8 10 11 10 2 0 4 -4 4 -10z m-11 -107 c2 -2
-3 -3 -11 -3 -9 0 -19 7 -22 16 -6 15 -4 15 11 3 10 -7 20 -15 22 -16z m-25
-28 c-4 -8 -8 -15 -10 -15 -2 0 -4 7 -4 15 0 8 4 15 10 15 5 0 7 -7 4 -15z
m-49 -204 c7 -12 -12 -24 -25 -16 -11 7 -4 25 10 25 5 0 11 -4 15 -9z m5 -42
c0 -5 -5 -8 -11 -6 -6 1 -14 -4 -17 -12 -3 -9 0 -11 8 -6 9 5 11 4 6 -4 -10
-15 -29 -3 -22 14 3 8 0 16 -7 18 -7 2 0 4 16 4 15 0 27 -3 27 -8z m2632 -267
c-7 -2 -9 -9 -5 -15 4 -7 -1 -6 -10 2 -20 16 -13 33 10 24 11 -4 13 -8 5 -11z
m-13 -37 c5 2 7 -7 5 -21 -3 -30 -13 -45 -12 -18 0 11 -1 26 -4 34 -3 8 -3 12
-1 7 3 -4 8 -5 12 -2z m-2709 -2 c0 -5 -5 -15 -10 -23 -7 -12 -9 -10 -7 8 1
19 17 33 17 15z m-20 -47 c14 -18 14 -18 -7 -6 -12 8 -19 18 -16 23 3 4 6 7 7
5 1 -2 8 -12 16 -22z m2715 -16 c3 -5 1 -10 -4 -10 -6 0 -11 5 -11 10 0 6 2
10 4 10 3 0 8 -4 11 -10z m-2 -23 c4 3 7 1 7 -6 0 -8 -7 -11 -15 -7 -8 3 -15
1 -15 -3 0 -5 4 -11 9 -13 5 -1 3 -8 -4 -15 -10 -9 -12 -5 -12 22 1 24 4 31
13 25 6 -6 14 -7 17 -3z m-17 -79 c-1 -7 -5 -19 -9 -25 -5 -7 -5 -17 -2 -23 3
-5 2 -10 -3 -10 -16 0 -22 28 -7 34 8 3 12 12 9 21 -3 8 -2 15 4 15 6 0 9 -6
8 -12z m-2756 -18 c0 -5 -2 -10 -4 -10 -3 0 -8 5 -11 10 -3 6 -1 10 4 10 6 0
11 -4 11 -10z m25 -10 c3 -5 1 -10 -4 -10 -6 0 -11 5 -11 10 0 6 2 10 4 10 3
0 8 -4 11 -10z m2712 -55 c0 -8 -4 -12 -9 -9 -4 3 -8 9 -8 15 0 5 4 9 8 9 5 0
9 -7 9 -15z m-11 -33 c1 -7 0 -8 -3 -2 -2 5 -9 8 -14 4 -5 -3 -9 0 -9 6 0 15
23 7 26 -8z m-23 -97 c4 -8 2 -17 -4 -20 -5 -4 -7 -10 -4 -15 9 -14 -16 -23
-28 -11 -9 9 -7 10 8 5 11 -4 17 -4 13 1 -4 4 -3 14 3 22 14 17 -2 17 -20 1
-11 -10 -10 -8 0 10 16 26 25 28 32 7z m-38 -74 c-3 -6 3 -14 12 -20 10 -6 12
-11 6 -11 -7 0 -16 -1 -20 -2 -3 -2 -8 7 -9 20 -2 12 1 22 7 22 5 0 8 -4 4 -9z
m-14 -91 c6 0 7 5 4 10 -3 6 -2 10 3 10 6 0 9 -11 8 -24 -1 -23 -2 -23 -18 -9
-10 9 -18 21 -17 27 0 6 3 6 6 -1 2 -7 9 -13 14 -13z m-10 -84 c5 3 9 0 9 -5
0 -6 -5 -11 -11 -11 -5 0 -8 -3 -6 -7 3 -5 -2 -15 -11 -23 -14 -13 -15 -12 -8
5 5 11 9 29 8 40 0 11 2 14 5 7 3 -6 9 -10 14 -6z m-30 -130 c-6 -7 -8 -22 -4
-32 6 -16 5 -17 -8 -4 -16 15 -22 43 -7 34 4 -3 8 0 8 5 0 6 5 11 11 11 8 0 8
-4 0 -14z m-2186 -46 c-3 -5 4 -14 16 -21 17 -9 19 -13 8 -20 -8 -5 -11 -9 -6
-10 4 -1 12 -3 17 -4 6 -1 15 -3 20 -4 6 0 10 -5 10 -10 0 -5 -7 -8 -15 -7
-17 2 -57 37 -51 44 3 2 -2 11 -10 19 -15 15 -10 38 7 27 5 -3 7 -9 4 -14z
m2160 -11 c-4 -5 -2 -9 3 -9 5 0 9 -7 9 -15 0 -22 -17 -4 -22 24 -2 12 0 19 6
16 5 -4 7 -11 4 -16z m-5 -74 c-7 -8 -10 -15 -6 -15 3 0 -3 -9 -14 -20 -31
-31 -32 -24 -2 19 15 21 29 37 31 35 2 -2 -2 -10 -9 -19z m-22 -81 c-4 -11
-28 -14 -28 -4 0 8 22 20 28 14 2 -1 2 -6 0 -10z m-6 -31 c-9 -3 -10 -9 -3
-17 6 -8 6 -17 -1 -26 -8 -12 -9 -12 -4 3 3 11 0 20 -10 24 -13 5 -13 7 -2 14
7 5 18 8 23 8 6 0 4 -3 -3 -6z m-17 -71 c-3 -3 -11 0 -18 7 -9 10 -8 11 6 5
10 -3 15 -9 12 -12z m-1861 -34 c7 -5 7 -8 -2 -8 -7 0 -10 -5 -6 -12 4 -7 3
-8 -5 -4 -6 4 -9 12 -6 17 4 5 1 9 -5 9 -6 0 -8 5 -5 10 3 6 -2 10 -12 10 -15
0 -16 2 -3 10 10 6 17 4 24 -8 5 -9 14 -20 20 -24z m1816 -113 c-7 -8 -17 -15
-22 -15 -11 0 14 29 26 30 5 0 3 -7 -4 -15z m-19 -99 c5 3 9 0 9 -6 0 -7 -7
-9 -16 -6 -9 3 -18 6 -20 6 -3 0 -2 5 2 12 6 9 9 9 12 0 2 -7 8 -10 13 -6z
m-6 -36 c3 -5 1 -10 -4 -10 -6 0 -11 5 -11 10 0 6 2 10 4 10 3 0 8 -4 11 -10z
m-1579 -19 c-3 -5 1 -11 9 -15 9 -3 12 -12 8 -23 -3 -10 -3 -15 1 -12 10 9 53
-35 53 -55 0 -15 -2 -15 -18 0 -10 9 -17 19 -16 23 1 3 -7 16 -18 28 -42 46
-45 51 -32 56 18 8 19 8 13 -2z m279 -351 c-3 -5 3 -13 12 -19 10 -6 14 -10 8
-11 -18 0 -32 14 -32 32 0 9 4 15 9 12 5 -3 6 -9 3 -14z m41 -64 c2 -14 0 -15
-12 -5 -17 14 -19 32 -2 27 6 -2 12 -12 14 -22z m68 -65 c3 -5 -1 -11 -9 -14
-9 -4 -12 -1 -8 9 6 16 10 17 17 5z m31 -38 c5 -10 10 -27 12 -38 3 -17 1 -16
-14 5 -10 14 -18 31 -19 37 -3 19 13 16 21 -4z m55 -67 c0 -2 -7 -7 -16 -10
-8 -3 -12 -2 -9 4 6 10 25 14 25 6z m384 -491 c-4 -8 -11 -12 -16 -9 -6 4 -5
10 3 15 19 12 19 11 13 -6z m216 -265 c0 -5 -5 -10 -11 -10 -5 0 -7 5 -4 10 3
6 8 10 11 10 2 0 4 -4 4 -10z m35 -41 c16 -29 15 -30 -3 -20 -10 5 -25 18 -33
28 -13 17 -13 17 5 3 18 -14 19 -13 13 3 -10 28 1 19 18 -14z m32 -35 c-3 -3
10 -22 28 -41 19 -20 33 -39 31 -42 -6 -10 21 -30 30 -23 4 4 4 1 0 -6 -6 -11
-12 -10 -27 4 -11 9 -17 19 -15 22 8 7 -18 30 -28 24 -5 -3 -6 0 -2 6 3 6 -5
19 -19 30 -17 14 -21 22 -13 25 18 8 22 8 15 1z"/>
<path d="M9016 6953 c-6 -14 -5 -15 5 -6 7 7 10 15 7 18 -3 3 -9 -2 -12 -12z"/>
<path d="M8866 6893 c-6 -14 -5 -15 5 -6 7 7 10 15 7 18 -3 3 -9 -2 -12 -12z"/>
<path d="M5343 8248 c1 -7 9 -18 17 -25 12 -9 17 -8 23 3 4 8 5 19 2 24 -9 14
-45 12 -42 -2z"/>
<path d="M7835 7070 c-10 -16 5 -33 19 -21 13 11 30 3 40 -19 3 -8 4 -4 2 10
-5 23 -4 24 9 7 7 -10 16 -14 19 -9 8 13 -20 36 -33 27 -6 -3 -19 -1 -30 5
-13 7 -22 7 -26 0z"/>
<path d="M3704 7062 c4 -3 -3 -11 -16 -18 -18 -10 -24 -9 -35 5 -11 15 -13 14
-32 -4 l-20 -20 44 0 c25 -1 45 3 45 7 0 4 5 8 11 8 5 0 7 -6 3 -12 -6 -10 -4
-10 8 0 13 10 17 10 21 0 4 -11 6 -10 6 0 1 8 6 10 14 5 23 -15 36 -11 53 15
16 24 16 26 1 13 -9 -7 -17 -10 -17 -5 0 5 -8 0 -16 -11 -16 -20 -16 -20 -9 3
8 26 -2 29 -22 5 -8 -12 -12 -13 -11 -4 2 7 -5 15 -15 16 -11 2 -16 1 -13 -3z
m-54 -22 c0 -5 -2 -10 -4 -10 -3 0 -8 5 -11 10 -3 6 -1 10 4 10 6 0 11 -4 11
-10z"/>
<path d="M7610 7062 c1 -35 83 -51 108 -22 12 13 13 13 9 -1 -4 -12 1 -15 19
-15 32 2 46 17 34 36 -6 9 -10 10 -10 3 0 -6 -9 -11 -20 -10 -11 1 -20 4 -20
7 0 4 -7 7 -15 7 -8 0 -12 -4 -10 -8 3 -4 -2 -9 -10 -12 -10 -4 -12 -1 -9 11
2 9 -1 7 -7 -5 -7 -13 -16 -23 -21 -23 -5 0 -7 4 -3 9 3 5 0 13 -7 18 -17 10
-38 13 -38 5z"/>
<path d="M7793 7049 c4 -22 17 -38 17 -20 0 8 5 9 18 3 20 -11 62 0 45 11 -7
4 -14 3 -18 -3 -4 -6 -13 -5 -25 2 -10 7 -17 15 -15 18 2 4 -2 7 -10 7 -8 0
-13 -8 -12 -18z"/>
<path d="M2469 7043 c-13 -16 -12 -17 4 -4 9 7 17 15 17 17 0 8 -8 3 -21 -13z"/>
<path d="M2520 7045 c-7 -9 -8 -15 -2 -15 5 0 12 7 16 15 3 8 4 15 2 15 -2 0
-9 -7 -16 -15z"/>
<path d="M2587 7043 c3 -7 9 -13 13 -13 4 0 10 6 13 13 3 7 -3 13 -13 13 -10
0 -16 -6 -13 -13z"/>
<path d="M6565 7050 c-4 -6 -10 -8 -15 -5 -5 3 -11 2 -14 -3 -2 -4 6 -8 19 -8
14 0 27 6 29 13 6 15 -10 18 -19 3z"/>
<path d="M6772 7047 c-13 -16 1 -42 17 -32 8 5 9 11 2 19 -6 7 -8 16 -4 19 3
4 4 7 1 7 -3 0 -10 -6 -16 -13z"/>
<path d="M6865 7038 c3 -11 7 -23 11 -27 4 -3 4 3 0 14 -4 11 -4 16 0 12 4 -4
13 -2 21 4 9 9 13 8 13 0 0 -6 -4 -11 -10 -11 -5 0 -10 -4 -10 -8 0 -5 7 -9
15 -9 8 0 12 4 9 9 -3 4 2 8 11 8 9 0 14 -4 11 -9 -4 -5 1 -8 11 -7 9 2 17 10
19 19 2 18 -22 31 -31 16 -4 -5 -12 -6 -18 -2 -6 4 -21 8 -33 9 -18 2 -22 -2
-19 -18z m89 -4 c3 -8 2 -12 -4 -9 -6 3 -10 10 -10 16 0 14 7 11 14 -7z"/>
<path d="M7317 7053 c-20 -20 -4 -31 46 -29 39 1 52 5 52 16 0 8 -7 15 -15 15
-8 0 -14 -6 -12 -12 3 -16 -10 -17 -26 -1 -7 7 -12 8 -12 4 0 -5 -6 -3 -13 3
-8 6 -17 8 -20 4z m93 -13 c0 -5 -2 -10 -4 -10 -3 0 -8 5 -11 10 -3 6 -1 10 4
10 6 0 11 -4 11 -10z"/>
<path d="M5240 7040 c0 -5 5 -10 10 -10 6 0 10 5 10 10 0 6 -4 10 -10 10 -5 0
-10 -4 -10 -10z"/>
<path d="M9116 7005 c-13 -11 -32 -25 -42 -31 -14 -8 -15 -12 -4 -19 9 -6 11
-4 5 5 -6 10 -4 12 7 7 9 -3 25 1 37 9 11 8 21 12 21 8 0 -3 7 -1 15 6 8 7 15
9 15 5 0 -5 8 -1 18 8 10 10 22 14 27 10 4 -5 5 -2 0 5 -5 10 -10 11 -18 3
-13 -13 -31 -15 -23 -3 10 16 -35 7 -58 -13z m35 1 c-1 -3 -4 -6 -8 -7 -5 0
-15 -6 -23 -12 -8 -6 -6 -2 4 11 17 20 29 23 27 8z"/>
<path d="M3875 6920 c-3 -5 -1 -10 4 -10 6 0 11 5 11 10 0 6 -2 10 -4 10 -3 0
-8 -4 -11 -10z"/>
<path d="M4815 6921 c9 -15 -25 -43 -39 -32 -13 11 -30 3 -33 -16 -4 -17 7
-16 49 1 22 9 34 22 35 35 1 12 -3 21 -8 21 -6 0 -8 -4 -4 -9z"/>
<path d="M3830 6860 c0 -5 5 -10 10 -10 6 0 10 5 10 10 0 6 -4 10 -10 10 -5 0
-10 -4 -10 -10z"/>
<path d="M8728 6844 c-16 -8 -28 -20 -28 -26 0 -6 -3 -8 -7 -5 -3 4 -14 0 -23
-8 -10 -9 -21 -15 -26 -13 -18 6 -72 -24 -83 -45 -11 -21 -11 -21 -6 3 l6 25
-15 -25 c-9 -14 -15 -20 -16 -13 0 15 -27 11 -43 -7 -10 -10 -9 -11 1 -6 7 4
19 3 27 -4 9 -8 15 -8 20 0 3 6 10 8 15 5 5 -3 11 -1 15 5 4 6 11 8 16 5 8 -6
13 8 10 28 0 4 4 7 9 7 6 0 10 -4 10 -10 0 -5 5 -10 11 -10 6 0 9 7 6 15 -4 8
-1 17 5 21 7 4 8 3 4 -4 -11 -18 30 -15 48 4 9 8 16 12 16 8 0 -3 6 -1 13 5 8
6 16 10 18 8 2 -1 -2 4 -10 11 -17 14 -7 16 18 3 22 -12 46 2 38 23 -8 19 -14
19 -49 0z m35 -15 c-8 -8 -13 -7 -18 2 -5 8 -4 10 3 5 7 -4 12 -2 12 5 0 7 3
9 7 6 4 -4 2 -12 -4 -18z m-73 -23 c0 -2 -8 -10 -17 -17 -16 -13 -17 -12 -4 4
13 16 21 21 21 13z"/>
<path d="M8201 6611 c-8 -5 -9 -11 -3 -15 5 -3 15 1 22 9 14 16 3 20 -19 6z"/>
<path d="M1010 6589 c0 -5 5 -7 10 -4 6 3 10 8 10 11 0 2 -4 4 -10 4 -5 0 -10
-5 -10 -11z"/>
<path d="M4056 6583 c-10 -10 -7 -33 5 -33 5 0 7 4 4 10 -3 6 1 7 9 4 9 -3 16
-2 16 4 0 12 -26 23 -34 15z"/>
<path d="M7870 6579 c0 -5 -4 -7 -10 -4 -5 3 -10 -1 -10 -9 0 -13 4 -14 25 -4
13 6 22 15 19 19 -7 13 -24 11 -24 -2z"/>
<path d="M8120 6565 c-12 -13 -26 -22 -31 -20 -4 3 -15 -5 -23 -17 -9 -12 -16
-16 -16 -9 0 11 -3 11 -15 1 -17 -14 -20 -30 -4 -30 5 0 7 5 3 11 -4 8 0 9 15
4 15 -4 21 -2 21 8 0 8 9 13 23 12 23 -2 57 14 57 28 0 4 -6 5 -12 1 -9 -5 -8
-2 1 9 22 28 7 29 -19 2z m10 -19 c0 -3 -4 -8 -10 -11 -5 -3 -10 -1 -10 4 0 6
5 11 10 11 6 0 10 -2 10 -4z"/>
<path d="M8164 6583 c4 -8 2 -13 -5 -13 -9 0 -10 -3 -3 -10 7 -7 19 -6 37 2
30 14 35 25 12 25 -8 0 -15 -5 -15 -10 0 -5 -8 -3 -17 4 -11 10 -14 10 -9 2z"/>
<path d="M3898 6519 c-16 -11 -28 -27 -28 -35 0 -8 -4 -14 -10 -14 -5 0 -9 4
-7 9 1 5 -2 9 -8 9 -5 0 -9 -4 -7 -9 1 -5 -2 -9 -8 -9 -5 0 -10 5 -10 11 0 6
-7 3 -16 -5 -11 -12 -12 -21 -5 -33 9 -17 10 -17 16 -1 4 10 11 15 16 12 6 -3
22 2 37 12 15 10 31 17 35 16 4 -1 15 5 23 13 9 8 21 12 27 8 7 -3 3 3 -7 15
-11 12 -20 22 -20 22 -1 0 -13 -10 -28 -21z m20 -11 c-7 -7 -20 -14 -28 -16
-8 -1 -4 6 10 17 27 21 41 20 18 -1z"/>
<path d="M7964 6498 c-4 -6 -3 -8 4 -4 6 3 13 2 17 -3 3 -6 -5 -8 -20 -5 -14
2 -25 0 -25 -6 0 -6 -11 -16 -25 -22 -30 -13 -33 -28 -5 -21 11 3 20 10 20 15
0 5 5 6 12 2 7 -4 8 -3 4 4 -5 8 1 12 16 12 13 0 30 5 38 10 13 9 13 11 0 20
-20 13 -27 12 -36 -2z"/>
<path d="M819 5880 c-4 -26 -8 -41 -14 -59 -9 -30 2 -26 19 7 9 18 11 33 5 43
-5 8 -9 12 -10 9z"/>
<path d="M4851 5591 c-14 -9 -9 -41 8 -41 13 0 23 32 14 41 -5 5 -14 4 -22 0z"/>
<path d="M4660 4911 c0 -5 -3 -16 -6 -25 -3 -9 -1 -16 6 -16 6 0 9 4 5 9 -3 5
2 17 11 25 14 15 14 16 0 16 -9 0 -16 -4 -16 -9z"/>
<path d="M466 4371 c-4 -5 -2 -12 3 -15 5 -4 12 -2 15 3 4 5 2 12 -3 15 -5 4
-12 2 -15 -3z"/>
<path d="M4687 4236 c-3 -7 13 -32 35 -57 35 -39 38 -41 27 -14 -20 45 -56 87
-62 71z m28 -26 c10 -11 16 -20 13 -20 -3 0 -13 9 -23 20 -10 11 -16 20 -13
20 3 0 13 -9 23 -20z"/>
<path d="M785 3980 c-3 -5 1 -13 10 -16 22 -9 29 1 11 15 -10 8 -16 9 -21 1z"/>
<path d="M3020 3902 c0 -5 7 -9 15 -9 8 0 15 4 15 9 0 4 -7 8 -15 8 -8 0 -15
-4 -15 -8z"/>
<path d="M875 3870 c-4 -7 2 -14 14 -17 12 -3 21 -12 21 -19 0 -8 5 -14 10
-14 13 0 -2 31 -24 49 -10 9 -16 9 -21 1z"/>
<path d="M7115 3840 c-3 -5 -1 -10 4 -10 6 0 11 5 11 10 0 6 -2 10 -4 10 -3 0
-8 -4 -11 -10z"/>
<path d="M2980 3722 c0 -5 7 -9 15 -9 8 0 15 4 15 9 0 4 -7 8 -15 8 -8 0 -15
-4 -15 -8z"/>
<path d="M5327 3443 c-9 -9 12 -33 30 -33 8 0 12 -4 9 -9 -7 -11 32 -56 41
-47 4 4 1 11 -7 16 -8 5 -15 13 -15 17 0 9 -40 63 -47 63 -3 0 -8 -3 -11 -7z"/>
<path d="M1507 3093 c-9 -14 18 -42 31 -34 9 5 7 12 -7 25 -10 9 -21 14 -24 9z"/>
<path d="M1540 3046 c0 -11 30 -39 36 -34 2 3 -5 13 -16 23 -11 10 -20 15 -20
11z"/>
<path d="M5657 3033 c-2 -5 6 -18 18 -30 18 -19 21 -20 20 -5 -2 32 -27 55
-38 35z"/>
<path d="M1640 2922 c0 -12 19 -26 26 -19 2 2 -2 10 -11 17 -9 8 -15 8 -15 2z"/>
<path d="M5960 2648 c0 -4 5 -8 11 -8 5 0 8 -4 4 -9 -3 -5 6 -18 20 -29 13
-11 21 -23 17 -27 -4 -5 -1 -5 7 0 12 7 10 12 -8 27 -13 10 -20 18 -16 18 4 0
2 6 -4 13 -6 8 -9 16 -6 19 3 2 -2 5 -10 5 -8 0 -15 -4 -15 -9z"/>
<path d="M6125 2451 c-3 -6 3 -14 12 -20 10 -6 15 -11 11 -11 -7 0 0 -9 57
-73 14 -15 25 -32 25 -36 0 -5 7 -12 16 -15 8 -3 12 -10 9 -16 -3 -5 2 -10 11
-10 15 0 14 4 -7 28 -13 15 -30 33 -38 40 -8 6 -11 12 -7 12 4 0 -10 22 -33
49 -22 26 -38 51 -34 55 3 3 1 6 -5 6 -6 0 -13 -4 -17 -9z"/>
<path d="M2086 2366 c12 -32 51 -69 60 -55 4 7 3 9 -3 6 -11 -7 -28 20 -24 38
2 6 -1 7 -5 3 -4 -4 -13 0 -21 10 -12 16 -13 16 -7 -2z"/>
<path d="M6356 2162 c-3 -5 8 -20 24 -33 16 -13 30 -29 30 -35 0 -5 16 -27 35
-48 19 -21 35 -42 35 -47 0 -5 5 -9 11 -9 8 0 9 4 0 13 -6 8 -8 17 -4 20 3 4
1 7 -5 7 -6 0 -13 8 -17 18 -9 28 -102 125 -109 114z m85 -89 c13 -16 12 -17
-3 -4 -10 7 -18 15 -18 17 0 8 8 3 21 -13z"/>
<path d="M3267 1776 c-4 -10 -1 -13 8 -9 8 3 12 9 9 14 -7 12 -11 11 -17 -5z"/>
<path d="M6787 1776 c-4 -10 -1 -13 8 -9 8 3 12 9 9 14 -7 12 -11 11 -17 -5z"/>
<path d="M7030 1780 c0 -5 5 -10 11 -10 5 0 7 5 4 10 -3 6 -8 10 -11 10 -2 0
-4 -4 -4 -10z"/>
<path d="M6996 1768 c3 -5 10 -6 15 -3 13 9 11 12 -6 12 -8 0 -12 -4 -9 -9z"/>
<path d="M7670 1776 c0 -2 7 -7 16 -10 8 -3 12 -2 9 4 -6 10 -25 14 -25 6z"/>
</g>
</svg>
